<?xml version="1.0" standalone="no"?>
<!DOCTYPE svg PUBLIC "-//W3C//DTD SVG 1.1//EN" "http://www.w3.org/Graphics/SVG/1.1/DTD/svg11.dtd" >
<svg xmlns="http://www.w3.org/2000/svg">
<metadata></metadata>
<defs>
<font id="bittersweet_nfregular" horiz-adv-x="161" >
<font-face units-per-em="2048" ascent="1720" descent="-328" />
<missing-glyph horiz-adv-x="563" />
<glyph horiz-adv-x="0" />
<glyph unicode="&#xd;" horiz-adv-x="681" />
<glyph unicode=" "  horiz-adv-x="563" />
<glyph unicode="&#x09;" horiz-adv-x="563" />
<glyph unicode="&#xa0;" horiz-adv-x="563" />
<glyph unicode="!" horiz-adv-x="243" d="M41 71.5q0 32.5 23.5 56.5t56.5 24q35 0 58.5 -24t23.5 -56.5t-23.5 -56t-58.5 -23.5q-33 0 -56.5 23.5t-23.5 56zM82 301v1217q0 20 12 32.5t27 12.5q16 0 28.5 -12.5t12.5 -32.5v-1217q0 -45 -41 -45q-39 0 -39 45z" />
<glyph unicode="&#x22;" horiz-adv-x="378" d="M41 1225q0 2 1 5t1 5l70 328q6 35 39 34q16 0 28.5 -11t12.5 -30v-4q-3 -4 -3 -6l-69 -329q-6 -33 -37 -33q-16 0 -29.5 11t-13.5 30zM186 1225q0 2 1 5t1 5l70 328q6 35 39 34q16 0 28.5 -11t12.5 -30l-2 -4v-6l-70 -329q-6 -33 -37 -33q-16 0 -29.5 11t-13.5 30z" />
<glyph unicode="#" horiz-adv-x="827" d="M61 588q0 37 41 37h156l31 129h-158q-41 0 -41 36.5t41 36.5h172l121 551q10 33 37 33q35 0 35 -35q0 -12 -4 -24l-115 -525h127l121 551q10 33 37 33q37 0 36 -35q0 -12 -4 -24l-116 -525h147q41 0 41 -36.5t-41 -36.5h-162l-28 -129h161q18 0 28.5 -11.5t10.5 -26 t-11 -24.5t-28 -10h-176l-123 -561q-10 -33 -35 -33q-39 0 -38 37q0 12 4 24l118 533h-129l-122 -561q-10 -33 -35 -33q-37 0 -37 37q0 12 4 24l117 533h-142q-18 0 -29.5 10t-11.5 25zM332 625h129l28 129h-127z" />
<glyph unicode="$" horiz-adv-x="577" d="M41 1038q0 98 65.5 169t161.5 83v94q0 20 12.5 33t26.5 13q16 0 28.5 -12.5t12.5 -33.5v-94q117 -26 180 -116q8 -10 8.5 -27t-12 -28t-28.5 -11q-20 0 -33 20q-61 86 -160 86q-72 0 -127 -49t-55 -121q0 -109 78 -229l264 -414q31 -49 31 -104q0 -63 -40 -116.5 t-106 -74.5v-172q0 -43 -41 -43q-14 0 -26.5 11.5t-12.5 31.5v166q-51 6 -101 39t-50 82q0 16 12 27.5t29 11.5q23 0 37 -22q35 -59 96 -60q49 0 87 35t38 84q0 31 -19 61l-266 416q-90 137 -90 264z" />
<glyph unicode="%" horiz-adv-x="829" d="M61 1204q0 82 59.5 142.5t143.5 60.5t144.5 -59.5t60.5 -143.5t-60.5 -143.5t-144.5 -59.5t-143.5 60.5t-59.5 142.5zM100 -6q0 8 4 20l574 1370q8 27 35 27q14 0 25.5 -10t11.5 -25q-1 -6 -5 -18l-573 -1372q-14 -27 -35 -27q-14 0 -25.5 10.5t-11.5 24.5zM135 1204 q0 -53 39 -91t90 -38q55 0 93 38t38 91q0 55 -38 93t-93 38q-53 0 -91 -37.5t-38 -93.5zM360 162q0 84 59.5 144.5t143.5 60.5t144.5 -60.5t60.5 -144.5t-60.5 -143.5t-144.5 -59.5t-143.5 59.5t-59.5 143.5zM434 162q0 -51 39 -90t90 -39q55 0 93 38t38 91q0 55 -38 93 t-93 38q-53 0 -91 -38t-38 -93z" />
<glyph unicode="&#x26;" horiz-adv-x="1308" d="M41 494q0 152 86 281.5t233 189.5q-141 88 -141 256q0 121 90 211t213 90q61 0 145.5 -35t84.5 -84q0 -16 -12.5 -28.5t-29 -12.5t-30.5 14q-68 68 -154 68q-90 0 -159.5 -69.5t-69.5 -160.5q0 -82 67.5 -149.5t167.5 -67.5q29 0 29 -39q0 -41 -31 -40 q-180 0 -294.5 -127t-114.5 -295t126 -293t290 -125q168 0 296 118.5t128 301.5v116h-388q-63 0 -100 -42t-37 -99t36 -97t101 -40q18 0 30.5 -12.5t12.5 -28.5q0 -39 -43 -39q-102 0 -159.5 63.5t-57.5 151.5q0 90 57.5 156.5t159.5 66.5h551q31 0 47.5 19.5t16.5 46 t-16.5 43t-37 20.5t-37 14.5t-16.5 28.5q0 41 43 41q68 0 106 -44t38 -103q0 -57 -38 -101.5t-106 -44.5h-86v-96q0 -229 -145 -374.5t-354 -145.5q-203 0 -350.5 148.5t-147.5 347.5z" />
<glyph unicode="'" horiz-adv-x="233" d="M41 1225q0 2 1 5t1 5l70 328q6 35 39 34q16 0 28.5 -11t12.5 -30v-4q-3 -4 -3 -6l-69 -329q-6 -33 -37 -33q-16 0 -29.5 11t-13.5 30z" />
<glyph unicode="(" horiz-adv-x="323" d="M41 618q0 274 43 533q25 154 70 296t88 142q16 0 28.5 -11t12.5 -28q0 -10 -7 -22q-72 -152 -113.5 -392.5t-41.5 -517.5q-1 -589 155 -911q4 -8 5 -20q0 -16 -11.5 -27.5t-27.5 -11.5q-25 0 -37 24q-78 152 -121 402t-43 544z" />
<glyph unicode=")" horiz-adv-x="323" d="M41 -313q0 8 6 20q156 322 156 911q0 276 -42 517t-114 393q-6 12 -6 22q0 16 11 27.5t28 11.5q23 0 39 -24q164 -343 164 -947q0 -279 -43 -532q-29 -164 -72 -301t-86 -137q-16 0 -28.5 11t-12.5 28z" />
<glyph unicode="*" horiz-adv-x="518" d="M41 1202q0 23 25 37l114 66l-114 65q-23 10 -23 35q0 16 11.5 28.5t27.5 12.5q12 0 24 -6l111 -66v131q0 43 41 43t41 -43v-133l115 66q12 6 22 6q16 0 27.5 -11.5t11.5 -27.5q0 -23 -22 -37l-111 -65l113 -64q23 -14 22 -35q0 -16 -11 -28.5t-30 -12.5q-10 0 -22 6 l-115 66v-131q0 -43 -41 -43t-41 43v129l-113 -64q-12 -6 -24 -6q-16 0 -27.5 11.5t-11.5 27.5z" />
<glyph unicode="+" horiz-adv-x="907" d="M61 776q0 37 41 37h314v315q0 18 10 29.5t25 11.5q37 0 36 -41v-315h318q41 0 41 -37q0 -14 -11.5 -24.5t-29.5 -10.5h-318v-315q0 -41 -36 -41q-14 0 -24.5 11.5t-10.5 29.5v315h-314q-18 0 -29.5 10.5t-11.5 24.5z" />
<glyph unicode="," horiz-adv-x="247" d="M41 72q0 33 22.5 54t57.5 21q41 0 63.5 -33.5t22.5 -74.5q0 -92 -51.5 -174t-89.5 -82q-25 0 -25 20q0 8 20.5 31t40 63t19.5 93q-33 0 -56.5 21.5t-23.5 60.5z" />
<glyph unicode="-" horiz-adv-x="346" d="M41 766q0 41 43 41h180q41 0 41 -41q0 -14 -11.5 -26.5t-29.5 -12.5h-180q-20 0 -31.5 12.5t-11.5 26.5z" />
<glyph unicode="." horiz-adv-x="243" d="M41 71.5q0 32.5 23.5 56.5t56.5 24q35 0 58.5 -24t23.5 -56.5t-23.5 -56t-58.5 -23.5q-33 0 -56.5 23.5t-23.5 56z" />
<glyph unicode="/" horiz-adv-x="530" d="M41 -166q0 2 1 5t1 5l367 1719q6 35 39 34q16 0 28 -11t12 -30l-2 -4v-6l-366 -1720q-6 -33 -37 -33q-16 0 -29.5 11.5t-13.5 29.5z" />
<glyph unicode="0" horiz-adv-x="673" d="M41 522q0 76 14.5 159t45 170t92 142.5t145.5 55.5t145.5 -56.5t91 -143.5t44 -169t14.5 -158t-14.5 -157.5t-44 -168.5t-91 -143.5t-145.5 -56.5t-145.5 55t-92 142.5t-45 170t-14.5 158.5zM123 522.5q0 -57.5 9 -125t30.5 -144.5t67.5 -127t107.5 -50t108 50t66.5 128 t29.5 144.5t9.5 124t-9.5 124t-29.5 144t-66.5 128t-108 50.5t-107.5 -50.5t-67.5 -127t-30.5 -144t-9 -125z" />
<glyph unicode="1" horiz-adv-x="163" d="M41 37v958q0 43 41 43t41 -43v-958q0 -43 -41 -43t-41 43z" />
<glyph unicode="2" horiz-adv-x="530" d="M41 729q0 117 59.5 222.5t159.5 105.5q113 0 171 -88t58 -199q1 -84 -30 -166l-209 -528h153q43 0 43 -39q0 -37 -43 -37h-213q-41 0 -40 33q0 6 4 18l231 582q25 68 25 139q0 78 -37 141.5t-111 63.5q-68 0 -104.5 -84t-36.5 -164q0 -41 -41 -41q-39 0 -39 41z" />
<glyph unicode="3" horiz-adv-x="555" d="M41 199q0 16 12.5 26.5t28.5 10.5q27 0 39 -29q43 -131 147 -131q78 0 123 77.5t45 182.5q0 109 -48 186.5t-138 77.5q-16 0 -27.5 12.5t-11.5 28.5q0 4 4 16l162 320h-250q-41 0 -41 39q0 41 41 41h315q16 0 28.5 -13.5t12.5 -29.5q0 -5 -4 -17l-168 -323 q98 -25 150.5 -121t52.5 -217q0 -137 -65.5 -238.5t-180.5 -101.5q-82 0 -139 52t-84 134q-4 12 -4 17z" />
<glyph unicode="4" horiz-adv-x="636" d="M41 211q0 2 1 4t1 4l217 809q8 33 39 33q14 0 26.5 -11.5t12.5 -29.5q0 -2 -1 -6t-1 -6l-203 -758h252v565q0 20 12.5 32.5t26.5 12.5q16 0 28.5 -12t12.5 -33v-565h88q43 0 43 -41q0 -14 -11.5 -26.5t-31.5 -12.5h-88v-313q0 -41 -41 -41q-39 0 -39 41v313h-303 q-16 0 -28.5 12.5t-12.5 28.5z" />
<glyph unicode="5" horiz-adv-x="514" d="M41 160q0 18 12.5 28.5t26.5 10.5q18 0 38.5 -31t50.5 -61.5t69 -30.5q76 0 117.5 90t41.5 213q0 111 -35.5 190.5t-103.5 79.5q-39 0 -73.5 -28.5t-57.5 -57t-33 -28.5q-37 0 -37 30v422q0 14 12.5 27.5t26.5 13.5h303q43 0 43 -41q0 -14 -11 -26.5t-32 -12.5h-262v-264 q57 45 123 45q105 0 162 -104q51 -90 51 -252q0 -154 -58.5 -265.5t-176.5 -111.5q-125 0 -193 145q-4 6 -4 19z" />
<glyph unicode="6" horiz-adv-x="665" d="M41 522q0 78 11 152t45 170t48.5 136t70.5 163t63 139l63 145q4 8 11 28t12.5 30t16.5 20.5t24 10.5q16 0 29.5 -12.5t13.5 -28.5q0 -6 -189 -441q39 14 70 15q84 0 145.5 -56.5t91 -143.5t44 -169t14.5 -158t-14.5 -157.5t-44 -168.5t-91 -143.5t-145.5 -56.5 q-82 0 -143.5 55t-90 143.5t-42 169t-13.5 158.5zM125 514q0 -180 54 -309t151 -129q61 0 107 50t67.5 127t31 144.5t9.5 125t-9.5 125t-30 144t-66.5 127t-107 50.5q-96 0 -151.5 -136.5t-55.5 -318.5z" />
<glyph unicode="7" horiz-adv-x="462" d="M41 1004q0 41 45 40h299q14 0 25.5 -12t11.5 -28v-9l-266 -1163q-8 -33 -39 -33q-43 0 -43 39q0 8 2 12l258 1115h-248q-45 0 -45 39z" />
<glyph unicode="8" horiz-adv-x="659" d="M41 424q0 121 41 234.5t129 164.5q-86 86 -86 254q0 113 51 206t154 93q104 0 155.5 -92t51.5 -205q0 -170 -88 -256q88 -51 128.5 -164.5t40.5 -232.5q0 -98 -25.5 -190.5t-94 -166t-169 -73.5t-169 73.5t-94 165t-25.5 189.5zM121 426q0 -53 10 -108.5t32.5 -113 t65.5 -93t101 -35.5q76 0 126 64.5t66.5 138t16.5 147.5t-16.5 147.5t-66.5 138t-126 64.5q-57 0 -100.5 -35.5t-66 -93t-32.5 -113t-10 -108.5zM205 1077q0 -47 9 -92t39 -87t77 -42t76.5 41t40 88t10.5 92t-10.5 91t-40 87t-76.5 41q-66 0 -95.5 -71.5t-29.5 -147.5z" />
<glyph unicode="9" horiz-adv-x="669" d="M41 522q0 76 14.5 159t45 169t92 142.5t143.5 56.5q84 0 144.5 -51.5t91 -134.5t44 -167t13.5 -172q0 -78 -12.5 -152.5t-43 -161.5t-50 -138.5t-67.5 -155.5t-63 -139l-69 -160q-2 -6 -8.5 -21.5t-10.5 -23.5t-10 -19.5t-15.5 -16.5t-19.5 -5q-16 0 -28.5 11.5 t-12.5 25.5t187 442q-31 -12 -70 -12q-82 0 -143.5 55.5t-92 141.5t-45 168.5t-14.5 158.5zM123 522.5q0 -57.5 9 -124t29.5 -143.5t66.5 -127t107.5 -50t107.5 51t67.5 129t31 145.5t9.5 124.5q0 66 -9.5 133.5t-31 141.5t-66.5 120t-108 46q-61 0 -106.5 -50.5t-67 -127 t-30.5 -144t-9 -125z" />
<glyph unicode=":" horiz-adv-x="243" d="M41 71.5q0 32.5 23.5 56.5t56.5 24q35 0 58.5 -24t23.5 -56.5t-23.5 -56t-58.5 -23.5q-33 0 -56.5 23.5t-23.5 56zM41 481.5q0 32.5 23.5 56t56.5 23.5q35 0 58.5 -23.5t23.5 -56t-23.5 -56.5t-58.5 -24q-33 0 -56.5 24t-23.5 56.5z" />
<glyph unicode=";" horiz-adv-x="247" d="M41 74q0 33 23.5 55.5t58.5 22.5q45 0 70 -35q14 -33 14 -68q0 -47 -26.5 -86t-69.5 -39q-27 0 -27 29q0 14 25.5 26.5t29.5 16.5q-16 -4 -26 -4q-72 0 -72 82zM41 481.5q0 32.5 23.5 56t56.5 23.5q35 0 58.5 -23.5t23.5 -56.5q-2 -35 -25.5 -57.5t-56.5 -22.5t-56.5 24 t-23.5 56.5z" />
<glyph unicode="&#x3c;" horiz-adv-x="890" d="M61.5 684q-0.5 25 16.5 33l696 356q12 6 21 6q14 0 24 -11t10 -28q0 -23 -24 -32l-631 -324l631 -322h2q23 -10 22 -34q0 -14 -10 -25.5t-24 -11.5q-8 0 -21 6l-696 354q-16 8 -16.5 33z" />
<glyph unicode="=" horiz-adv-x="817" d="M61 616q0 41 39 41h615q41 0 41 -41q0 -16 -10.5 -28.5t-28.5 -12.5h-615q-41 0 -41 41zM61 821q0 41 39 41h615q41 0 41 -41q0 -16 -10.5 -28.5t-28.5 -12.5h-615q-41 0 -41 41z" />
<glyph unicode="&#x3e;" horiz-adv-x="890" d="M61 328q0 25 23 34l633 322l-633 324q-23 12 -23 32q0 16 10.5 27.5t24.5 11.5q8 0 21 -6l694 -356q18 -8 18 -33t-18 -33l-694 -354q-12 -6 -21 -6q-14 0 -24.5 11t-10.5 26z" />
<glyph unicode="?" horiz-adv-x="595" d="M41 1288q0 115 72.5 194t177.5 79q117 0 190.5 -83t73.5 -186q0 -84 -45 -168l-231 -415q-27 -47 -27 -172v-234q0 -20 -13.5 -31.5t-29.5 -11.5q-41 0 -41 43v197q0 176 41 248l231 415q37 68 37 133q0 70 -52 127.5t-136 57.5q-72 0 -121 -55.5t-49 -135.5 q0 -8 4 -28.5t4 -30.5q0 -18 -12.5 -28.5t-28.5 -10.5q-45 0 -45 96zM141 71.5q0 34.5 23.5 57.5t56.5 23q35 0 58.5 -24t23.5 -56.5t-23.5 -56t-58.5 -23.5q-33 0 -56.5 22.5t-23.5 57z" />
<glyph unicode="@" horiz-adv-x="1613" d="M41 690q0 350 254 597t610 247q285 0 476.5 -166.5t191.5 -447.5q0 -78 -15.5 -161t-50 -169t-103.5 -141.5t-159 -55.5q-76 0 -129 44t-72 118q-117 -178 -282 -178q-141 0 -213 97t-72 243q0 190 106.5 348t270.5 158q152 0 231 -152q2 10 4.5 36t4.5 41t7 33.5t15 28 t25 9.5q39 0 39 -39v-9q-8 -102 -35 -297.5t-29 -220.5q0 -4 -1 -11t-1 -11q0 -63 35 -110.5t96 -47.5q86 0 145.5 80t81 175t21.5 190q0 252 -172 394t-428 142q-319 0 -545.5 -225t-226.5 -545q0 -260 180 -440.5t442 -180.5q256 0 478 181q12 10 38.5 36.5t47 43 t32.5 16.5q16 0 28.5 -11.5t12.5 -27.5q0 -14 -12 -31q-113 -129 -286 -207.5t-345 -78.5q-293 0 -494.5 205.5t-201.5 500.5zM565 711q0 -113 49.5 -184.5t147.5 -71.5q123 0 208 134t85 279q0 102 -52.5 188.5t-148.5 86.5q-123 0 -206 -137.5t-83 -294.5z" />
<glyph unicode="A" horiz-adv-x="847" d="M41 442q0 41 41 41h102v805q0 113 73 176.5t171 63.5t169 -63.5t71 -176.5v-805h100q39 0 39 -37q0 -16 -10.5 -29.5t-28.5 -13.5h-100v-362q0 -18 -12.5 -30.5t-28.5 -12.5q-39 0 -39 43v362h-324v-362q0 -18 -12 -29.5t-29 -11.5q-39 0 -39 41v362h-102q-41 0 -41 39z M264 483h324v805q0 76 -47 118t-113 42t-115 -42t-49 -118v-805z" />
<glyph unicode="B" horiz-adv-x="471" d="M41 31v1466q0 14 12.5 26.5t28.5 12.5q100 0 201.5 -115.5t101.5 -263.5q0 -217 -201 -332q119 -59 182.5 -168.5t63.5 -234.5q0 -172 -111 -295q-41 -47 -113.5 -92t-123.5 -45q-16 0 -28.5 12t-12.5 29zM121 86q113 47 172 138t59 198q0 111 -60.5 205t-170.5 139v-680 zM121 885q90 39 136 113.5t46 160.5q0 88 -48 166t-134 117v-557z" />
<glyph unicode="C" horiz-adv-x="813" d="M41 766q0 307 122 534.5t298 227.5q182 0 305 -230q6 -12 6 -22q0 -16 -12 -28.5t-29 -12.5q-25 0 -37 25q-98 188 -233 188q-141 0 -241.5 -209t-100.5 -473q0 -170 45 -327.5t125 -257t172 -99.5q135 0 233 190q10 23 37 23q16 0 28.5 -11.5t12.5 -27.5q0 -11 -6 -23 q-59 -113 -140 -172t-165 -59q-176 0 -298 229.5t-122 534.5z" />
<glyph unicode="D" horiz-adv-x="571" d="M41 45v1442q0 49 35 49q16 0 41 -14q201 -133 307 -334t106 -422t-105 -422t-308 -334q-20 -14 -41 -14q-35 0 -35 49zM121 111q160 119 245 291.5t85 363.5q0 188 -85 361t-245 294v-1310z" />
<glyph unicode="E" horiz-adv-x="952" d="M41 498q0 154 88 290t238 187q-141 88 -142 256q0 121 90.5 210t210.5 89q94 0 158 -41t64 -78q0 -35 -31 -35q-16 0 -31 15q-63 63 -153.5 63t-160 -70.5t-69.5 -160.5q0 -78 64.5 -147.5t160.5 -69.5q59 0 60 -39q0 -14 -15.5 -27.5t-40.5 -13.5q-180 0 -296.5 -131 t-116.5 -295q0 -166 125 -292t299 -126t301 123q12 12 28.5 12t27.5 -11t11 -26q0 -16 -12 -30q-147 -147 -358 -148q-203 0 -351.5 149.5t-148.5 346.5z" />
<glyph unicode="F" horiz-adv-x="845" d="M41 442q0 41 43 41h92v805q0 113 73 176.5t171 63.5t168.5 -63.5t70.5 -176.5q0 -41 -41 -41q-39 0 -38 41q0 76 -47.5 118t-112.5 42q-68 0 -116 -42t-48 -118v-805h506q43 0 43 -41q0 -14 -11.5 -26.5t-31.5 -12.5h-506v-362q0 -43 -41 -43q-14 0 -26.5 11t-12.5 32 v362h-92q-20 0 -31.5 12.5t-11.5 26.5z" />
<glyph unicode="G" horiz-adv-x="800" d="M41 764q0 201 47 376t133 281.5t191 106.5q164 0 274 -234q4 -12 4 -18q0 -18 -12 -29.5t-29 -11.5q-25 0 -37 27q-86 186 -200 186q-121 0 -208 -211t-87 -471q0 -262 87 -472t210 -210q66 0 134 82t68 201v413h-147q-20 0 -31.5 12.5t-11.5 26.5q0 41 43 41h188 q14 0 26.5 -13t12.5 -28v-678q0 -49 37 -63q27 -12 27 -39q0 -16 -10.5 -28.5t-28.5 -12.5q-49 0 -73.5 40t-29.5 83q-94 -121 -200 -121q-115 0 -203 114.5t-131 286.5t-43 363z" />
<glyph unicode="H" horiz-adv-x="854" d="M41 442q0 41 43 41h102v1008q0 20 12.5 31.5t26.5 11.5q41 0 41 -43v-1008h322v1008q0 20 12 31.5t27 11.5q41 0 41 -43v-1008h104q41 0 41 -41q0 -14 -11.5 -26.5t-29.5 -12.5h-104v-362q0 -41 -41 -41q-39 0 -39 41v362h-322v-362q0 -41 -41 -41q-39 0 -39 41v362h-102 q-20 0 -31.5 12.5t-11.5 26.5z" />
<glyph unicode="I" horiz-adv-x="210" d="M66 41v1450q0 20 12 31.5t26 11.5q41 0 41 -43v-1450q0 -41 -41 -41q-39 0 -38 41z" />
<glyph unicode="J" horiz-adv-x="176" d="M-346 -86q0 20 12 31.5t27 11.5q41 0 41 -43q0 -68 47 -115t112.5 -47t113.5 47t48 115v1577q0 20 12.5 31.5t26.5 11.5q41 0 41 -43v-1577q0 -98 -70.5 -170t-170.5 -72q-98 0 -169 71t-71 171z" />
<glyph unicode="K" horiz-adv-x="747" d="M41 797q0 18 16 32l136 121v541q0 20 12 31.5t26 11.5q41 0 41 -43v-475q129 80 223.5 207t131.5 278q8 33 39 33q16 0 28.5 -10.5t12.5 -28.5q0 -10 -2 -14q-63 -246 -252 -424q82 -14 140 -83t58 -153v-780q0 -43 -41 -43q-14 0 -26.5 11t-12.5 32v780q0 66 -47 113 t-114 47q-14 0 -26.5 -2t-25 -7t-20.5 -8t-20.5 -12.5t-15.5 -12.5t-15 -13l-15 -13v-872q0 -41 -41 -41q-39 0 -38 41v801l-82 -72q-16 -12 -31 -12q-14 0 -26.5 12t-12.5 27z" />
<glyph unicode="L" horiz-adv-x="565" d="M41 242v1249q0 20 12.5 31.5t26.5 11.5q41 0 41 -43v-1249q0 -68 47 -115t113 -47h202q41 0 41 -41q0 -14 -11.5 -26.5t-29.5 -12.5h-202q-98 0 -169 70.5t-71 171.5z" />
<glyph unicode="M" horiz-adv-x="942" d="M41 1268q0 16 14 30l103 105v86q0 20 12 31.5t27 11.5q41 0 41 -49q59 47 129 47q92 0 157 -84l15 14q70 70 151 70q86 0 148.5 -68.5t62.5 -173.5v-1247q0 -43 -41 -43q-14 0 -26.5 11t-12.5 32v1247q0 61 -36.5 112.5t-94.5 51.5q-10 0 -20.5 -2t-17.5 -5t-17 -10.5 t-15.5 -9.5t-16.5 -13l-13 -13l-15 -15l-12 -14q14 -35 15 -82v-1247q0 -43 -41 -43q-14 0 -26.5 11t-12.5 32v1247q0 61 -38 112.5t-95 51.5q-14 0 -27.5 -4t-22 -8t-22.5 -15.5t-18.5 -14.5t-20.5 -21l-16 -17v-1331q0 -43 -41 -43q-14 0 -26.5 11t-12.5 32v1249l-47 -47 q-14 -14 -31 -14q-14 0 -26.5 12t-12.5 27z" />
<glyph unicode="N" horiz-adv-x="692" d="M41 1270q0 12 19.5 34.5t63.5 61.5t52 47v76q0 43 39 43q14 0 26.5 -11.5t12.5 -31.5v-12q88 55 156 55q100 0 170.5 -71.5t70.5 -172.5v-1247q0 -14 -1 -20.5t-11 -13.5t-29 -7q-27 0 -33 10t-6 31v1247q0 68 -49 116t-112 48q-61 0 -156 -76v-1335q0 -20 -12.5 -31.5 t-26.5 -11.5q-39 0 -39 43v1262q-6 -6 -20.5 -21.5t-21.5 -22t-18.5 -15.5t-19.5 -13t-14 -4q-16 0 -28.5 13t-12.5 30z" />
<glyph unicode="O" horiz-adv-x="811" d="M41 766q0 139 18.5 266t57.5 244t112.5 186.5t173.5 69.5q96 0 169 -69.5t115 -184.5t62.5 -245t20.5 -267q0 -76 -7 -162t-31.5 -198.5t-61.5 -198.5t-106.5 -146.5t-158 -60.5t-158 60.5t-106.5 146.5t-61.5 198.5t-31.5 198.5t-7 162zM121 765.5q0 -319.5 85 -500.5 t199.5 -181t198.5 180t84 502q0 319 -85 497.5t-199.5 178.5t-198.5 -178.5t-84 -498z" />
<glyph unicode="P" horiz-adv-x="466" d="M41 41v1456q0 16 12.5 27.5t28.5 11.5q106 0 225 -119t119 -313q0 -141 -79 -259t-228 -167v-637q0 -41 -39 -41t-39 41zM119 762q111 45 170 139t59 202.5t-59.5 201t-169.5 137.5v-680z" />
<glyph unicode="Q" horiz-adv-x="821" d="M41 766q0 104 14.5 218t50 247t113.5 217t187 84q88 0 155.5 -59.5t105.5 -144.5t62.5 -196.5t31.5 -198.5t7 -167q0 -182 -41 -372.5t-129 -297.5q53 -31 70.5 -43t52.5 -41.5t47 -62.5t12 -78q0 -70 -43 -70q-39 0 -39 33q0 6 1 16.5t1 14.5q0 27 -8 48t-29.5 41.5 t-33 30t-48 31t-44.5 25.5q-66 -41 -131 -41q-109 0 -187 84t-113.5 217t-50 247t-14.5 218zM121 766q0 -84 11 -183.5t39 -221t88 -201.5t147 -80q8 0 55 10q-43 39 -43 96q0 59 43 106.5t102 47.5q33 0 66 -16q59 194 59 442q0 84 -11 184.5t-39 221t-88.5 200.5 t-143.5 80q-86 0 -146.5 -79t-88.5 -200.5t-39 -222t-11 -184.5zM498 193q0 -33 32 -56q37 39 70 113q-16 10 -37 10q-27 0 -46 -20.5t-19 -46.5z" />
<glyph unicode="R" horiz-adv-x="542" d="M41 31v1466q0 14 13.5 26.5t29.5 12.5q102 0 225 -130t123 -306q0 -123 -63.5 -230.5t-186.5 -169.5q31 -16 56.5 -38.5t49 -55.5t41 -58.5t37 -72.5t31 -73.5t28.5 -85t24.5 -83t26 -91t24.5 -89.5q2 -6 2 -14q0 -18 -11.5 -29.5t-27.5 -11.5q-33 0 -41 33 q-82 307 -127 407q-72 156 -174 205v-612q0 -41 -41 -41q-39 0 -39 41zM121 762q111 45 171 138t60 202q0 106 -60.5 199.5t-170.5 140.5v-680z" />
<glyph unicode="S" horiz-adv-x="700" d="M41 1214q0 117 88 216.5t240 99.5q180 0 282 -150q8 -10 8 -26.5t-12 -27.5t-29 -11q-20 0 -32 20q-80 117 -219 117q-115 0 -180.5 -74.5t-65.5 -165.5q0 -135 102 -292l344 -541q41 -63 41 -131q0 -98 -78.5 -170t-179.5 -72q-129 0 -200 121q-8 10 -9 23q0 16 12.5 28 t28.5 12q18 0 35 -22q49 -84 137 -84q68 0 120 49t52 115q0 43 -26 88l-344 538q-115 182 -115 340z" />
<glyph unicode="T" horiz-adv-x="557" d="M41 1491q0 41 43 41h389q43 0 43 -41q0 -14 -11.5 -26.5t-31.5 -12.5h-154v-1411q0 -41 -40 -41q-39 0 -39 41v1411h-156q-20 0 -31.5 12.5t-11.5 26.5z" />
<glyph unicode="U" horiz-adv-x="692" d="M41 240v1249q0 14 1 20.5t11 13.5t29 7q27 0 33 -10.5t6 -30.5v-1249q0 -68 48 -115t112 -47q66 0 155 76v1335q0 20 12.5 31.5t26.5 11.5q41 0 41 -43v-1262q8 6 25.5 24.5t25.5 26t21.5 15.5t23.5 8q14 0 26.5 -11t12.5 -28t-16 -33q-18 -16 -58 -55t-61 -57v-76 q0 -43 -41 -43q-14 0 -26.5 11t-12.5 32v12q-80 -55 -153 -55q-100 0 -171 71.5t-71 170.5z" />
<glyph unicode="V" horiz-adv-x="643" d="M41 1495q0 18 12.5 28.5t26.5 10.5q35 0 41 -37l201 -1212l202 1212q6 37 41 37q14 0 25.5 -10.5t11.5 -28.5v-10l-240 -1471q-6 -28 -38 -28h-2q-37 0 -39 28l-240 1471q0 2 -1 5t-1 5z" />
<glyph unicode="W" horiz-adv-x="735" d="M41 184v1303q0 20 12.5 32.5t28.5 12.5t28.5 -12.5t12.5 -32.5v-1303q0 -47 30.5 -74.5t73.5 -27.5q41 0 71 26.5t30 75.5v1303q0 18 12 29.5t27 11.5q16 0 28.5 -11.5t12.5 -29.5v-1303q0 -47 31.5 -74.5t72.5 -27.5t71.5 26.5t30.5 75.5v1303q0 20 12.5 32.5t26.5 12.5 q16 0 28.5 -12.5t12.5 -32.5v-1303q0 -82 -56 -133t-130 -51q-86 0 -141 70q-57 -70 -142 -70q-74 0 -129 51t-55 133z" />
<glyph unicode="X" horiz-adv-x="604" d="M41 39q0 8 2 14l217 713l-217 715q-2 4 -2 14q0 16 11 27.5t28 11.5q31 0 39 -31l182 -600l182 600q8 31 39 31q16 0 28.5 -10.5t12.5 -28.5q0 -10 -2 -14l-217 -715l217 -713q2 -6 2 -14q0 -18 -12 -29.5t-29 -11.5q-31 0 -39 33l-182 600l-182 -600q-8 -33 -39 -33 q-16 0 -27.5 11t-11.5 30z" />
<glyph unicode="Y" horiz-adv-x="696" d="M41 37q0 6 4 18l279 756l-244 666q-4 12 -4 18q0 18 12 28.5t29 10.5q27 0 39 -29l211 -577l211 577q12 29 38 29q14 0 26.5 -10.5t12.5 -28.5q0 -6 -4 -18l-530 -1450q-12 -29 -39 -29q-16 0 -28.5 10t-12.5 29z" />
<glyph unicode="Z" horiz-adv-x="708" d="M41 1493q0 14 11 26.5t32 12.5h547q14 0 25.5 -12.5t11.5 -28.5q0 -8 -2 -12l-504 -1399h309q41 0 41 -41q0 -14 -11.5 -26.5t-29.5 -12.5h-367q-16 0 -27 12.5t-11 28.5q0 10 2 14l505 1397h-489q-43 0 -43 41z" />
<glyph unicode="[" horiz-adv-x="393" d="M41 -289v1841q0 14 12.5 26.5t26.5 12.5h227q20 0 32.5 -12t12.5 -29q0 -14 -12 -26.5t-33 -12.5h-186v-1759h186q20 0 32.5 -12t12.5 -29q0 -14 -12.5 -26.5t-32.5 -12.5h-227q-14 0 -26.5 12.5t-12.5 26.5z" />
<glyph unicode="\" horiz-adv-x="528" d="M41 1556q0 18 12.5 29.5t28.5 11.5q29 0 39 -34l366 -1719q0 -51 -41 -51q-31 0 -36 33l-367 1720q-2 4 -2 10z" />
<glyph unicode="]" horiz-adv-x="393" d="M41 -289q0 41 45 41h186v1759h-186q-45 0 -45 39q0 41 45 41h227q14 0 26.5 -12t12.5 -27v-1841q0 -14 -12 -26.5t-27 -12.5h-227q-45 0 -45 39z" />
<glyph unicode="^" horiz-adv-x="911" d="M41 797q0 16 8 30l354 695q16 29 51 28.5t52 -28.5l356 -695q8 -14 8 -30q0 -25 -17 -40.5t-42 -15.5q-33 0 -51 35l-305 594l-303 -594q-16 -35 -54 -35q-23 0 -40 15.5t-17 40.5z" />
<glyph unicode="_" horiz-adv-x="1216" d="M-37 -53q0 41 43 41h1204q41 0 41 -41q0 -14 -11.5 -26.5t-29.5 -12.5h-1204q-20 0 -31.5 12t-11.5 27z" />
<glyph unicode="`" horiz-adv-x="413" d="M43 1473q0 14 12.5 26t26.5 12q12 0 29 -8l239 -149q23 -14 23 -39q0 -18 -12.5 -28.5t-22.5 -10.5q-20 0 -31 8l-241 152q-23 14 -23 37z" />
<glyph unicode="a" horiz-adv-x="710" d="M41 362q0 41 41 41h74v635q0 94 60 147.5t142 53.5q84 0 142.5 -52t58.5 -149v-635h72q39 0 39 -38q0 -41 -39 -41h-72v-283q0 -18 -12 -30.5t-29 -12.5q-39 0 -39 43v283h-243v-283q0 -18 -12.5 -29.5t-28.5 -11.5q-39 0 -39 41v283h-74q-41 0 -41 38zM236 403h243v635 q0 57 -35.5 89t-85 32t-86 -31.5t-36.5 -89.5v-635z" />
<glyph unicode="b" horiz-adv-x="409" d="M41 33v1173q0 14 12.5 26.5t28.5 12.5q84 0 167 -94t83 -217q0 -168 -152 -264q90 -51 139.5 -138.5t49.5 -185.5q0 -139 -90 -242q-37 -41 -93.5 -76.5t-103.5 -35.5q-16 0 -28.5 12t-12.5 29zM121 90q82 37 125 106.5t43 149.5q0 184 -168 260v-516zM121 729 q129 66 129 207q0 148 -129 211v-418z" />
<glyph unicode="c" horiz-adv-x="684" d="M41 612.5q0 247.5 100.5 433t243.5 185.5q152 0 256 -191q2 -4 2 -20t-12.5 -28.5t-28.5 -12.5q-23 0 -37 25q-78 147 -180 147q-111 0 -187.5 -165t-76.5 -374q0 -207 77.5 -372.5t186.5 -165.5q102 0 180 147q10 23 37 23q16 0 28.5 -11.5t12.5 -27.5q0 -11 -4 -23 q-102 -188 -254 -188q-143 0 -243.5 185.5t-100.5 433z" />
<glyph unicode="d" horiz-adv-x="489" d="M41 37v1153q0 47 35 47q12 0 37 -14q160 -109 248 -273t88 -338q0 -178 -86 -339.5t-250 -270.5q-23 -14 -37 -14q-35 0 -35 49zM121 102q121 92 184.5 227.5t63.5 282.5q0 145 -63.5 279.5t-184.5 228.5v-1018z" />
<glyph unicode="e" horiz-adv-x="794" d="M41 397q0 123 66.5 231.5t183.5 153.5q-102 70 -103 203q0 98 75 173t175 75q78 0 131.5 -35t53.5 -69.5t-33 -34.5q-18 0 -31 12q-47 49 -117 49q-68 0 -122 -53t-54 -123q0 -59 49.5 -112.5t122.5 -53.5q27 0 42.5 -12.5t15.5 -26.5q0 -16 -14.5 -28.5t-39.5 -12.5 q-141 0 -232 -102.5t-91 -231.5t97 -227t235 -98q135 0 235 96q12 12 29 12q14 0 26.5 -11t12.5 -28q-1 -18 -13 -30q-119 -119 -292 -119q-166 0 -287 122t-121 281z" />
<glyph unicode="f" horiz-adv-x="708" d="M41 354q0 41 41 41h65v635q0 94 60.5 147.5t144.5 53.5q82 0 140.5 -52.5t58.5 -148.5q0 -41 -41 -41q-39 0 -39 41q0 57 -36 89t-83 32q-49 0 -86 -32t-37 -89v-635h396q43 0 43 -41q0 -14 -11.5 -26.5t-31.5 -12.5h-396v-282q0 -43 -41 -43t-41 43v282h-65 q-41 0 -41 39z" />
<glyph unicode="g" horiz-adv-x="673" d="M41 610q0 250 88 435.5t217 185.5q63 0 122.5 -48t102.5 -139q0 -4 3.5 -12t3.5 -12q0 -16 -12.5 -28.5t-28.5 -12.5q-23 0 -37 27q-72 145 -154 145q-94 0 -160.5 -167t-66.5 -371.5t66.5 -370.5t162.5 -166q49 0 101.5 62.5t52.5 154.5v323h-109q-43 0 -43 39 q0 41 43 41h150q14 0 26.5 -13t12.5 -28v-542q-1 -33 24 -43q27 -12 27 -39q0 -41 -39 -41q-68 0 -88 88q-76 -86 -154 -86q-141 0 -226 188.5t-85 429.5z" />
<glyph unicode="h" horiz-adv-x="714" d="M41 354q0 41 41 41h74v797q0 43 41 43t41 -43v-797h239v797q0 43 39 43q41 0 41 -43v-797h76q41 0 41 -41q0 -39 -41 -39h-76v-282q0 -41 -41 -41q-39 0 -39 41v282h-239v-282q0 -41 -41 -41t-41 41v282h-74q-41 0 -41 39z" />
<glyph unicode="i" horiz-adv-x="210" d="M66 33v1159q0 43 38 43q41 0 41 -43v-1159q0 -41 -41 -41q-39 0 -38 41z" />
<glyph unicode="j" horiz-adv-x="167" d="M-274 -70q0 43 40.5 43t40.5 -43q0 -51 35 -85.5t84 -34.5t85 34.5t36 85.5v1262q0 43 39 43q41 0 41 -43v-1262q0 -82 -59.5 -141t-141.5 -59q-80 0 -140 59t-60 141z" />
<glyph unicode="k" horiz-adv-x="630" d="M41 637q0 20 14 33l107 94v428q0 43 39 43q41 0 41 -43v-365q94 61 165.5 162t102.5 213q10 33 39 33q41 0 41 -39q0 -14 -4 -22q-51 -184 -189 -322q59 -18 103.5 -75.5t44.5 -119.5v-624q0 -43 -41 -43q-14 0 -26.5 11t-12.5 32v624q0 47 -36 83t-85 36t-96 -43l-6 -6 v-694q0 -41 -41 -41q-39 0 -39 41v620l-41 -32q-27 -18 -41 -19q-16 0 -27.5 10.5t-11.5 24.5z" />
<glyph unicode="l" horiz-adv-x="483" d="M41 193v999q0 43 39 43q41 0 41 -43v-999q0 -49 36 -85t83 -36h161q41 0 41 -41q0 -39 -41 -39h-161q-80 0 -139.5 59.5t-59.5 141.5z" />
<glyph unicode="m" horiz-adv-x="786" d="M41 1014q0 16 14 30l80 82v66q0 41 39 41q31 0 41 -33q49 33 96 33q70 0 125 -64l6 7q55 57 127 57t124 -58.5t52 -144.5v-997q0 -43 -40 -43q-14 0 -26.5 11t-12.5 32v997q0 47 -27 85t-70 38q-37 0 -92 -59q10 -27 10 -64v-997q0 -43 -41 -43q-14 0 -26 11t-12 32v997 q0 47 -28 85t-71 38q-39 0 -94 -59v-1061q0 -43 -41 -43q-14 0 -26.5 11t-12.5 32v979l-22 -23q-14 -14 -30.5 -14t-29 12t-12.5 27z" />
<glyph unicode="n" horiz-adv-x="587" d="M41 1015.5q0 16.5 80 92.5l29 27v57q0 41 38 41q37 0 41 -37q59 37 115 37q82 0 142.5 -59.5t60.5 -143.5v-997q0 -14 -1 -20.5t-11.5 -13.5t-28.5 -7q-27 0 -33 10t-6 31v997q0 51 -37 87t-86 36q-51 0 -115 -53v-1067q0 -43 -41 -43q-39 0 -38 43v989q-49 -49 -68 -49 q-16 0 -28.5 13t-12.5 29.5z" />
<glyph unicode="o" horiz-adv-x="681" d="M41 612q0 113 15.5 216.5t48 197.5t93 150.5t142.5 56.5q102 0 174 -99.5t99.5 -234.5t27.5 -287q0 -82 -12.5 -173t-41 -199.5t-92 -178t-153.5 -69.5t-154.5 69.5t-93 178t-41 199.5t-12.5 173zM123 612q0 -252 65.5 -394t153.5 -142t152.5 142t64.5 394 q0 250 -65.5 391.5t-153.5 141.5t-152.5 -140.5t-64.5 -392.5z" />
<glyph unicode="p" horiz-adv-x="405" d="M41 33v1165q0 16 12.5 27.5t28.5 11.5q86 0 184.5 -96.5t98.5 -257.5q0 -113 -63.5 -208t-182.5 -138v-504q0 -41 -39 -41t-39 41zM119 623q80 35 124 106.5t44 153.5q0 80 -43 148.5t-125 107.5v-516z" />
<glyph unicode="q" horiz-adv-x="690" d="M41 612q0 86 12.5 178.5t41 199t93 175t154.5 68.5q88 0 151.5 -68.5t92 -176t41 -200t12.5 -176.5q0 -145 -30.5 -295.5t-100.5 -236.5q47 -29 71.5 -46.5t47 -54t22.5 -81.5q0 -66 -43 -66q-14 0 -26.5 10.5t-12.5 24.5v24q0 29 -16 53.5t-32.5 35t-49.5 28.5l-23 15 q-45 -31 -104 -31q-90 0 -154.5 68.5t-93 175t-41 198.5t-12.5 178zM121 612q0 -66 8 -144.5t29.5 -174.5t69.5 -158.5t114 -62.5q8 0 25 4q-25 35 -25 74q0 49 38 90t87 41q25 0 49 -11q43 147 43 342q0 66 -8 145t-29.5 175t-67.5 158.5t-112 62.5t-114 -62.5 t-69.5 -158.5t-29.5 -174t-8 -146zM424 153.5q0 -18.5 14 -32.5q20 23 47 76q-12 4 -18 4q-16 0 -29.5 -14.5t-13.5 -33z" />
<glyph unicode="r" horiz-adv-x="466" d="M41 25v1173q0 14 12.5 26.5t28.5 12.5q84 0 185.5 -106.5t101.5 -249.5q0 -98 -49.5 -183.5t-141.5 -138.5q59 -39 104.5 -116.5t68 -144t55.5 -185.5q20 -74 20 -82q0 -16 -12.5 -28.5t-28.5 -12.5q-33 0 -41 33q-109 393 -223 477v-475q0 -41 -41 -41q-39 0 -39 41z M121 623q80 35 124 105.5t44 152.5q0 80 -43 149.5t-125 108.5v-516z" />
<glyph unicode="s" horiz-adv-x="591" d="M41 979q0 98 72.5 180t197.5 82q146 0 232 -125q8 -16 8 -24q0 -16 -12.5 -27.5t-28.5 -11.5q-18 0 -33 20q-61 88 -168 88q-88 0 -138 -57t-50 -125q0 -109 80 -231l274 -433q35 -55 35 -108q0 -84 -65.5 -143.5t-149.5 -59.5q-100 0 -166 102q-8 16 -8 21q0 16 12 28.5 t28.5 12.5t33.5 -21q37 -63 104 -63q49 0 89 37t40 86q0 29 -18 65l-277 433q-92 147 -92 274z" />
<glyph unicode="t" horiz-adv-x="477" d="M41 1200q0 41 41 41h311q43 0 43 -41q0 -39 -43 -39h-114v-1120q0 -41 -41 -41q-39 0 -39 41v1120h-117q-41 0 -41 39z" />
<glyph unicode="u" horiz-adv-x="585" d="M41 201v999q0 14 1 20.5t11 13.5t29 7q27 0 33 -10t6 -31v-999q0 -51 34.5 -87t84.5 -36q53 0 116 57v1065q0 41 39 41q41 0 41 -41v-985q47 43 70 43q14 0 26 -12t13 -28q0 -17 -15 -32q-33 -29 -94 -88v-57q0 -43 -41 -43q-35 0 -39 37q-59 -37 -114 -37 q-82 0 -141.5 59.5t-59.5 143.5z" />
<glyph unicode="v" horiz-adv-x="546" d="M41 1196v8q0 39 39 39q35 0 41 -35l153 -921l154 921q6 35 41 35q37 0 37 -39v-10l-191 -1176q-8 -30 -39 -30h-2q-35 0 -41 30l-190 1176z" />
<glyph unicode="w" horiz-adv-x="622" d="M41 156v1042q0 43 41 43t41 -43v-1042q0 -33 22.5 -53.5t53.5 -20.5q29 0 50 19.5t21 54.5v1042q0 18 12.5 29.5t29 11.5t28.5 -11t12 -30v-1042q0 -33 22.5 -53.5t51.5 -20.5q31 0 52.5 19.5t21.5 54.5v1042q0 43 41 43t41 -43v-1042q0 -70 -47.5 -113t-110.5 -43 q-61 0 -113 51q-49 -51 -114 -51q-61 0 -108.5 44t-47.5 112z" />
<glyph unicode="x" horiz-adv-x="516" d="M41 39q0 10 2 14l172 568l-172 567q-2 4 -2 16q0 16 11 27.5t28 11.5q23 0 39 -31q20 -72 66 -220t71 -230l139 450q12 31 39 31q41 0 41 -39q0 -12 -2 -14l-174 -569l174 -568q2 -6 2 -14q0 -16 -12 -28.5t-29 -12.5q-29 0 -39 33l-139 450q-23 -76 -69 -225.5 t-68 -224.5q-14 -33 -39 -33q-16 0 -27.5 12.5t-11.5 28.5z" />
<glyph unicode="y" horiz-adv-x="589" d="M41 37q0 12 2 18l223 602l-194 529q-4 8 -4 18q0 39 41 39q27 0 38 -29l162 -438l160 438q12 29 39 29q41 0 41 -39q0 -12 -4 -16l-424 -1161q-12 -29 -39 -29q-16 0 -28.5 11t-12.5 28z" />
<glyph unicode="z" horiz-adv-x="600" d="M41 1202q0 14 11 26.5t32 12.5h438q14 0 25.5 -12t11.5 -29q0 -6 -2 -10l-399 -1110h235q41 0 41 -41q0 -39 -41 -39h-293q-16 0 -27.5 12.5t-11.5 28.5q0 12 2 14l400 1106h-379q-43 0 -43 41z" />
<glyph unicode="{" horiz-adv-x="491" d="M41 567.5q0 26.5 18.5 41t39 17.5t39 18t18.5 42v567q0 72 51 123t123 51q66 0 93.5 -10t27.5 -47q0 -35 -29 -46t-62.5 -9t-62.5 -11.5t-29 -50.5v-567q0 -68 -43 -117q43 -49 43 -116v-568q0 -37 29 -51t62.5 -12t62.5 -10.5t29 -44.5q0 -23 -16.5 -39.5t-45.5 -16.5 q-233 0 -233 174v568q0 27 -18.5 41t-39 17t-39 16.5t-18.5 40z" />
<glyph unicode="|" horiz-adv-x="194" d="M41 -332v1850q0 29 16.5 45t39 16t40 -16.5t17.5 -44.5v-1850q0 -29 -17.5 -45t-40 -16t-39 16.5t-16.5 44.5z" />
<glyph unicode="}" horiz-adv-x="491" d="M41 -233q0 35 28.5 47t62.5 9t62.5 11t28.5 51v568q0 68 43 116q-43 49 -43 117v567q0 37 -28.5 51.5t-62.5 12.5t-62.5 9t-28.5 44q0 23 16.5 40t44.5 17q233 0 234 -174v-567q0 -27 18.5 -42t39 -18t39 -17.5t18.5 -41.5q0 -23 -15.5 -39t-42.5 -16q-25 0 -41 -17.5 t-16 -41.5v-568q0 -72 -51.5 -123t-122.5 -51q-68 0 -94.5 9.5t-26.5 46.5z" />
<glyph unicode="~" horiz-adv-x="1071" d="M41 735q123 154 313 154q84 0 189.5 -68.5t167.5 -68.5q115 0 198 102l121 -94q-131 -162 -319 -162q-84 0 -189.5 70.5t-167.5 70.5q-115 0 -198 -102z" />
<glyph unicode="&#xa1;" horiz-adv-x="243" d="M41 1071q0 33 23.5 56.5t58.5 23.5q33 0 56.5 -23.5t23.5 -56.5q-2 -35 -24.5 -57.5t-55.5 -22.5q-35 0 -58.5 23.5t-23.5 56.5zM82 -375v1217q0 20 12 32.5t27 12.5q16 0 28.5 -12.5t12.5 -32.5v-1217q0 -45 -41 -45q-39 0 -39 45z" />
<glyph unicode="&#xa2;" horiz-adv-x="665" d="M41 799q0 217 74.5 383t214.5 211v94q0 20 12 32.5t27 12.5q16 0 28.5 -12.5t12.5 -32.5v-92q125 -25 208 -183q6 -12 7 -22q0 -16 -12.5 -27.5t-28.5 -11.5q-25 0 -37 25q-76 141 -172 141q-106 0 -180 -160t-74 -358.5t74.5 -358t179.5 -159.5q96 0 172 141 q12 25 37 24q16 0 28.5 -12t12.5 -28q-1 -9 -7 -21q-84 -158 -208 -182v-166q0 -43 -41 -43q-14 0 -26.5 11t-12.5 32v168q-139 45 -214 211t-75 383z" />
<glyph unicode="&#xa3;" horiz-adv-x="714" d="M41 520q0 41 41 41h57q-4 16 -19.5 62.5t-22.5 72t-17 64.5t-14.5 72.5t-4.5 66.5q0 137 79 214t186 77q88 0 162.5 -50t105.5 -141q2 -6 2 -14q0 -18 -12.5 -29.5t-26.5 -11.5q-29 0 -39 31q-20 61 -73.5 98t-114.5 37q-98 0 -142.5 -59.5t-44.5 -145.5q0 -41 10.5 -96 t18.5 -83t29 -95l22 -70h221q41 0 41 -41q0 -14 -11 -26.5t-30 -12.5h-198q4 -16 28.5 -82.5t37 -113.5t12.5 -90q0 -66 -35 -115l203 -2q49 0 71.5 38t34.5 75.5t35 37.5q41 0 41 -43q0 -76 -54.5 -131t-130.5 -55h-321q-16 0 -26.5 13.5t-10.5 29.5q0 29 25 35 q39 10 63.5 44t24.5 75q0 8 -4 32l-76 252h-82q-41 0 -41 39z" />
<glyph unicode="&#xa4;" horiz-adv-x="792" d="M41 463q0 14 11 26.5t32 12.5h90v33h-88q-45 0 -45 40q0 14 11 26.5t32 12.5h88q0 80 17.5 172.5t52 186.5t103.5 156.5t157 62.5t168 -80v74q0 18 12 29.5t28.5 11.5t29 -11.5t12.5 -29.5v-197q0 -18 -12.5 -30.5t-28.5 -12.5q-25 0 -35 25q-78 139 -174 139 q-102 0 -173 -149.5t-81 -346.5h448q45 0 45 -41q0 -39 -43 -38h-446v-33h383q45 0 45 -41q0 -39 -43 -39h-375q12 -72 38 -142.5t80 -137t122 -66.5q49 0 91 42t70.5 83t47.5 41q16 0 28.5 -12.5t12.5 -28.5v-193q0 -43 -41 -43q-14 0 -26.5 11.5t-12.5 31.5v68 q-76 -80 -168 -80q-70 0 -129.5 43t-96 111.5t-60 136t-34.5 135.5h-98q-45 0 -45 41z" />
<glyph unicode="&#xa5;" horiz-adv-x="645" d="M41 1174q0 39 39 38q25 0 37 -26l205 -459l204 459q12 27 39 26q39 0 39 -38q0 -7 -4 -19l-238 -537h183q41 0 41 -40q0 -14 -11.5 -26.5t-29.5 -12.5h-183v-33h183q41 0 41 -41q0 -14 -11.5 -26.5t-29.5 -12.5h-183v-387q0 -45 -40 -45q-39 0 -39 45v387h-183 q-20 0 -31.5 12.5t-11.5 26.5q0 41 43 41h183v33h-183q-20 0 -31.5 12t-11.5 27q0 41 43 40h183l-238 537q-4 6 -4 19z" />
<glyph unicode="&#xa6;" horiz-adv-x="194" d="M41 -342v825q0 29 16.5 45.5t39 16.5t40 -16.5t17.5 -45.5v-825q0 -29 -17.5 -45t-40 -16t-39 16t-16.5 45zM41 692v826q0 29 16.5 45t39 16t40 -16.5t17.5 -44.5v-826q0 -29 -17.5 -45t-40 -16t-39 16.5t-16.5 44.5z" />
<glyph unicode="&#xa7;" horiz-adv-x="4444" d="M55 0v1536h262v-1536h-262zM561 565q25 -98 71 -185t110.5 -160t146.5 -129t174 -91h575q92 35 174 91t146.5 129t111 160t70.5 185h-250q-31 -82 -84 -151.5t-123.5 -119.5t-155.5 -78t-177.5 -28t-176 28t-154.5 78t-124 119.5t-84 151.5h-250zM561 604v314h195v-62 h-115v-68h102v-65h-104v-119h-78zM561 958h252q31 82 83 152t123 120t154.5 77.5t176 27.5t177.5 -27.5t155.5 -77.5t123 -120t82.5 -152h252q-25 102 -75 193.5t-120.5 166.5t-157.5 130t-185 88h-502q-98 -33 -185.5 -88t-158 -130t-120.5 -166t-75 -194zM1174 745.5 q0 -57.5 25.5 -90t55.5 -49.5q37 -20 84 -24q49 4 88 24q35 16 63 51t28 100.5t-26 100.5t-56 51q-37 21 -80 25q-29 0 -60.5 -8t-58.5 -28.5t-45 -57.5t-18 -94.5zM1253 752q0 31 9.5 51t23.5 32.5t31.5 16.5t32.5 4q23 -2 43 -12q16 -10 30.5 -30.5t14.5 -55.5 q0 -37 -15.5 -56.5t-33.5 -29.5q-23 -11 -48 -13q-25 4 -45 15q-16 10 -29.5 27.5t-13.5 50.5zM2060 604v314h90l146 -209v209h78v-314h-72l-166 213v-213h-76zM2306 565q49 -197 183 -345t321 -220h575q186 72 319.5 220.5t182.5 344.5h-252q-31 -82 -83 -151.5 t-122.5 -119.5t-155.5 -78t-177.5 -28t-177.5 28t-155.5 78t-122.5 119.5t-83 151.5h-252zM2306 958h252q31 82 83 152t122.5 120t155.5 77.5t177.5 27.5t177.5 -27.5t155.5 -77.5t122.5 -120t83 -152h252q-25 102 -75 193.5t-120.5 166.5t-157.5 130t-188 88h-499 q-100 -33 -187.5 -88t-158 -130t-120.5 -166t-75 -194zM2984 842v76h235v-78h-65v-236h-105v238h-65zM3656 827q0 27 12 45.5t31.5 29.5t44 15.5t47.5 4.5q49 0 80 -13l-6 -63q-29 14 -68 14q-16 0 -35.5 -4t-19.5 -25q0 -18 22.5 -25t50 -16.5t50 -27t22.5 -60.5 q0 -59 -41 -79.5t-94 -20.5q-23 0 -47.5 2t-46.5 10l8 68q16 -8 37.5 -14t48.5 -6q20 0 35.5 6t15.5 24q0 20 -23.5 28.5t-51 18t-50 27.5t-22.5 61zM4137 0v1536h250v-1536h-250z" />
<glyph unicode="&#xa8;" horiz-adv-x="327" d="M41 1327q0 20 16.5 36.5t39 16.5t38 -15t15.5 -37.5t-15.5 -38t-38 -15.5t-39 15.5t-16.5 37.5zM180 1327.5q0 22.5 15.5 37.5t37.5 15q20 0 37 -16.5t17 -36.5q0 -23 -15.5 -38t-38 -15t-38 15.5t-15.5 38z" />
<glyph unicode="&#xa9;" horiz-adv-x="1568" d="M41 696.5q0 307.5 218 525.5t525.5 218t525.5 -218t218 -525.5t-218 -524.5t-525.5 -217t-525.5 217t-218 524.5zM156 696q0 -260 184 -444t444 -184t444.5 184t184.5 444t-184.5 444.5t-444.5 184.5t-444 -184.5t-184 -444.5zM315 696.5q0 188.5 149.5 324.5t348.5 136 q233 0 385 -170q16 -10 16 -82q0 -16 -1 -49t-1 -43q0 -29 -17 -45t-40 -16q-55 0 -55 61v115q-115 117 -287 116q-154 0 -268.5 -103t-114.5 -245q0 -143 114.5 -244.5t268.5 -101.5q184 0 301 131q20 23 45 23q23 0 40.5 -16.5t17.5 -38.5q0 -23 -19 -43 q-147 -170 -387 -170q-199 0 -347.5 136t-148.5 324.5z" />
<glyph unicode="&#xaa;" horiz-adv-x="499" d="M41 956q0 39 39 39h35v387q0 63 42 100.5t99 37.5q55 0 96 -36t41 -102v-385h31q35 0 35 -34q0 -41 -35 -41h-31v-164q0 -18 -12 -29.5t-29 -11.5q-35 0 -35 41v164h-124v-164q0 -47 -37 -47q-16 0 -28.5 12t-12.5 35v162h-35q-39 0 -39 36zM193 997h124v385 q0 29 -18 45.5t-43 16.5q-27 0 -45 -16.5t-18 -45.5v-385z" />
<glyph unicode="&#xab;" horiz-adv-x="501" d="M41 752q0 20 14 32l152 125q16 12 26.5 12.5t26.5 -16t16 -31.5q0 -10 -18 -28l-115 -92l115 -95q18 -23 18 -30q0 -15 -12 -27q-18 -20 -31 -20q-8 0 -26 14l-152 125q-14 12 -14 31zM225 752q0 20 15 32l151 125q16 12 26.5 12.5t27 -16t16.5 -31.5q0 -10 -19 -28 l-114 -92l114 -95q18 -23 19 -30q0 -15 -12 -27q-18 -20 -31 -20q-8 0 -27 14l-151 125q-14 12 -15 31z" />
<glyph unicode="&#xac;" horiz-adv-x="757" d="M61.5 725q-0.5 23 20.5 23h592q23 0 22 -23v-184q0 -23 -22.5 -23t-22.5 23v161h-569q-20 0 -20.5 23z" />
<glyph unicode="&#xad;" horiz-adv-x="346" d="M41 766q0 41 43 41h180q41 0 41 -41q0 -14 -11.5 -26.5t-29.5 -12.5h-180q-20 0 -31.5 12.5t-11.5 26.5z" />
<glyph unicode="&#xae;" horiz-adv-x="659" d="M41 1270q0 119 84 204t205 85q119 0 203.5 -84t84.5 -203q0 -121 -83.5 -205t-204.5 -84q-119 0 -204 84t-85 203zM84 1269.5q0 -102.5 72.5 -175t175.5 -72.5q55 0 112 27q-16 4 -57 79.5t-90 92.5v-146q0 -12 -9 -21.5t-22 -9.5q-27 0 -26 31v391q0 6 10 12.5t20 6.5 q76 0 127.5 -45t51.5 -86q0 -72 -105 -107q27 -12 49.5 -34.5t33.5 -40t28.5 -51.5t25.5 -48q99 74 99 197q0 102 -73 174t-175.5 72t-175 -72t-72.5 -174.5zM297 1276q94 25 94 82q0 53 -94 82v-164z" />
<glyph unicode="&#xaf;" horiz-adv-x="350" d="M41 1597q0 16 11 29.5t32 13.5h182q20 0 31.5 -13t11.5 -30q0 -43 -43 -43h-182q-43 0 -43 43z" />
<glyph unicode="&#xb0;" horiz-adv-x="393" d="M41 1402.5q0 63.5 45 110t110.5 46.5t110.5 -46.5t45 -110t-45 -109.5t-110.5 -46t-110.5 46t-45 109.5zM127 1403q0 -29 20.5 -49.5t49 -20.5t49 20.5t20.5 49.5t-20.5 49.5t-49 20.5t-49 -20.5t-20.5 -49.5z" />
<glyph unicode="&#xb1;" horiz-adv-x="757" d="M61 38.5q0 22.5 21 22.5h592q23 0 22.5 -22.5t-20.5 -22.5h-592q-23 0 -23 22.5zM61 725q0 23 21 23h274v272q0 23 22.5 22.5t22.5 -20.5v-274h273q23 0 22.5 -23t-20.5 -23h-275v-272q0 -23 -22.5 -22.5t-22.5 20.5v274h-272q-23 0 -23 23z" />
<glyph unicode="&#xb2;" horiz-adv-x="380" d="M41 1346q0 78 40 148.5t105 70.5q76 0 115 -58.5t39 -134.5q-1 -55 -21 -110l-139 -355h103q29 0 28 -26q0 -25 -28 -25h-142q-27 0 -26 23q0 8 2 12l153 389q18 47 19 94q0 51 -25.5 94t-75.5 43q-35 0 -56 -30.5t-26.5 -66.5t-14.5 -66.5t-23 -30.5q-27 0 -27 29z" />
<glyph unicode="&#xb3;" horiz-adv-x="399" d="M41 979q0 27 27 27q14 0 29.5 -27t39 -53.5t56.5 -26.5q53 0 82.5 51t29.5 123t-31.5 124t-93.5 52q-25 0 -24 27q0 8 2 12l108 213h-168q-29 0 -28 27q0 29 28 28h211q12 0 20.5 -9t8.5 -19q0 -4 -4 -12l-111 -218q66 -16 100.5 -79.5t34.5 -145.5q0 -92 -44 -159.5 t-121 -67.5q-51 0 -101.5 42t-50.5 91z" />
<glyph unicode="&#xb4;" horiz-adv-x="413" d="M43 1315q0 25 23 39l239 149q17 8 29 8q14 0 26.5 -12t12.5 -26q0 -23 -23 -37l-241 -152q-10 -8 -31 -8q-10 0 -22.5 10t-12.5 29z" />
<glyph unicode="&#xb6;" horiz-adv-x="956" d="M41 1139q0 166 116.5 282.5t282.5 116.5h432q20 0 31.5 -13.5t11.5 -29.5q0 -43 -43 -43h-100v-1720q0 -20 -13.5 -31.5t-29.5 -11.5q-43 0 -43 43v1720h-65v-1716q0 -20 -13.5 -31.5t-29.5 -11.5q-43 0 -43 43v1716h-95q-129 0 -221 -92t-92 -221q0 -131 92 -222.5 t221 -91.5q20 0 31.5 -13t11.5 -30q0 -43 -43 -43q-166 0 -282.5 117t-116.5 283z" />
<glyph unicode="&#xb7;" horiz-adv-x="188" d="M41 725q0 20 16.5 36.5t37 16.5t36.5 -16.5t16 -36.5t-16 -36.5t-36.5 -16.5t-37 16.5t-16.5 36.5z" />
<glyph unicode="&#xb8;" horiz-adv-x="411" d="M41 -209q0 14 12.5 25.5t28.5 11.5q8 0 42 -20.5t79 -20.5q29 0 57.5 9t28.5 20q0 31 -125 30q-16 0 -28.5 11.5t-12.5 27.5q0 8 6 19l80 151q6 14 24 15q16 0 33 -11.5t17 -25.5q0 -4 -4 -13l-48 -92q140 -26 140 -110q0 -49 -48.5 -81t-121.5 -32q-61 0 -110.5 26.5 t-49.5 59.5z" />
<glyph unicode="&#xb9;" horiz-adv-x="135" d="M41 883v643q0 27 26.5 26.5t26.5 -26.5v-643q0 -29 -26.5 -29t-26.5 29z" />
<glyph unicode="&#xba;" horiz-adv-x="471" d="M41 1120.5q0 55.5 6 111.5t24.5 128t59.5 116t100.5 44t102.5 -44t62.5 -114t26.5 -129t7 -112.5t-8 -113t-26.5 -130t-60.5 -115.5t-101.5 -45t-101.5 45t-59.5 116.5t-24.5 129t-7 113zM111 1120q0 -43 3 -87t14 -103.5t38 -97t67 -37.5q39 0 67 37.5t39 97t15 104.5 t4 86t-4 86t-15 104.5t-39 97.5t-67 38q-123 0 -122 -326z" />
<glyph unicode="&#xbb;" horiz-adv-x="503" d="M41 629q0 10 20 30l115 95l-115 92q-20 16 -20 28q0 14 16.5 31t26.5 17q12 0 29 -13l151 -125q14 -14 15 -32q-1 -17 -15 -31l-151 -125q-18 -14 -28.5 -14t-27 16t-16.5 31zM225 629q0 10 21 30l114 95l-114 92q-20 16 -21 28q0 14 16.5 31t26.5 17q12 0 29 -13 l152 -125q14 -14 14 -32q0 -17 -14 -31l-152 -125q-18 -14 -28.5 -14t-27 16t-16.5 31z" />
<glyph unicode="&#xbc;" horiz-adv-x="755" d="M41 25q0 6 2 10l600 1501q6 20 27 20q33 0 32 -30q0 -2 -1 -6.5t-1 -6.5l-600 -1501q-6 -18 -26 -18q-33 0 -33 31zM61 868v641q0 29 27 29t27 -29v-641q0 -29 -27 -28.5t-27 28.5zM344 41l145 541q6 23 27 22q27 0 27 -26l-2 -5v-4l-138 -508h170v379q0 29 27 29t27 -29 v-379h59q29 0 29 -26.5t-29 -26.5h-59v-211q0 -29 -27 -28.5t-27 28.5v211h-202q-27 0 -27 33z" />
<glyph unicode="&#xbd;" horiz-adv-x="743" d="M41 25q0 6 2 10l600 1501q6 20 27 20q33 0 32 -30q0 -2 -1 -6.5t-1 -6.5l-600 -1501q-6 -18 -26 -18q-33 0 -33 31zM205 866v643q0 27 26.5 27t26.5 -27v-643q0 -29 -26.5 -28.5t-26.5 28.5zM385 492q0 80 40 150.5t107 70.5q74 0 113 -59.5t39 -135.5q0 -63 -18 -110 l-142 -353h103q29 0 28 -26q0 -25 -28 -25h-142q-27 0 -26 21q0 8 2 12l153 391q18 47 19 94q0 51 -24.5 94t-76.5 43q-35 0 -56 -30.5t-26.5 -67.5t-14.5 -67.5t-23 -30.5q-27 0 -27 29z" />
<glyph unicode="&#xbe;" horiz-adv-x="743" d="M41 25q0 6 2 10l600 1501q6 20 27 20q33 0 32 -30q0 -2 -1 -6.5t-1 -6.5l-600 -1501q-6 -18 -26 -18q-33 0 -33 31zM49 956q0 27 27 27q10 0 22.5 -26.5t37 -53t65.5 -26.5q53 0 82.5 51t29.5 122.5t-31.5 124t-93.5 52.5q-25 0 -24 26q0 8 2 13l108 215h-168 q-29 0 -28.5 26.5t28.5 26.5h211q12 0 20.5 -9t8.5 -20q0 -4 -4 -12l-113 -217q66 -16 102 -81t36 -144q0 -92 -44 -160t-122 -68q-51 0 -101.5 42t-50.5 91zM297 35l145 543q6 20 27 20q27 0 27 -27q0 -2 -1 -4t-1 -4l-138 -508h170v379q0 29 27 29t27 -29v-379h59 q29 0 29 -26.5t-29 -26.5h-59v-211q0 -29 -27 -29t-27 29v211h-202q-27 0 -27 33z" />
<glyph unicode="&#xbf;" horiz-adv-x="595" d="M41 -150q0 90 45 168l231 416q27 47 27 172v234q0 43 43 43q16 0 29.5 -11.5t13.5 -31.5q0 -16 -1 -99.5t-1 -99.5q0 -170 -41 -246l-231 -415q-37 -66 -37 -134q0 -70 52 -128t134 -58q74 0 122 56.5t48 136.5q0 8 -3 28.5t-3 28.5q0 18 12.5 29.5t28.5 11.5 q33 0 39 -35q6 -31 6 -63q0 -113 -73.5 -193t-176.5 -80q-117 0 -190.5 84t-73.5 186zM293 1071q0 33 23.5 56.5t58.5 23.5t57.5 -22.5t22.5 -57.5t-22.5 -57.5t-57.5 -22.5t-58.5 23.5t-23.5 56.5z" />
<glyph unicode="&#xc0;" horiz-adv-x="847" d="M41 442q0 41 41 41h102v805q0 113 73 176.5t171 63.5t169 -63.5t71 -176.5v-805h100q39 0 39 -37q0 -16 -10.5 -29.5t-28.5 -13.5h-100v-362q0 -18 -12.5 -30.5t-28.5 -12.5q-39 0 -39 43v362h-324v-362q0 -18 -12 -29.5t-29 -11.5q-39 0 -39 41v362h-102q-41 0 -41 39z M260 1765q0 14 12.5 26.5t26.5 12.5q12 0 29 -8l239 -149q23 -14 23 -39q0 -18 -12.5 -28.5t-22.5 -10.5q-20 0 -31 8l-241 152q-23 14 -23 36zM264 483h324v805q0 76 -47 118t-113 42t-115 -42t-49 -118v-805z" />
<glyph unicode="&#xc1;" horiz-adv-x="847" d="M41 442q0 41 41 41h102v805q0 113 73 176.5t171 63.5t169 -63.5t71 -176.5v-805h100q39 0 39 -37q0 -16 -10.5 -29.5t-28.5 -13.5h-100v-362q0 -18 -12.5 -30.5t-28.5 -12.5q-39 0 -39 43v362h-324v-362q0 -18 -12 -29.5t-29 -11.5q-39 0 -39 41v362h-102q-41 0 -41 39z M260 1608q0 25 23 39l239 149q17 8 29 8q14 0 26.5 -12t12.5 -27q0 -23 -23 -36l-241 -152q-10 -8 -31 -8q-10 0 -22.5 10t-12.5 29zM264 483h324v805q0 76 -47 118t-113 42t-115 -42t-49 -118v-805z" />
<glyph unicode="&#xc2;" horiz-adv-x="847" d="M41 442q0 41 41 41h102v805q0 113 73 176.5t171 63.5t169 -63.5t71 -176.5v-805h100q39 0 39 -37q0 -16 -10.5 -29.5t-28.5 -13.5h-100v-362q0 -18 -12.5 -30.5t-28.5 -12.5q-39 0 -39 43v362h-324v-362q0 -18 -12 -29.5t-29 -11.5q-39 0 -39 41v362h-102q-41 0 -41 39z M256 1606q0 20 12 32l125 152q10 14 31 14q18 0 33 -14l125 -152q10 -14 10 -32q0 -12 -12.5 -24.5t-26.5 -12.5q-20 0 -35 18l-92 115l-94 -115q-14 -18 -37 -18q-16 0 -27.5 13t-11.5 24zM264 483h324v805q0 76 -47 118t-113 42t-115 -42t-49 -118v-805z" />
<glyph unicode="&#xc3;" horiz-adv-x="847" d="M41 442q0 41 41 41h102v805q0 113 73 176.5t171 63.5t169 -63.5t71 -176.5v-805h100q39 0 39 -37q0 -16 -10.5 -29.5t-28.5 -13.5h-100v-362q0 -18 -12.5 -30.5t-28.5 -12.5q-39 0 -39 43v362h-324v-362q0 -18 -12 -29.5t-29 -11.5q-39 0 -39 41v362h-102q-41 0 -41 39z M250 1608q0 39 39 61.5t76 22.5q31 0 66.5 -21.5t51.5 -21.5q25 0 43.5 20.5t32.5 20.5q16 0 28.5 -12.5t12.5 -28.5q0 -13 -6 -23q-37 -57 -109 -57q-33 0 -68.5 21.5t-49.5 21.5q-23 0 -45.5 -21.5t-34.5 -21.5q-16 0 -26.5 11t-10.5 28zM264 483h324v805q0 76 -47 118 t-113 42t-115 -42t-49 -118v-805z" />
<glyph unicode="&#xc4;" horiz-adv-x="847" d="M41 442q0 41 41 41h102v805q0 113 73 176.5t171 63.5t169 -63.5t71 -176.5v-805h100q39 0 39 -37q0 -16 -10.5 -29.5t-28.5 -13.5h-100v-362q0 -18 -12.5 -30.5t-28.5 -12.5q-39 0 -39 43v362h-324v-362q0 -18 -12 -29.5t-29 -11.5q-39 0 -39 41v362h-102q-41 0 -41 39z M264 483h324v805q0 76 -47 118t-113 42t-115 -42t-49 -118v-805zM301 1620q0 20 16.5 36.5t39 16.5t38 -15.5t15.5 -38t-15.5 -37.5t-38 -15t-39 15t-16.5 38zM440 1619.5q0 22.5 15.5 38t38 15.5t38 -15.5t15.5 -38t-15.5 -37.5t-38 -15t-38 15t-15.5 37.5z" />
<glyph unicode="&#xc5;" horiz-adv-x="847" d="M41 442q0 41 41 41h102v805q0 113 73 176.5t171 63.5t169 -63.5t71 -176.5v-805h100q39 0 39 -37q0 -16 -10.5 -29.5t-28.5 -13.5h-100v-362q0 -18 -12.5 -30.5t-28.5 -12.5q-39 0 -39 43v362h-324v-362q0 -18 -12 -29.5t-29 -11.5q-39 0 -39 41v362h-102q-41 0 -41 39z M264 483h324v805q0 76 -47 118t-113 42t-115 -42t-49 -118v-805zM299 1689.5q0 51.5 37 88.5t88 37t88 -37t37 -88.5t-37 -87t-88 -35.5t-88 35.5t-37 87zM379 1690q0 -16 13.5 -29.5t31.5 -13.5t30.5 13.5t12.5 29.5q0 18 -12.5 31.5t-30.5 13.5t-31.5 -13.5t-13.5 -31.5z " />
<glyph unicode="&#xc6;" horiz-adv-x="1507" d="M41 438q0 41 43 41h102v807q0 113 73 175.5t173 62.5q96 0 167 -62.5t71 -175.5v-520q90 145 250 205q-143 90 -144 237q0 125 94.5 225.5t214.5 100.5q115 0 209 -94q14 -14 14.5 -30.5t-12 -29t-29 -12.5t-28.5 14q-63 63 -158 64q-92 0 -157.5 -66.5t-65.5 -150.5 q0 -90 64.5 -157.5t156.5 -67.5q61 0 62 -39q0 -41 -56 -41q-176 -4 -293.5 -132t-117.5 -296q0 -162 125 -291t299 -129t299 125q14 14 30.5 14t27.5 -12.5t11 -29t-14 -30.5q-145 -147 -352 -147q-129 0 -244 62.5t-186 174.5v-196q0 -45 -41 -45q-39 0 -39 45v362h-324 v-362q0 -45 -41 -45q-39 0 -39 45v362h-102q-20 0 -31.5 12.5t-11.5 26.5zM266 479h324v807q0 76 -47 118t-112.5 42t-115 -43t-49.5 -117v-807z" />
<glyph unicode="&#xc7;" horiz-adv-x="813" d="M41 766q0 307 122 534.5t298 227.5q182 0 305 -230q6 -12 6 -22q0 -16 -12 -28.5t-29 -12.5q-25 0 -37 25q-98 188 -233 188q-141 0 -241.5 -209t-100.5 -473q0 -170 45 -327.5t125 -257t172 -99.5q135 0 233 190q10 23 37 23q16 0 28.5 -11.5t12.5 -27.5q0 -11 -6 -23 q-59 -113 -140 -172t-165 -59q-176 0 -298 229.5t-122 534.5zM219 -209q0 14 12.5 25.5t28.5 11.5q8 0 42 -20.5t79 -20.5q29 0 57.5 9t28.5 20q0 31 -125 30q-16 0 -28.5 11.5t-12.5 27.5q0 8 6 19l80 151q6 14 25 15q16 0 32.5 -11.5t16.5 -25.5q0 -4 -4 -13l-47 -92 q139 -26 139 -110q0 -49 -48 -81t-122 -32q-61 0 -110.5 26.5t-49.5 59.5z" />
<glyph unicode="&#xc8;" horiz-adv-x="952" d="M41 498q0 154 88 290t238 187q-141 88 -142 256q0 121 90.5 210t210.5 89q94 0 158 -41t64 -78q0 -35 -31 -35q-16 0 -31 15q-63 63 -153.5 63t-160 -70.5t-69.5 -160.5q0 -78 64.5 -147.5t160.5 -69.5q59 0 60 -39q0 -14 -15.5 -27.5t-40.5 -13.5q-180 0 -296.5 -131 t-116.5 -295q0 -166 125 -292t299 -126t301 123q12 12 28.5 12t27.5 -11t11 -26q0 -16 -12 -30q-147 -147 -358 -148q-203 0 -351.5 149.5t-148.5 346.5zM311 1765q0 14 12.5 26.5t26.5 12.5q12 0 29 -8l239 -149q23 -14 23 -39q0 -18 -12.5 -28.5t-22.5 -10.5q-20 0 -31 8 l-241 152q-23 14 -23 36z" />
<glyph unicode="&#xc9;" horiz-adv-x="952" d="M41 498q0 154 88 290t238 187q-141 88 -142 256q0 121 90.5 210t210.5 89q94 0 158 -41t64 -78q0 -35 -31 -35q-16 0 -31 15q-63 63 -153.5 63t-160 -70.5t-69.5 -160.5q0 -78 64.5 -147.5t160.5 -69.5q59 0 60 -39q0 -14 -15.5 -27.5t-40.5 -13.5q-180 0 -296.5 -131 t-116.5 -295q0 -166 125 -292t299 -126t301 123q12 12 28.5 12t27.5 -11t11 -26q0 -16 -12 -30q-147 -147 -358 -148q-203 0 -351.5 149.5t-148.5 346.5zM360 1608q0 25 23 39l240 149q16 8 28 8q14 0 26.5 -12t12.5 -27q0 -23 -22 -36l-242 -152q-10 -8 -31 -8 q-10 0 -22.5 10t-12.5 29z" />
<glyph unicode="&#xca;" horiz-adv-x="952" d="M41 498q0 154 88 290t238 187q-141 88 -142 256q0 121 90.5 210t210.5 89q94 0 158 -41t64 -78q0 -35 -31 -35q-16 0 -31 15q-63 63 -153.5 63t-160 -70.5t-69.5 -160.5q0 -78 64.5 -147.5t160.5 -69.5q59 0 60 -39q0 -14 -15.5 -27.5t-40.5 -13.5q-180 0 -296.5 -131 t-116.5 -295q0 -166 125 -292t299 -126t301 123q12 12 28.5 12t27.5 -11t11 -26q0 -16 -12 -30q-147 -147 -358 -148q-203 0 -351.5 149.5t-148.5 346.5zM348 1606q0 20 12 32l125 152q10 14 31 14q18 0 33 -14l125 -152q10 -14 10 -32q0 -12 -12.5 -24.5t-26.5 -12.5 q-20 0 -35 18l-92 115l-94 -115q-14 -18 -37 -18q-16 0 -27.5 13t-11.5 24z" />
<glyph unicode="&#xcb;" horiz-adv-x="952" d="M41 498q0 154 88 290t238 187q-141 88 -142 256q0 121 90.5 210t210.5 89q94 0 158 -41t64 -78q0 -35 -31 -35q-16 0 -31 15q-63 63 -153.5 63t-160 -70.5t-69.5 -160.5q0 -78 64.5 -147.5t160.5 -69.5q59 0 60 -39q0 -14 -15.5 -27.5t-40.5 -13.5q-180 0 -296.5 -131 t-116.5 -295q0 -166 125 -292t299 -126t301 123q12 12 28.5 12t27.5 -11t11 -26q0 -16 -12 -30q-147 -147 -358 -148q-203 0 -351.5 149.5t-148.5 346.5zM403 1620q0 20 16.5 36.5t39 16.5t38 -15.5t15.5 -38t-15.5 -37.5t-38 -15t-39 15t-16.5 38zM543 1619.5q0 22.5 15 38 t37.5 15.5t38 -15.5t15.5 -38t-15.5 -37.5t-38 -15t-37.5 15t-15 37.5z" />
<glyph unicode="&#xcc;" d="M-82 1765q0 14 12.5 26.5t26.5 12.5q12 0 29 -8l239 -149q23 -14 23 -39q0 -18 -12.5 -28.5t-22.5 -10.5q-20 0 -31 8l-241 152q-23 14 -23 36zM41 41v1450q0 20 12.5 31.5t26.5 11.5q41 0 41 -43v-1450q0 -41 -41 -41q-39 0 -39 41z" />
<glyph unicode="&#xcd;" d="M-82 1608q0 25 23 39l239 149q17 8 29 8q14 0 26.5 -12t12.5 -27q0 -23 -23 -36l-241 -152q-10 -8 -31 -8q-10 0 -22.5 10t-12.5 29zM41 41v1450q0 20 12.5 31.5t26.5 11.5q41 0 41 -43v-1450q0 -41 -41 -41q-39 0 -39 41z" />
<glyph unicode="&#xce;" d="M-86 1606q0 20 12 32l125 152q10 14 31 14q18 0 33 -14l125 -152q10 -14 10 -32q0 -12 -12.5 -24.5t-26.5 -12.5q-20 0 -35 18l-92 115l-94 -115q-14 -18 -37 -18q-16 0 -27.5 13t-11.5 24zM41 41v1450q0 20 12.5 31.5t26.5 11.5q41 0 41 -43v-1450q0 -41 -41 -41 q-39 0 -39 41z" />
<glyph unicode="&#xcf;" d="M-41 1620q0 20 16.5 36.5t39 16.5t38 -15.5t15.5 -38t-15.5 -37.5t-38 -15t-39 15t-16.5 38zM41 41v1450q0 20 12.5 31.5t26.5 11.5q41 0 41 -43v-1450q0 -41 -41 -41q-39 0 -39 41zM98 1619.5q0 22.5 15.5 38t38.5 15.5q20 0 36.5 -15.5t16.5 -38t-15.5 -37.5t-38 -15 t-38 15t-15.5 37.5z" />
<glyph unicode="&#xd0;" horiz-adv-x="729" d="M41 444q0 41 43 41h115v1002q0 49 34 49q16 0 41 -14q201 -133 307.5 -334t106.5 -422t-105.5 -422t-308.5 -334q-20 -14 -41 -14q-35 0 -34 49v361h-115q-20 0 -31.5 12t-11.5 26zM279 111q160 119 244.5 291.5t84.5 363.5q0 188 -85 361t-244 294v-936h100q43 0 43 -41 q0 -14 -11.5 -26t-31.5 -12h-100v-295z" />
<glyph unicode="&#xd1;" horiz-adv-x="692" d="M41 1270q0 12 19.5 34.5t63.5 61.5t52 47v76q0 43 39 43q14 0 26.5 -11.5t12.5 -31.5v-12q88 55 156 55q100 0 170.5 -71.5t70.5 -172.5v-1247q0 -14 -1 -20.5t-11 -13.5t-29 -7q-27 0 -33 10t-6 31v1247q0 68 -49 116t-112 48q-61 0 -156 -76v-1335q0 -20 -12.5 -31.5 t-26.5 -11.5q-39 0 -39 43v1262q-6 -6 -20.5 -21.5t-21.5 -22t-18.5 -15.5t-19.5 -13t-14 -4q-16 0 -28.5 13t-12.5 30zM197 1608q0 39 38.5 61.5t75.5 22.5q31 0 67 -21.5t52 -21.5q25 0 43.5 20.5t32.5 20.5q16 0 28.5 -12.5t12.5 -28.5q0 -13 -6 -23q-37 -57 -109 -57 q-33 0 -68.5 21.5t-50.5 21.5q-23 0 -45 -21.5t-35 -21.5q-16 0 -26 11t-10 28z" />
<glyph unicode="&#xd2;" horiz-adv-x="811" d="M41 766q0 139 18.5 266t57.5 244t112.5 186.5t173.5 69.5q96 0 169 -69.5t115 -184.5t62.5 -245t20.5 -267q0 -76 -7 -162t-31.5 -198.5t-61.5 -198.5t-106.5 -146.5t-158 -60.5t-158 60.5t-106.5 146.5t-61.5 198.5t-31.5 198.5t-7 162zM121 765.5q0 -319.5 85 -500.5 t199.5 -181t198.5 180t84 502q0 319 -85 497.5t-199.5 178.5t-198.5 -178.5t-84 -498zM242 1765q0 14 12.5 26.5t26.5 12.5q12 0 28 -8l240 -149q23 -14 22 -39q0 -18 -12 -28.5t-22 -10.5q-20 0 -31 8l-242 152q-23 14 -22 36z" />
<glyph unicode="&#xd3;" horiz-adv-x="811" d="M41 766q0 139 18.5 266t57.5 244t112.5 186.5t173.5 69.5q96 0 169 -69.5t115 -184.5t62.5 -245t20.5 -267q0 -76 -7 -162t-31.5 -198.5t-61.5 -198.5t-106.5 -146.5t-158 -60.5t-158 60.5t-106.5 146.5t-61.5 198.5t-31.5 198.5t-7 162zM121 765.5q0 -319.5 85 -500.5 t199.5 -181t198.5 180t84 502q0 319 -85 497.5t-199.5 178.5t-198.5 -178.5t-84 -498zM242 1608q0 25 22 39l240 149q16 8 28 8q14 0 26.5 -12t12.5 -27q0 -23 -22 -36l-242 -152q-10 -8 -31 -8q-10 0 -22 10t-12 29z" />
<glyph unicode="&#xd4;" horiz-adv-x="811" d="M41 766q0 139 18.5 266t57.5 244t112.5 186.5t173.5 69.5q96 0 169 -69.5t115 -184.5t62.5 -245t20.5 -267q0 -76 -7 -162t-31.5 -198.5t-61.5 -198.5t-106.5 -146.5t-158 -60.5t-158 60.5t-106.5 146.5t-61.5 198.5t-31.5 198.5t-7 162zM121 765.5q0 -319.5 85 -500.5 t199.5 -181t198.5 180t84 502q0 319 -85 497.5t-199.5 178.5t-198.5 -178.5t-84 -498zM238 1606q0 20 12 32l125 152q10 14 31 14q18 0 32 -14l125 -152q10 -14 10 -32q0 -12 -12 -24.5t-26 -12.5q-20 0 -35 18l-92 115l-95 -115q-14 -18 -37 -18q-16 0 -27 13t-11 24z" />
<glyph unicode="&#xd5;" horiz-adv-x="811" d="M41 766q0 139 18.5 266t57.5 244t112.5 186.5t173.5 69.5q96 0 169 -69.5t115 -184.5t62.5 -245t20.5 -267q0 -76 -7 -162t-31.5 -198.5t-61.5 -198.5t-106.5 -146.5t-158 -60.5t-158 60.5t-106.5 146.5t-61.5 198.5t-31.5 198.5t-7 162zM121 765.5q0 -319.5 85 -500.5 t199.5 -181t198.5 180t84 502q0 319 -85 497.5t-199.5 178.5t-198.5 -178.5t-84 -498zM231 1608q0 39 39 61.5t76 22.5q31 0 67 -21.5t52 -21.5q25 0 43 20.5t33 20.5q16 0 28.5 -12.5t12.5 -28.5q-1 -13 -7 -23q-37 -57 -108 -57q-33 0 -69 21.5t-50 21.5q-23 0 -45 -21.5 t-35 -21.5q-16 0 -26.5 11t-10.5 28z" />
<glyph unicode="&#xd6;" horiz-adv-x="811" d="M41 766q0 139 18.5 266t57.5 244t112.5 186.5t173.5 69.5q96 0 169 -69.5t115 -184.5t62.5 -245t20.5 -267q0 -76 -7 -162t-31.5 -198.5t-61.5 -198.5t-106.5 -146.5t-158 -60.5t-158 60.5t-106.5 146.5t-61.5 198.5t-31.5 198.5t-7 162zM121 765.5q0 -319.5 85 -500.5 t199.5 -181t198.5 180t84 502q0 319 -85 497.5t-199.5 178.5t-198.5 -178.5t-84 -498zM283 1620q0 20 16 36.5t38.5 16.5t38 -15.5t15.5 -38t-15.5 -37.5t-38 -15t-38.5 15t-16 38zM422 1619.5q0 22.5 15.5 38t37.5 15.5q20 0 36.5 -15.5t16.5 -38t-15 -37.5t-37.5 -15 t-38 15t-15.5 37.5z" />
<glyph unicode="&#xd7;" horiz-adv-x="733" d="M41 240q0 14 14 28l252 252l-252 252q-14 12 -14 28.5t14.5 30t30.5 13.5q18 0 31 -13l250 -249l251 249q12 12 31 13q16 0 29.5 -13.5t13.5 -29.5q0 -18 -12 -29l-252 -252l252 -252q12 -12 12 -28q0 -18 -13 -31.5t-29.5 -13.5t-31.5 14l-251 250l-250 -250 q-14 -14 -30.5 -14t-31 13t-14.5 32z" />
<glyph unicode="&#xd8;" horiz-adv-x="808" d="M41 758q0 102 14.5 213.5t49 245t112.5 219.5t189 86q127 0 217 -125q4 12 12 33.5t13 36t13.5 29.5t17.5 22.5t21 7.5q16 0 28.5 -11.5t12.5 -29.5q0 -14 -11 -45t-29.5 -72t-26.5 -63q94 -221 94 -547q0 -78 -7 -164t-30.5 -197.5t-61.5 -197.5t-106.5 -146.5 t-156.5 -60.5q-121 0 -205 106q-4 -10 -11.5 -30.5t-11.5 -30.5t-11 -23.5t-16.5 -19.5t-19.5 -6q-16 0 -28.5 11t-12.5 28q0 14 9.5 39.5t25.5 62.5t22 53q-106 217 -106 576zM121 758q0 -274 69 -469q15 35 396 1014q-68 139 -180 139q-72 0 -126.5 -57.5t-83 -137.5 t-47 -182t-23.5 -175t-5 -132zM236 186q68 -115 170 -114q86 0 146 82t88 205.5t38 221t10 177.5q0 244 -59 434z" />
<glyph unicode="&#xd9;" horiz-adv-x="692" d="M41 240v1249q0 14 1 20.5t11 13.5t29 7q27 0 33 -10.5t6 -30.5v-1249q0 -68 48 -115t112 -47q66 0 155 76v1335q0 20 12.5 31.5t26.5 11.5q41 0 41 -43v-1262q8 6 25.5 24.5t25.5 26t21.5 15.5t23.5 8q14 0 26.5 -11t12.5 -28t-16 -33q-18 -16 -58 -55t-61 -57v-76 q0 -43 -41 -43q-14 0 -26.5 11t-12.5 32v12q-80 -55 -153 -55q-100 0 -171 71.5t-71 170.5zM113 1765q0 14 12.5 26.5t26.5 12.5q12 0 28 -8l240 -149q23 -14 22 -39q0 -18 -12 -28.5t-22 -10.5q-20 0 -31 8l-242 152q-23 14 -22 36z" />
<glyph unicode="&#xda;" horiz-adv-x="692" d="M41 240v1249q0 14 1 20.5t11 13.5t29 7q27 0 33 -10.5t6 -30.5v-1249q0 -68 48 -115t112 -47q66 0 155 76v1335q0 20 12.5 31.5t26.5 11.5q41 0 41 -43v-1262q8 6 25.5 24.5t25.5 26t21.5 15.5t23.5 8q14 0 26.5 -11t12.5 -28t-16 -33q-18 -16 -58 -55t-61 -57v-76 q0 -43 -41 -43q-14 0 -26.5 11t-12.5 32v12q-80 -55 -153 -55q-100 0 -171 71.5t-71 170.5zM182 1608q0 25 23 39l239 149q17 8 29 8q14 0 26.5 -12t12.5 -27q0 -23 -23 -36l-241 -152q-10 -8 -31 -8q-10 0 -22.5 10t-12.5 29z" />
<glyph unicode="&#xdb;" horiz-adv-x="692" d="M41 240v1249q0 14 1 20.5t11 13.5t29 7q27 0 33 -10.5t6 -30.5v-1249q0 -68 48 -115t112 -47q66 0 155 76v1335q0 20 12.5 31.5t26.5 11.5q41 0 41 -43v-1262q8 6 25.5 24.5t25.5 26t21.5 15.5t23.5 8q14 0 26.5 -11t12.5 -28t-16 -33q-18 -16 -58 -55t-61 -57v-76 q0 -43 -41 -43q-14 0 -26.5 11t-12.5 32v12q-80 -55 -153 -55q-100 0 -171 71.5t-71 170.5zM113 1606q0 20 12 32l125 152q10 14 31 14q18 0 32 -14l125 -152q10 -14 11 -32q0 -12 -12.5 -24.5t-26.5 -12.5q-20 0 -35 18l-92 115l-95 -115q-14 -18 -36 -18q-16 0 -27.5 13 t-11.5 24z" />
<glyph unicode="&#xdc;" horiz-adv-x="692" d="M41 240v1249q0 14 1 20.5t11 13.5t29 7q27 0 33 -10.5t6 -30.5v-1249q0 -68 48 -115t112 -47q66 0 155 76v1335q0 20 12.5 31.5t26.5 11.5q41 0 41 -43v-1262q8 6 25.5 24.5t25.5 26t21.5 15.5t23.5 8q14 0 26.5 -11t12.5 -28t-16 -33q-18 -16 -58 -55t-61 -57v-76 q0 -43 -41 -43q-14 0 -26.5 11t-12.5 32v12q-80 -55 -153 -55q-100 0 -171 71.5t-71 170.5zM158 1620q0 20 16 36.5t39 16.5t38 -15.5t15 -38t-15 -37.5t-38 -15t-39 15t-16 38zM297 1619.5q0 22.5 15.5 38t38 15.5t37.5 -15.5t15 -38t-15 -37.5t-37.5 -15t-38 15 t-15.5 37.5z" />
<glyph unicode="&#xdd;" horiz-adv-x="696" d="M41 37q0 6 4 18l279 756l-244 666q-4 12 -4 18q0 18 12 28.5t29 10.5q27 0 39 -29l211 -577l211 577q12 29 38 29q14 0 26.5 -10.5t12.5 -28.5q0 -6 -4 -18l-530 -1450q-12 -29 -39 -29q-16 0 -28.5 10t-12.5 29zM233 1608q0 25 23 39l240 149q16 8 28 8q14 0 26.5 -12 t12.5 -27q0 -23 -22 -36l-242 -152q-10 -8 -31 -8q-10 0 -22.5 10t-12.5 29z" />
<glyph unicode="&#xde;" horiz-adv-x="688" d="M41 1055q0 18 10 28l121 105v297q0 20 12.5 31.5t26.5 11.5q41 0 41 -43v-228q72 55 156 56q96 0 167.5 -66.5t71.5 -173.5v-532q0 -106 -71.5 -173t-167.5 -67q-88 0 -156 55v-323q0 -41 -41 -41q-39 0 -39 41v1048q-66 -66 -92 -65q-16 0 -27.5 13t-11.5 26zM252 440 q115 -59 151 -59q66 0 115 47t49 113v532q0 66 -49 114t-112 48q-12 0 -24.5 -2t-22 -5t-20.5 -9.5t-18.5 -10.5t-19.5 -13t-16 -13t-17.5 -15.5t-15.5 -13.5v-713z" />
<glyph unicode="&#xdf;" horiz-adv-x="628" d="M33 575.5q0 40.5 39 40.5h24v371q0 109 62.5 179.5t142.5 70.5t140.5 -73.5t60.5 -176.5q0 -72 -33 -130t-92 -85q-20 -10 -21 -39q0 -25 25 -31q100 -39 153.5 -133t53.5 -213q0 -137 -77 -248.5t-210 -111.5q-111 0 -111 55q0 39 33 39q12 0 36 -7t38 -7q98 0 161.5 87 t63.5 191q0 92 -45 170t-119 105q-72 33 -71 102q0 72 63 105q84 41 84 151q0 70 -40 120t-93 50q-55 0 -96 -47t-41 -123v-950q0 -41 -35 -41q-33 0 -33 41v498h-26q-37 0 -37 40.5z" />
<glyph unicode="&#xe0;" horiz-adv-x="710" d="M41 362q0 41 41 41h74v635q0 94 60 147.5t142 53.5q84 0 142.5 -52t58.5 -149v-635h72q39 0 39 -38q0 -41 -39 -41h-72v-283q0 -18 -12 -30.5t-29 -12.5q-39 0 -39 43v283h-243v-283q0 -18 -12.5 -29.5t-28.5 -11.5q-39 0 -39 41v283h-74q-41 0 -41 38zM190 1473 q0 14 12.5 26t26.5 12q12 0 29 -8l240 -149q23 -14 22 -39q0 -18 -12 -28.5t-23 -10.5q-20 0 -30 8l-242 152q-23 14 -23 37zM236 403h243v635q0 57 -35.5 89t-85 32t-86 -31.5t-36.5 -89.5v-635z" />
<glyph unicode="&#xe1;" horiz-adv-x="710" d="M41 362q0 41 41 41h74v635q0 94 60 147.5t142 53.5q84 0 142.5 -52t58.5 -149v-635h72q39 0 39 -38q0 -41 -39 -41h-72v-283q0 -18 -12 -30.5t-29 -12.5q-39 0 -39 43v283h-243v-283q0 -18 -12.5 -29.5t-28.5 -11.5q-39 0 -39 41v283h-74q-41 0 -41 38zM190 1315 q0 25 23 39l240 149q16 8 28 8q14 0 26.5 -12t12.5 -26q0 -23 -22 -37l-242 -152q-10 -8 -31 -8q-10 0 -22.5 10t-12.5 29zM236 403h243v635q0 57 -35.5 89t-85 32t-86 -31.5t-36.5 -89.5v-635z" />
<glyph unicode="&#xe2;" horiz-adv-x="710" d="M41 362q0 41 41 41h74v635q0 94 60 147.5t142 53.5q84 0 142.5 -52t58.5 -149v-635h72q39 0 39 -38q0 -41 -39 -41h-72v-283q0 -18 -12 -30.5t-29 -12.5q-39 0 -39 43v283h-243v-283q0 -18 -12.5 -29.5t-28.5 -11.5q-39 0 -39 41v283h-74q-41 0 -41 38zM186 1313 q0 20 13 33l125 151q10 14 30 14q18 0 33 -14l125 -151q10 -14 10 -33q0 -12 -12 -24.5t-27 -12.5q-20 0 -34 18l-93 115l-94 -115q-14 -18 -37 -18q-16 0 -27.5 13.5t-11.5 23.5zM236 403h243v635q0 57 -35.5 89t-85 32t-86 -31.5t-36.5 -89.5v-635z" />
<glyph unicode="&#xe3;" horiz-adv-x="710" d="M41 362q0 41 41 41h74v635q0 94 60 147.5t142 53.5q84 0 142.5 -52t58.5 -149v-635h72q39 0 39 -38q0 -41 -39 -41h-72v-283q0 -18 -12 -30.5t-29 -12.5q-39 0 -39 43v283h-243v-283q0 -18 -12.5 -29.5t-28.5 -11.5q-39 0 -39 41v283h-74q-41 0 -41 38zM182 1315 q0 39 39 61.5t76 22.5q31 0 66.5 -21.5t52.5 -21.5q25 0 43 20.5t33 20.5q16 0 28 -12.5t12 -28.5q0 -13 -6 -23q-37 -57 -108 -57q-33 0 -69 21.5t-50 21.5q-23 0 -45.5 -21.5t-34.5 -21.5q-16 0 -26.5 11t-10.5 28zM236 403h243v635q0 57 -35.5 89t-85 32t-86 -31.5 t-36.5 -89.5v-635z" />
<glyph unicode="&#xe4;" horiz-adv-x="710" d="M41 362q0 41 41 41h74v635q0 94 60 147.5t142 53.5q84 0 142.5 -52t58.5 -149v-635h72q39 0 39 -38q0 -41 -39 -41h-72v-283q0 -18 -12 -30.5t-29 -12.5q-39 0 -39 43v283h-243v-283q0 -18 -12.5 -29.5t-28.5 -11.5q-39 0 -39 41v283h-74q-41 0 -41 38zM231 1327 q0 20 16.5 36.5t39 16.5t38 -15t15.5 -37.5t-15.5 -38t-38 -15.5t-39 15.5t-16.5 37.5zM236 403h243v635q0 57 -35.5 89t-85 32t-86 -31.5t-36.5 -89.5v-635zM371 1327.5q0 22.5 15 37.5t37.5 15t38 -16.5t15.5 -36.5q0 -23 -15.5 -38t-38 -15t-37.5 15.5t-15 38z" />
<glyph unicode="&#xe5;" horiz-adv-x="710" d="M41 362q0 41 41 41h74v635q0 94 60 147.5t142 53.5q84 0 142.5 -52t58.5 -149v-635h72q39 0 39 -38q0 -41 -39 -41h-72v-283q0 -18 -12 -30.5t-29 -12.5q-39 0 -39 43v283h-243v-283q0 -18 -12.5 -29.5t-28.5 -11.5q-39 0 -39 41v283h-74q-41 0 -41 38zM229 1397 q0 53 37 89t88.5 36t88 -37t36.5 -88t-36.5 -87t-88 -36t-88.5 36t-37 87zM236 403h243v635q0 57 -35.5 89t-85 32t-86 -31.5t-36.5 -89.5v-635zM309 1397q0 -16 13.5 -29.5t32 -13.5t30.5 13.5t12 29.5q0 18 -12 31.5t-30.5 13.5t-32 -13.5t-13.5 -31.5z" />
<glyph unicode="&#xe6;" horiz-adv-x="1011" d="M41 358q0 41 37 41h57v637q0 94 49 146.5t117 52.5q66 0 113 -51t47 -148v-381q59 90 135 131q-84 84 -84 189q0 102 62.5 182t144.5 80q80 0 139 -72q10 -10 10 -30q0 -16 -9 -28.5t-23 -12.5q-16 0 -25 14q-41 49 -94 49q-57 0 -96 -51t-39 -115q0 -70 37.5 -121 t95.5 -51q47 0 47 -39q0 -41 -43 -41q-109 -4 -182.5 -104t-73.5 -229q0 -127 77.5 -227.5t186.5 -100.5q106 0 184 96q14 14 26.5 14t23 -12t10.5 -29q-1 -8 -13 -28q-94 -123 -229 -123q-170 0 -268 164v-123q0 -43 -35 -43q-33 0 -33 43v282h-190v-282q0 -43 -35 -43 q-33 0 -33 43v282h-57q-37 0 -37 39zM203 399h190v637q0 57 -27.5 89t-66.5 32t-67.5 -32.5t-28.5 -88.5v-637z" />
<glyph unicode="&#xe7;" horiz-adv-x="684" d="M41 612.5q0 247.5 100.5 433t243.5 185.5q152 0 256 -191q2 -4 2 -20t-12.5 -28.5t-28.5 -12.5q-23 0 -37 25q-78 147 -180 147q-111 0 -187.5 -165t-76.5 -374q0 -207 77.5 -372.5t186.5 -165.5q102 0 180 147q10 23 37 23q16 0 28.5 -11.5t12.5 -27.5q0 -11 -4 -23 q-102 -188 -254 -188q-143 0 -243.5 185.5t-100.5 433zM176 -209q0 14 12.5 25.5t28.5 11.5q8 0 42 -20.5t79 -20.5q29 0 57.5 9t28.5 20q0 31 -125 30q-16 0 -28.5 11.5t-12.5 27.5q0 8 6 19l80 151q6 14 25 15q16 0 32.5 -11.5t16.5 -25.5q0 -4 -4 -13l-47 -92 q139 -26 139 -110q0 -49 -48 -81t-122 -32q-61 0 -110.5 26.5t-49.5 59.5z" />
<glyph unicode="&#xe8;" horiz-adv-x="794" d="M41 397q0 123 66.5 231.5t183.5 153.5q-102 70 -103 203q0 98 75 173t175 75q78 0 131.5 -35t53.5 -69.5t-33 -34.5q-18 0 -31 12q-47 49 -117 49q-68 0 -122 -53t-54 -123q0 -59 49.5 -112.5t122.5 -53.5q27 0 42.5 -12.5t15.5 -26.5q0 -16 -14.5 -28.5t-39.5 -12.5 q-141 0 -232 -102.5t-91 -231.5t97 -227t235 -98q135 0 235 96q12 12 29 12q14 0 26.5 -11t12.5 -28q-1 -18 -13 -30q-119 -119 -292 -119q-166 0 -287 122t-121 281zM233 1473q0 14 12.5 26t26.5 12q12 0 29 -8l240 -149q23 -14 22 -39q0 -18 -12 -28.5t-23 -10.5 q-20 0 -30 8l-242 152q-23 14 -23 37z" />
<glyph unicode="&#xe9;" horiz-adv-x="794" d="M41 397q0 123 66.5 231.5t183.5 153.5q-102 70 -103 203q0 98 75 173t175 75q78 0 131.5 -35t53.5 -69.5t-33 -34.5q-18 0 -31 12q-47 49 -117 49q-68 0 -122 -53t-54 -123q0 -59 49.5 -112.5t122.5 -53.5q27 0 42.5 -12.5t15.5 -26.5q0 -16 -14.5 -28.5t-39.5 -12.5 q-141 0 -232 -102.5t-91 -231.5t97 -227t235 -98q135 0 235 96q12 12 29 12q14 0 26.5 -11t12.5 -28q-1 -18 -13 -30q-119 -119 -292 -119q-166 0 -287 122t-121 281zM309 1315q0 25 23 39l239 149q17 8 29 8q14 0 26.5 -12t12.5 -26q0 -23 -23 -37l-241 -152q-10 -8 -31 -8 q-10 0 -22.5 10t-12.5 29z" />
<glyph unicode="&#xea;" horiz-adv-x="794" d="M41 397q0 123 66.5 231.5t183.5 153.5q-102 70 -103 203q0 98 75 173t175 75q78 0 131.5 -35t53.5 -69.5t-33 -34.5q-18 0 -31 12q-47 49 -117 49q-68 0 -122 -53t-54 -123q0 -59 49.5 -112.5t122.5 -53.5q27 0 42.5 -12.5t15.5 -26.5q0 -16 -14.5 -28.5t-39.5 -12.5 q-141 0 -232 -102.5t-91 -231.5t97 -227t235 -98q135 0 235 96q12 12 29 12q14 0 26.5 -11t12.5 -28q-1 -18 -13 -30q-119 -119 -292 -119q-166 0 -287 122t-121 281zM260 1313q0 20 12 33l125 151q10 14 31 14q18 0 33 -14l125 -151q10 -14 10 -33q0 -12 -12.5 -24.5 t-26.5 -12.5q-20 0 -35 18l-92 115l-94 -115q-14 -18 -37 -18q-16 0 -27.5 13.5t-11.5 23.5z" />
<glyph unicode="&#xeb;" horiz-adv-x="794" d="M41 397q0 123 66.5 231.5t183.5 153.5q-102 70 -103 203q0 98 75 173t175 75q78 0 131.5 -35t53.5 -69.5t-33 -34.5q-18 0 -31 12q-47 49 -117 49q-68 0 -122 -53t-54 -123q0 -59 49.5 -112.5t122.5 -53.5q27 0 42.5 -12.5t15.5 -26.5q0 -16 -14.5 -28.5t-39.5 -12.5 q-141 0 -232 -102.5t-91 -231.5t97 -227t235 -98q135 0 235 96q12 12 29 12q14 0 26.5 -11t12.5 -28q-1 -18 -13 -30q-119 -119 -292 -119q-166 0 -287 122t-121 281zM313 1327q0 20 16.5 36.5t39 16.5t38 -15t15.5 -37.5t-15.5 -38t-38 -15.5t-39 15.5t-16.5 37.5z M453 1327.5q0 22.5 15 37.5t37.5 15t38 -16.5t15.5 -36.5q0 -23 -15.5 -38t-38 -15t-37.5 15.5t-15 38z" />
<glyph unicode="&#xec;" d="M-82 1473q0 14 12.5 26t26.5 12q12 0 29 -8l239 -149q23 -14 23 -39q0 -18 -12.5 -28.5t-22.5 -10.5q-20 0 -31 8l-241 152q-23 14 -23 37zM41 33v1159q0 43 39 43q41 0 41 -43v-1159q0 -41 -41 -41q-39 0 -39 41z" />
<glyph unicode="&#xed;" d="M-82 1315q0 25 23 39l239 149q17 8 29 8q14 0 26.5 -12t12.5 -26q0 -23 -23 -37l-241 -152q-10 -8 -31 -8q-10 0 -22.5 10t-12.5 29zM41 33v1159q0 43 39 43q41 0 41 -43v-1159q0 -41 -41 -41q-39 0 -39 41z" />
<glyph unicode="&#xee;" d="M-86 1313q0 20 12 33l125 151q10 14 31 14q18 0 33 -14l125 -151q10 -14 10 -33q0 -12 -12.5 -24.5t-26.5 -12.5q-20 0 -35 18l-92 115l-94 -115q-14 -18 -37 -18q-16 0 -27.5 13.5t-11.5 23.5zM41 33v1159q0 43 39 43q41 0 41 -43v-1159q0 -41 -41 -41q-39 0 -39 41z " />
<glyph unicode="&#xef;" d="M-41 1327q0 20 16.5 36.5t39 16.5t38 -15t15.5 -37.5t-15.5 -38t-38 -15.5t-39 15.5t-16.5 37.5zM41 33v1159q0 43 39 43q41 0 41 -43v-1159q0 -41 -41 -41q-39 0 -39 41zM98 1327.5q0 22.5 15.5 37.5t38.5 15q20 0 36.5 -16.5t16.5 -36.5q0 -23 -15.5 -38t-38 -15 t-38 15.5t-15.5 38z" />
<glyph unicode="&#xf0;" horiz-adv-x="514" d="M41 365q0 41 37 41h65v792q0 47 29 47q14 0 33 -14q129 -109 198.5 -271.5t69.5 -338.5q0 -178 -68.5 -340t-199.5 -271q-14 -14 -33 -14q-29 0 -29 49v279h-65q-37 0 -37 41zM211 117q195 186 195 504q0 315 -195 503v-718h55q35 0 35 -41t-35 -41h-55v-207z" />
<glyph unicode="&#xf1;" horiz-adv-x="587" d="M41 1015.5q0 16.5 80 92.5l29 27v57q0 41 38 41q37 0 41 -37q59 37 115 37q82 0 142.5 -59.5t60.5 -143.5v-997q0 -14 -1 -20.5t-11.5 -13.5t-28.5 -7q-27 0 -33 10t-6 31v997q0 51 -37 87t-86 36q-51 0 -115 -53v-1067q0 -43 -41 -43q-39 0 -38 43v989q-49 -49 -68 -49 q-16 0 -28.5 13t-12.5 29.5zM145 1315q0 39 39 61.5t76 22.5q31 0 66.5 -21.5t52.5 -21.5q25 0 43 20.5t33 20.5q16 0 28.5 -12.5t12.5 -28.5q-1 -13 -7 -23q-37 -57 -108 -57q-33 0 -69 21.5t-50 21.5q-23 0 -45 -21.5t-35 -21.5q-16 0 -26.5 11t-10.5 28z" />
<glyph unicode="&#xf2;" horiz-adv-x="681" d="M41 612q0 113 15.5 216.5t48 197.5t93 150.5t142.5 56.5q102 0 174 -99.5t99.5 -234.5t27.5 -287q0 -82 -12.5 -173t-41 -199.5t-92 -178t-153.5 -69.5t-154.5 69.5t-93 178t-41 199.5t-12.5 173zM123 612q0 -252 65.5 -394t153.5 -142t152.5 142t64.5 394 q0 250 -65.5 391.5t-153.5 141.5t-152.5 -140.5t-64.5 -392.5zM176 1473q0 14 12.5 26t26.5 12q12 0 29 -8l239 -149q23 -14 23 -39q0 -18 -12.5 -28.5t-22.5 -10.5q-20 0 -31 8l-241 152q-23 14 -23 37z" />
<glyph unicode="&#xf3;" horiz-adv-x="681" d="M41 612q0 113 15.5 216.5t48 197.5t93 150.5t142.5 56.5q102 0 174 -99.5t99.5 -234.5t27.5 -287q0 -82 -12.5 -173t-41 -199.5t-92 -178t-153.5 -69.5t-154.5 69.5t-93 178t-41 199.5t-12.5 173zM123 612q0 -252 65.5 -394t153.5 -142t152.5 142t64.5 394 q0 250 -65.5 391.5t-153.5 141.5t-152.5 -140.5t-64.5 -392.5zM176 1315q0 25 23 39l239 149q17 8 29 8q14 0 26.5 -12t12.5 -26q0 -23 -23 -37l-241 -152q-10 -8 -31 -8q-10 0 -22.5 10t-12.5 29z" />
<glyph unicode="&#xf4;" horiz-adv-x="681" d="M41 612q0 113 15.5 216.5t48 197.5t93 150.5t142.5 56.5q102 0 174 -99.5t99.5 -234.5t27.5 -287q0 -82 -12.5 -173t-41 -199.5t-92 -178t-153.5 -69.5t-154.5 69.5t-93 178t-41 199.5t-12.5 173zM123 612q0 -252 65.5 -394t153.5 -142t152.5 142t64.5 394 q0 250 -65.5 391.5t-153.5 141.5t-152.5 -140.5t-64.5 -392.5zM172 1313q0 20 12 33l125 151q10 14 31 14q18 0 33 -14l125 -151q10 -14 10 -33q0 -12 -12.5 -24.5t-26.5 -12.5q-20 0 -35 18l-92 115l-94 -115q-14 -18 -37 -18q-16 0 -27.5 13.5t-11.5 23.5z" />
<glyph unicode="&#xf5;" horiz-adv-x="681" d="M41 612q0 113 15.5 216.5t48 197.5t93 150.5t142.5 56.5q102 0 174 -99.5t99.5 -234.5t27.5 -287q0 -82 -12.5 -173t-41 -199.5t-92 -178t-153.5 -69.5t-154.5 69.5t-93 178t-41 199.5t-12.5 173zM123 612q0 -252 65.5 -394t153.5 -142t152.5 142t64.5 394 q0 250 -65.5 391.5t-153.5 141.5t-152.5 -140.5t-64.5 -392.5zM168 1315q0 39 39 61.5t76 22.5q31 0 66.5 -21.5t51.5 -21.5q25 0 43.5 20.5t32.5 20.5q16 0 28.5 -12.5t12.5 -28.5q0 -13 -6 -23q-37 -57 -109 -57q-33 0 -68.5 21.5t-49.5 21.5q-23 0 -45.5 -21.5 t-34.5 -21.5q-16 0 -26.5 11t-10.5 28z" />
<glyph unicode="&#xf6;" horiz-adv-x="681" d="M41 612q0 113 15.5 216.5t48 197.5t93 150.5t142.5 56.5q102 0 174 -99.5t99.5 -234.5t27.5 -287q0 -82 -12.5 -173t-41 -199.5t-92 -178t-153.5 -69.5t-154.5 69.5t-93 178t-41 199.5t-12.5 173zM123 612q0 -252 65.5 -394t153.5 -142t152.5 142t64.5 394 q0 250 -65.5 391.5t-153.5 141.5t-152.5 -140.5t-64.5 -392.5zM217 1327q0 20 16.5 36.5t39 16.5t38 -15t15.5 -37.5t-15.5 -38t-38 -15.5t-39 15.5t-16.5 37.5zM356 1327.5q0 22.5 15.5 37.5t38.5 15q20 0 36.5 -16.5t16.5 -36.5q0 -23 -15.5 -38t-38 -15t-38 15.5 t-15.5 38z" />
<glyph unicode="&#xf7;" horiz-adv-x="759" d="M41 725q0 16 11 29.5t32 13.5h592q20 0 31.5 -13.5t11.5 -29.5q0 -43 -43 -43h-592q-43 0 -43 43zM332 561.5q0 20.5 14 34.5t34.5 14t35 -14t14.5 -34.5t-14.5 -35t-35 -14.5t-34.5 14.5t-14 35zM332 888.5q0 20.5 14 35t34.5 14.5t35 -14.5t14.5 -35t-14.5 -34.5 t-35 -14t-34.5 14t-14 34.5z" />
<glyph unicode="&#xf8;" horiz-adv-x="563" d="M41 614q0 82 9 173.5t32.5 199t75 177t125.5 69.5q76 0 137 -88l16 59q12 33 37 33q14 0 22.5 -9t8.5 -20q0 -12 -4 -28l-37 -127q59 -189 59 -439q0 -82 -9 -173t-32.5 -199.5t-75 -178t-122.5 -69.5q-78 0 -129 74l-15 -43q-12 -29 -37 -29q-12 0 -21 9t-9 20 q0 14 4 30l33 99q-68 184 -68 460zM109 614q-1 -201 34 -344l244 781q-41 102 -104 102q-53 0 -91 -63.5t-54.5 -162t-22.5 -174t-6 -139.5zM184 160q45 -86 99 -86q51 0 89 64.5t54 161.5t22.5 174t6.5 140q0 166 -33 316q-39 -127 -119 -385t-119 -385z" />
<glyph unicode="&#xf9;" horiz-adv-x="585" d="M41 201v999q0 14 1 20.5t11 13.5t29 7q27 0 33 -10t6 -31v-999q0 -51 34.5 -87t84.5 -36q53 0 116 57v1065q0 41 39 41q41 0 41 -41v-985q47 43 70 43q14 0 26.5 -12.5t12 -29t-14.5 -30.5q-33 -29 -94 -88v-57q0 -43 -41 -43q-35 0 -39 37q-59 -37 -114 -37 q-82 0 -141.5 59.5t-59.5 143.5zM80 1473q0 14 12.5 26t26.5 12q12 0 28 -8l240 -149q23 -14 23 -39q0 -18 -12.5 -28.5t-22.5 -10.5q-20 0 -31 8l-242 152q-23 14 -22 37z" />
<glyph unicode="&#xfa;" horiz-adv-x="585" d="M41 201v999q0 14 1 20.5t11 13.5t29 7q27 0 33 -10t6 -31v-999q0 -51 34.5 -87t84.5 -36q53 0 116 57v1065q0 41 39 41q41 0 41 -41v-985q47 43 70 43q14 0 26.5 -12.5t12 -29t-14.5 -30.5q-33 -29 -94 -88v-57q0 -43 -41 -43q-35 0 -39 37q-59 -37 -114 -37 q-82 0 -141.5 59.5t-59.5 143.5zM129 1315q0 25 23 39l239 149q17 8 29 8q14 0 26.5 -12t12.5 -26q0 -23 -23 -37l-241 -152q-10 -8 -31 -8q-10 0 -22.5 10t-12.5 29z" />
<glyph unicode="&#xfb;" horiz-adv-x="585" d="M41 201v999q0 14 1 20.5t11 13.5t29 7q27 0 33 -10t6 -31v-999q0 -51 34.5 -87t84.5 -36q53 0 116 57v1065q0 41 39 41q41 0 41 -41v-985q47 43 70 43q14 0 26.5 -12.5t12 -29t-14.5 -30.5q-33 -29 -94 -88v-57q0 -43 -41 -43q-35 0 -39 37q-59 -37 -114 -37 q-82 0 -141.5 59.5t-59.5 143.5zM78 1313q0 20 12 33l125 151q10 14 31 14q18 0 33 -14l124 -151q10 -14 11 -33q0 -12 -12.5 -24.5t-26.5 -12.5q-20 0 -35 18l-92 115l-94 -115q-14 -18 -37 -18q-16 0 -27.5 13.5t-11.5 23.5z" />
<glyph unicode="&#xfc;" horiz-adv-x="585" d="M41 201v999q0 14 1 20.5t11 13.5t29 7q27 0 33 -10t6 -31v-999q0 -51 34.5 -87t84.5 -36q53 0 116 57v1065q0 41 39 41q41 0 41 -41v-985q47 43 70 43q14 0 26.5 -12.5t12 -29t-14.5 -30.5q-33 -29 -94 -88v-57q0 -43 -41 -43q-35 0 -39 37q-59 -37 -114 -37 q-82 0 -141.5 59.5t-59.5 143.5zM117 1327q0 20 16.5 36.5t39 16.5t37.5 -15t15 -37.5t-15 -38t-37.5 -15.5t-39 15.5t-16.5 37.5zM256 1327.5q0 22.5 15.5 37.5t38 15t37.5 -16.5t15 -36.5q0 -23 -15 -38t-37.5 -15t-38 15.5t-15.5 38z" />
<glyph unicode="&#xfd;" horiz-adv-x="589" d="M41 37q0 12 2 18l223 602l-194 529q-4 8 -4 18q0 39 41 39q27 0 38 -29l162 -438l160 438q12 29 39 29q41 0 41 -39q0 -12 -4 -16l-424 -1161q-12 -29 -39 -29q-16 0 -28.5 11t-12.5 28zM174 1315q0 25 23 39l239 149q17 8 29 8q14 0 26.5 -12t12.5 -26q0 -23 -23 -37 l-241 -152q-10 -8 -31 -8q-10 0 -22.5 10t-12.5 29z" />
<glyph unicode="&#xfe;" horiz-adv-x="487" d="M41 852q0 14 12 33l74 78v233q0 43 33 43q35 0 35 -43v-162q43 33 90 33q66 0 113.5 -56.5t47.5 -144.5v-426q0 -88 -48 -143t-113 -55q-57 0 -90 30v-237q0 -41 -35 -41q-33 0 -33 41v815q-33 -37 -51 -37q-12 0 -23.5 13.5t-11.5 25.5zM195 365q68 -43 88 -43 q39 0 67.5 34.5t28.5 83.5v426q0 49 -28.5 85t-65.5 36q-33 0 -90 -61v-561z" />
<glyph unicode="&#xff;" horiz-adv-x="589" d="M41 37q0 12 2 18l223 602l-194 529q-4 8 -4 18q0 39 41 39q27 0 38 -29l162 -438l160 438q12 29 39 29q41 0 41 -39q0 -12 -4 -16l-424 -1161q-12 -29 -39 -29q-16 0 -28.5 11t-12.5 28zM197 1327q0 20 16 36.5t38.5 16.5t38 -15t15.5 -37.5t-15.5 -38t-38 -15.5 t-38.5 15.5t-16 37.5zM336 1327.5q0 22.5 15.5 37.5t37.5 15q20 0 36.5 -16.5t16.5 -36.5q0 -23 -15 -38t-37.5 -15t-38 15.5t-15.5 38z" />
<glyph unicode="&#x152;" horiz-adv-x="1431" d="M41 762q0 55 3 115.5t12.5 154.5t29.5 176t50 157t79 119t113 44q88 0 149.5 -88t88 -223.5t35.5 -236.5t9 -187q86 119 232 178q-66 43 -103 111.5t-37 144.5q0 121 89.5 211t212.5 90q63 0 144 -35t81 -86q0 -16 -10.5 -27.5t-24.5 -11.5q-16 0 -31 14q-70 68 -153 68 q-90 0 -161 -69.5t-71 -159.5q0 -78 64.5 -147.5t163.5 -69.5q59 0 59 -39q0 -41 -55 -41q-172 -2 -292 -126t-120 -296q0 -182 127 -304t301 -122q172 0 295 125q12 14 28.5 14t29 -12.5t12.5 -28.5q-1 -15 -13 -31q-147 -147 -352 -147q-147 0 -275 80t-190 219 q-74 -299 -233 -299q-63 0 -112.5 44t-79.5 118.5t-50 156.5t-29.5 176.5t-12.5 155t-3 115.5zM121 762q0 -63 7 -155.5t26.5 -223.5t64.5 -219t109 -88q45 0 83 52t59.5 130t32.5 140.5t15 109.5q14 168 14 295q0 100 -13 209.5t-36.5 208t-64.5 163t-90 64.5 q-53 0 -93 -62.5t-60.5 -147.5t-34 -190.5t-16.5 -172t-3 -113.5z" />
<glyph unicode="&#x153;" horiz-adv-x="962" d="M41 618.5q0 55.5 3 117t14.5 157.5t31 168t56 125t87.5 53q55 0 95.5 -63.5t59 -165t26.5 -183.5t8 -157q53 78 127 118q-84 78 -84 201q0 100 59.5 175t141.5 75q41 0 95 -30.5t54 -73.5q0 -41 -29 -41q-10 0 -24 14q-45 51 -92 51q-55 0 -97.5 -53t-42.5 -121 q0 -61 38 -113.5t100 -52.5q45 0 45 -39q0 -41 -43 -41q-106 -2 -181 -99t-75 -230q0 -143 78.5 -237.5t187.5 -94.5q102 0 182 94q10 10 24.5 10t25 -10t10.5 -25q-1 -12 -9 -28q-102 -123 -233 -123q-92 0 -172 57.5t-123 159.5q-47 -217 -152 -217q-51 0 -87.5 53 t-56 125t-31 168t-14.5 158.5t-3 118zM109 618.5q0 -49.5 4 -123t16 -176t39 -172t65 -69.5q51 0 79 119t34 217q0 25 4 57q6 82 6 180q0 176 -33.5 342t-89.5 166q-39 0 -66.5 -69.5t-38.5 -173t-15 -176t-4 -122z" />
<glyph unicode="&#x178;" horiz-adv-x="696" d="M41 37q0 6 4 18l279 756l-244 666q-4 12 -4 18q0 18 12 28.5t29 10.5q27 0 39 -29l211 -577l211 577q12 29 38 29q14 0 26.5 -10.5t12.5 -28.5q0 -6 -4 -18l-530 -1450q-12 -29 -39 -29q-16 0 -28.5 10t-12.5 29zM225 1620q0 20 16.5 36.5t39 16.5t38 -15.5t15.5 -38 t-15.5 -37.5t-38 -15t-39 15t-16.5 38zM365 1619.5q0 22.5 15 38t38 15.5q20 0 36.5 -15.5t16.5 -38t-15.5 -37.5t-38 -15t-37.5 15t-15 37.5z" />
<glyph unicode="&#x2c6;" horiz-adv-x="421" d="M45 1313q0 20 12 33l125 151q10 14 31 14q18 0 33 -14l125 -151q10 -14 10 -33q0 -12 -12.5 -24.5t-26.5 -12.5q-20 0 -35 18l-92 115l-94 -115q-14 -18 -37 -18q-16 0 -27.5 13.5t-11.5 23.5z" />
<glyph unicode="&#x2dc;" horiz-adv-x="428" d="M41 1315q0 39 39 61.5t76 22.5q31 0 66.5 -21.5t51.5 -21.5q25 0 43.5 20.5t32.5 20.5q16 0 28.5 -12.5t12.5 -28.5q0 -13 -6 -23q-37 -57 -109 -57q-33 0 -68.5 21.5t-49.5 21.5q-23 0 -45.5 -21.5t-34.5 -21.5q-16 0 -26.5 11t-10.5 28z" />
<glyph unicode="&#x2000;" horiz-adv-x="907" />
<glyph unicode="&#x2001;" horiz-adv-x="1815" />
<glyph unicode="&#x2002;" horiz-adv-x="907" />
<glyph unicode="&#x2003;" horiz-adv-x="1815" />
<glyph unicode="&#x2004;" horiz-adv-x="605" />
<glyph unicode="&#x2005;" horiz-adv-x="453" />
<glyph unicode="&#x2006;" horiz-adv-x="302" />
<glyph unicode="&#x2007;" horiz-adv-x="302" />
<glyph unicode="&#x2008;" horiz-adv-x="226" />
<glyph unicode="&#x2009;" horiz-adv-x="363" />
<glyph unicode="&#x200a;" horiz-adv-x="100" />
<glyph unicode="&#x2010;" horiz-adv-x="346" d="M41 766q0 41 43 41h180q41 0 41 -41q0 -14 -11.5 -26.5t-29.5 -12.5h-180q-20 0 -31.5 12.5t-11.5 26.5z" />
<glyph unicode="&#x2011;" horiz-adv-x="346" d="M41 766q0 41 43 41h180q41 0 41 -41q0 -14 -11.5 -26.5t-29.5 -12.5h-180q-20 0 -31.5 12.5t-11.5 26.5z" />
<glyph unicode="&#x2012;" horiz-adv-x="346" d="M41 766q0 41 43 41h180q41 0 41 -41q0 -14 -11.5 -26.5t-29.5 -12.5h-180q-20 0 -31.5 12.5t-11.5 26.5z" />
<glyph unicode="&#x2013;" horiz-adv-x="735" d="M41 766q0 41 43 41h569q41 0 41 -41q0 -14 -11.5 -26.5t-29.5 -12.5h-569q-20 0 -31.5 12.5t-11.5 26.5z" />
<glyph unicode="&#x2014;" horiz-adv-x="1370" d="M41 766q0 41 43 41h1204q41 0 41 -41q0 -14 -11.5 -26.5t-29.5 -12.5h-1204q-20 0 -31.5 12.5t-11.5 26.5z" />
<glyph unicode="&#x2018;" horiz-adv-x="247" d="M41 1278q0 92 51 174t90 82q25 0 25 -21q0 -8 -19.5 -30.5t-40 -62.5t-20.5 -93q33 0 56.5 -21.5t23.5 -60.5q0 -33 -22.5 -54.5t-57.5 -21.5q-41 0 -63.5 34t-22.5 75z" />
<glyph unicode="&#x2019;" horiz-adv-x="247" d="M41 1190q0 8 20.5 30.5t40 62.5t19.5 93q-33 0 -56.5 21.5t-23.5 60.5q0 33 22.5 54.5t57.5 21.5q41 0 63.5 -34t22.5 -75q0 -92 -51.5 -174t-89.5 -82q-25 0 -25 21z" />
<glyph unicode="&#x201a;" horiz-adv-x="247" d="M41 72q0 33 22.5 54t57.5 21q41 0 63.5 -33.5t22.5 -74.5q0 -92 -51.5 -174t-89.5 -82q-25 0 -25 20q0 8 20.5 31t40 63t19.5 93q-33 0 -56.5 21.5t-23.5 60.5z" />
<glyph unicode="&#x201c;" horiz-adv-x="442" d="M41 1278q0 92 51 174t90 82q25 0 25 -21q0 -8 -19.5 -30.5t-40 -62.5t-20.5 -93q33 0 56.5 -21.5t23.5 -60.5q0 -33 -22.5 -54.5t-57.5 -21.5q-41 0 -63.5 34t-22.5 75zM236 1278q0 92 51 174t90 82q25 0 24 -21q0 -8 -20.5 -30.5t-39.5 -62.5t-19 -93q33 0 56 -21.5 t23 -60.5q0 -33 -22 -54.5t-57 -21.5q-41 0 -63.5 34t-22.5 75z" />
<glyph unicode="&#x201d;" horiz-adv-x="442" d="M41 1190q0 8 20.5 30.5t40 62.5t19.5 93q-33 0 -56.5 21.5t-23.5 60.5q0 33 22.5 54.5t57.5 21.5q41 0 63.5 -34t22.5 -75q0 -92 -51.5 -174t-89.5 -82q-25 0 -25 21zM236 1190q0 8 19 30.5t39.5 62.5t20.5 93q-33 0 -56 21.5t-23 60.5q0 33 22 54.5t57 21.5 q41 0 63.5 -34t22.5 -75q0 -92 -51 -174t-90 -82q-25 0 -24 21z" />
<glyph unicode="&#x201e;" horiz-adv-x="442" d="M41 72q0 33 22.5 54t57.5 21q41 0 63.5 -33.5t22.5 -74.5q0 -92 -51.5 -174t-89.5 -82q-25 0 -25 20q0 8 20.5 31t40 63t19.5 93q-33 0 -56.5 21.5t-23.5 60.5zM236 72q0 33 22 54t57 21q41 0 63.5 -33.5t22.5 -74.5q0 -92 -51 -174t-90 -82q-25 0 -24 20q0 8 19 31 t39.5 63t20.5 93q-33 0 -56 21.5t-23 60.5z" />
<glyph unicode="&#x2022;" horiz-adv-x="544" d="M41 745.5q0 94.5 67.5 163t164 68.5t164 -68.5t67.5 -163t-67.5 -162t-164 -67.5t-164 67.5t-67.5 162z" />
<glyph unicode="&#x2026;" horiz-adv-x="804" d="M41 71.5q0 32.5 23.5 56.5t56.5 24q35 0 58.5 -24t23.5 -56.5t-23.5 -56t-58.5 -23.5q-33 0 -56.5 23.5t-23.5 56zM322 71.5q0 32.5 23.5 56.5t55.5 24q35 0 58.5 -24t23.5 -56.5t-23.5 -56t-58.5 -23.5q-33 0 -56 23.5t-23 56zM602 71.5q0 32.5 23.5 56.5t56.5 24 q35 0 58.5 -24t23.5 -56.5t-23.5 -56t-58.5 -23.5q-33 0 -56.5 23.5t-23.5 56z" />
<glyph unicode="&#x202f;" horiz-adv-x="363" />
<glyph unicode="&#x2039;" horiz-adv-x="317" d="M41 752q0 20 14 32l152 125q16 12 26.5 12.5t26.5 -16t16 -31.5q0 -10 -18 -28l-115 -92l115 -95q18 -23 18 -30q0 -11 -12 -27q-18 -20 -31 -20q-8 0 -26 14l-152 125q-14 12 -14 31z" />
<glyph unicode="&#x203a;" horiz-adv-x="317" d="M41 629q0 12 18 30l115 95l-115 92q-18 14 -18 28.5t15.5 31t27.5 16.5q10 0 27 -13l151 -125q14 -14 14 -32q0 -17 -14 -31l-151 -125q-18 -14 -27 -14q-12 0 -27.5 16t-15.5 31z" />
<glyph unicode="&#x205f;" horiz-adv-x="453" />
<glyph unicode="&#x20ac;" horiz-adv-x="792" d="M41 463q0 14 11 26.5t32 12.5h90v33h-88q-45 0 -45 40q0 14 11 26.5t32 12.5h88q0 80 17.5 172.5t52 186.5t103.5 156.5t157 62.5t168 -80v74q0 18 12 29.5t28.5 11.5t29 -11.5t12.5 -29.5v-197q0 -18 -12.5 -30.5t-28.5 -12.5q-25 0 -35 25q-78 139 -174 139 q-102 0 -173 -149.5t-81 -346.5h448q45 0 45 -41q0 -39 -43 -38h-446v-33h383q45 0 45 -41q0 -39 -43 -39h-375q12 -72 38 -142.5t80 -137t122 -66.5q49 0 91 42t70.5 83t47.5 41q16 0 28.5 -12.5t12.5 -28.5v-193q0 -43 -41 -43q-14 0 -26.5 11.5t-12.5 31.5v68 q-76 -80 -168 -80q-70 0 -129.5 43t-96 111.5t-60 136t-34.5 135.5h-98q-45 0 -45 41z" />
<glyph unicode="&#x2122;" horiz-adv-x="512" d="M40.5 1517.5q0.5 20.5 22.5 20.5h115q20 0 20 -20.5t-20 -20.5h-37v-403q0 -23 -20.5 -23t-20.5 23v403h-37q-23 0 -22.5 20.5zM199 1450q0 8 10 16l27 29v21q0 23 22 22q10 0 16 -8q14 8 31 8q27 0 47 -20q20 20 47 20q29 0 50.5 -23.5t21.5 -56.5v-364q0 -23 -20.5 -23 t-20.5 23v364q0 16 -9 27.5t-22 11.5q-8 0 -26 -18q4 -12 4 -21v-364q0 -23 -23 -23q-20 0 -20 23v364q0 39 -29 39q-8 0 -22 -14l-7 -4v-385q0 -23 -20 -23t-20 23v342q-4 -2 -13 -2q-25 0 -24 16z" />
<glyph unicode="&#x25fc;" horiz-adv-x="1239" d="M0 0v1239h1239v-1239h-1239z" />
</font>
</defs>
</svg>
