<?xml version="1.0" standalone="no"?>
<!DOCTYPE svg PUBLIC "-//W3C//DTD SVG 1.1//EN" "http://www.w3.org/Graphics/SVG/1.1/DTD/svg11.dtd" >
<svg xmlns="http://www.w3.org/2000/svg">
<metadata></metadata>
<defs>
<font id="tanglewood_tales_nfregular" horiz-adv-x="1480" >
<font-face units-per-em="2048" ascent="1587" descent="-461" />
<missing-glyph horiz-adv-x="512" />
<glyph horiz-adv-x="0" />
<glyph unicode="&#xd;" horiz-adv-x="681" />
<glyph unicode=" "  horiz-adv-x="512" />
<glyph unicode="&#x09;" horiz-adv-x="512" />
<glyph unicode="&#xa0;" horiz-adv-x="512" />
<glyph unicode="!" horiz-adv-x="446" d="M74 1413q0 68 45 113t104 45q57 0 103.5 -46t46.5 -112l-76 -989q-4 -35 -24.5 -58.5t-49 -23.5t-49 23.5t-24.5 58.5zM90 129q0 66 40 112t93 46t92 -46t39 -112t-39 -112t-92 -46t-93 47.5t-40 110.5z" />
<glyph unicode="&#x22;" horiz-adv-x="684" d="M74 1440q0 57 38 94t87 37q47 0 86 -38t39 -93l-64 -297q-2 -29 -19.5 -48.5t-41.5 -19.5q-23 0 -41.5 20.5t-20.5 47.5zM360 1440q0 57 38 94t87 37q47 0 86 -38t39 -93l-63 -297q-2 -29 -19.5 -48.5t-42.5 -19.5q-23 0 -41 20.5t-20 47.5z" />
<glyph unicode="#" horiz-adv-x="761" d="M74 821v111h104l27 176h-131v111h147l41 262h111l-41 -262h145l41 262h111l-41 -262h100v-111h-117l-26 -176h143v-111h-160l-39 -262h-110l39 262h-146l-39 -262h-110l39 262h-88zM289 932h145l27 176h-146z" />
<glyph unicode="$" horiz-adv-x="1189" d="M74 311q0 80 50 150.5t126 70.5q53 0 86 -18t47 -57t19.5 -74t5.5 -94q-39 45 -89 45q-53 0 -53 -60q0 -61 88 -94t174 -37v523q-188 51 -313 168.5t-125 295.5q0 174 130 284t308 114v92h103v-92q94 -4 183 -31t162 -93.5t73 -162.5q0 -76 -45.5 -133t-118.5 -57 q-84 0 -117 56t-33 163q49 -57 90 -58q45 0 45 56q0 41 -48 69.5t-96 38.5t-95 13v-445q209 -51 347 -180t138 -330q0 -184 -139 -296.5t-346 -133.5v-147h-103v147q-102 6 -197 34t-176 99.5t-81 173.5zM303 1182q0 -154 225 -213v420q-86 -4 -155.5 -64.5t-69.5 -142.5z M631 141q6 2 20 2q90 8 158 81t68 163q0 180 -246 252v-498z" />
<glyph unicode="%" horiz-adv-x="1386" d="M74 1092q0 154 85 283.5t212 129.5t212 -129.5t85 -283.5q0 -152 -84 -257.5t-213 -105.5t-213 105.5t-84 257.5zM188 0l873 1507h156l-863 -1507h-166zM221 1116.5q0 -100.5 38 -210t111.5 -109.5t111.5 109.5t38 210t-38 210t-111.5 109.5t-111.5 -109.5t-38 -210z M719 354q0 154 85 284t212 130t212 -130t85 -284q0 -152 -84 -257t-213 -105t-213 105.5t-84 256.5zM866 379q0 -100 38 -210t112 -110t111.5 110t37.5 210t-37.5 209.5t-111.5 109.5t-112 -109.5t-38 -209.5z" />
<glyph unicode="&#x26;" horiz-adv-x="1937" d="M74 995q0 252 299.5 416t713.5 164q109 0 211.5 -14.5t207 -52.5t182 -96t127 -152.5t49.5 -215.5q0 -119 -41 -234.5t-119 -219t-137.5 -169t-145.5 -147.5q86 -76 142 -75q10 0 19 7t18.5 22.5t14.5 26.5t15 33.5t12 28.5l107 -77q-4 -10 -19.5 -48t-19.5 -49.5 t-19.5 -43t-23.5 -43t-25.5 -34t-34 -31.5t-38 -21.5t-47 -16.5t-56.5 -4q-127 0 -280 153q-233 -137 -426 -137q-80 0 -150.5 17.5t-140.5 57.5t-111 122t-41 196q0 299 490 551q0 174 88 318.5t219 144.5q80 0 130 -64.5t50 -150.5q0 -43 -12 -81t-25.5 -62.5t-45 -53 t-47 -41t-57.5 -40t-54 -35.5q96 -256 264 -461q125 100 227.5 260t102.5 322q0 213 -162 328.5t-430 115.5q-188 0 -366.5 -54.5t-285 -136t-106.5 -159.5q0 -147 156 -197q-96 -86 -205 -86q-74 0 -124 54.5t-50 164.5zM586 416q0 -131 78.5 -203t177.5 -72q91 0 243 84 q-172 244 -251 520q-53 -29 -88 -52t-76 -63t-62.5 -94.5t-21.5 -119.5zM1010 1036q0 -23 2 -35q114 70 114 156q0 43 -30 43q-39 0 -62.5 -53t-23.5 -111z" />
<glyph unicode="'" horiz-adv-x="397" d="M74 1440q0 57 38 94t87 37q47 0 86 -38t39 -93q-1 -6 -64 -297q-2 -29 -19.5 -48.5t-41.5 -19.5q-23 0 -41.5 20.5t-20.5 47.5q-63 291 -63 297z" />
<glyph unicode="(" horiz-adv-x="862" d="M74 629q0 170 45 327.5t130 288.5t225 218t314 104v-127q-109 -49 -189.5 -140.5t-123.5 -205t-63.5 -228t-20.5 -237.5t20.5 -238t63.5 -228.5t123.5 -204.5t189.5 -142v-127q-231 23 -397 166t-241.5 343.5t-75.5 430.5z" />
<glyph unicode=")" horiz-adv-x="862" d="M74 -184q109 51 189.5 142t123.5 204.5t63.5 228.5t20.5 238t-20.5 237.5t-63.5 228t-124 205t-189 140.5v127q174 -16 314 -103.5t225 -218.5t130 -288.5t45 -327.5q0 -229 -75.5 -430t-241.5 -344t-397 -166v127z" />
<glyph unicode="*" horiz-adv-x="800" d="M74 1182l32 133l236 -84v270h115v-268l237 84l33 -133l-227 -80l139 -211l-90 -86l-148 223l-149 -225l-90 88l139 209z" />
<glyph unicode="+" horiz-adv-x="706" d="M74 635v168h194v196h168v-196h197v-168h-195v-195l-168 -2v197h-196z" />
<glyph unicode="," horiz-adv-x="413" d="M74 129q0 66 39 112t92 46q59 0 97 -56.5t38 -128.5q0 -109 -48 -190.5t-132 -87.5l-39 137h26q20 0 35 14q-47 10 -77.5 53.5t-30.5 100.5z" />
<glyph unicode="-" horiz-adv-x="491" d="M74 737v168h344v-168h-344z" />
<glyph unicode="." horiz-adv-x="413" d="M74 129q0 66 40 112t93 46t93 -46t40 -112t-39 -112t-92 -46t-94 47.5t-41 110.5z" />
<glyph unicode="/" horiz-adv-x="733" d="M74 -219l413 1790h172l-413 -1790h-172z" />
<glyph unicode="0" horiz-adv-x="1191" d="M74 709q0 201 63.5 393t186 323t272 131t272.5 -131t186.5 -323t63.5 -393q0 -309 -148.5 -525.5t-373.5 -216.5t-373.5 216t-148.5 526zM328 762q0 -170 28.5 -315.5t91 -243t148.5 -97.5t147.5 97.5t90 243t28.5 315.5t-28.5 315.5t-90 242.5t-147.5 97t-148.5 -97 t-91 -242.5t-28.5 -315.5z" />
<glyph unicode="1" horiz-adv-x="727" d="M74 1352l409 202v-1398l170 63v-219h-573v219l166 -61v999q0 61 -156 62z" />
<glyph unicode="2" horiz-adv-x="1236" d="M74 0q25 102 64.5 188t94 154t95.5 107.5t100 91.5l367 311q117 98 116 250q0 139 -91 222t-195 83q-39 0 -81 -8t-90 -27.5t-78 -62.5t-30 -105q0 -53 34 -81.5t85 -28.5q49 0 95 29.5t67 82.5q2 -10 16 -49t20.5 -65.5t6.5 -53.5q0 -106 -71 -157.5t-155 -51.5 q-106 0 -195 81t-89 218q0 96 35.5 173t89 123t124 78t135 43t126.5 11q78 0 160.5 -28.5t158.5 -81.5t125 -147.5t49 -211.5q0 -113 -47 -204.5t-118.5 -153t-168 -123t-185.5 -107.5t-177 -111.5t-139 -133.5h557q104 0 184 115l84 -82l-111 -287h-968z" />
<glyph unicode="3" horiz-adv-x="1212" d="M74 334q0 125 74.5 194.5t166.5 69.5q68 0 119 -44t51 -130q0 -55 -53 -113q-78 41 -119 41q-31 0 -55.5 -19.5t-24.5 -58.5q0 -59 61.5 -100t128 -54.5t128.5 -13.5q119 0 214 112t95 271q0 143 -81 236.5t-187 93.5q-88 0 -150 -26l-43 122l414 367h-364 q-104 0 -163 -28.5t-139 -100.5l-55 121q47 41 94 90t111.5 119.5t91.5 99.5l33 -59h686q6 -41 22 -127l-477 -422q80 -8 161 -39t155.5 -86t122 -149.5t47.5 -211.5q0 -223 -175.5 -372.5t-412.5 -149.5q-72 0 -146.5 16.5t-152.5 54.5t-128 114.5t-50 181.5z" />
<glyph unicode="4" horiz-adv-x="1218" d="M74 426v201l686 897h215v-881h151v-217h-151v-270l170 63v-219h-574v219l168 -63v270h-665zM231 643h508v662z" />
<glyph unicode="5" horiz-adv-x="1189" d="M74 348q0 123 76.5 195.5t171.5 72.5q70 0 122 -44t52 -134q0 -55 -54 -112q-74 45 -116 45q-78 0 -78 -66q0 -92 74.5 -138t185.5 -46q121 0 226.5 132t105.5 292q0 162 -93.5 268.5t-211.5 106.5q-166 0 -318 -138l-45 99l242 657h581l29 84l92 -59l-72 -205 q-25 -66 -79 -66h-529l-98 -268q113 53 231 53q225 0 386 -155.5t161 -395.5q-4 -104 -45 -195t-103.5 -153.5t-139 -107.5t-152.5 -66.5t-146 -21.5q-80 0 -154.5 17t-145 57t-113.5 115t-43 177z" />
<glyph unicode="6" horiz-adv-x="1226" d="M74 717q0 367 189.5 604.5t453.5 237.5q49 0 104.5 -12.5t121 -41t107.5 -91t42 -150.5q0 -90 -61.5 -151.5t-151.5 -61.5q-80 0 -129.5 59t-49.5 160q0 16 5 53q10 -23 49 -43t73 -20q25 0 44.5 13t19.5 38q0 47 -65.5 72.5t-123.5 25.5q-348 0 -352 -522q131 92 295 92 q113 0 225.5 -52.5t197.5 -172t85 -281.5q0 -125 -51 -226.5t-131 -159.5t-166 -89t-166 -31q-240 0 -402.5 212t-162.5 538zM360 514q0 -162 88.5 -285t202.5 -123q104 0 173 91.5t69 230.5q0 82 -32 173t-103.5 163t-161.5 72q-102 0 -169 -93.5t-67 -228.5z" />
<glyph unicode="7" horiz-adv-x="1191" d="M74 1274l297 309l35 -59h712v-97q-39 -82 -132 -273t-138 -284q-231 -455 -244 -870h-360q66 223 154.5 405.5t230.5 413.5l284 463h-479q-82 0 -150.5 -23.5t-148.5 -97.5z" />
<glyph unicode="8" horiz-adv-x="1198" d="M74 406q0 227 268 415q-182 133 -182 328q0 176 133 291.5t311 115.5q182 0 322.5 -94t140.5 -268q0 -182 -176 -326q109 -68 171 -176t62 -235q0 -201 -148.5 -345.5t-361.5 -144.5q-131 0 -251.5 49.5t-204.5 152.5t-84 237zM303 414q0 -127 82 -210t207 -83 q123 0 205 75.5t82 198.5q0 49 -20.5 94.5t-48.5 75t-76 61t-80.5 48t-89 43t-77.5 37.5q-82 -47 -133 -144.5t-51 -195.5zM373 1212q0 -61 47 -112t110 -78l226 -94q116 117 116 250q0 106 -73.5 166.5t-180.5 60.5q-96 0 -170.5 -50t-74.5 -143z" />
<glyph unicode="9" horiz-adv-x="1224" d="M74 1038q0 123 51 224.5t130 161t166 90t167 30.5q240 0 401.5 -211.5t161.5 -537.5q0 -358 -188.5 -600t-452.5 -242q-49 0 -104.5 11t-121 40t-107.5 92.5t-42 151.5q0 90 61.5 151.5t151.5 61.5q80 0 130 -57.5t50 -157.5q0 -14 -4 -51q-12 23 -51 40t-76 17 q-25 0 -44 -13.5t-19 -37.5q0 -47 66.5 -73t123.5 -26q184 0 267 143.5t86 379.5q-131 -92 -295 -93q-113 0 -225.5 52.5t-197.5 172.5t-85 281zM334 1081q0 -162 90 -283.5t207 -121.5q100 0 167.5 93t67.5 228q0 80 -30.5 171.5t-100 164t-160.5 72.5q-104 0 -172.5 -92 t-68.5 -232z" />
<glyph unicode=":" horiz-adv-x="413" d="M74 129q0 66 40 112t93 46t93 -46t40 -112t-39 -112t-92 -46t-94 47.5t-41 110.5zM74 600q0 66 40 112t93 46t93 -46t40 -111.5t-39 -112t-92 -46.5t-94 47.5t-41 110.5z" />
<glyph unicode=";" horiz-adv-x="430" d="M74 129q0 66 39 112t92 46q59 0 97 -56.5t38 -128.5q0 -109 -48 -190.5t-132 -87.5l-39 137h26q20 0 35 14q-47 10 -77.5 53.5t-30.5 100.5zM92 600q0 66 40 112t93.5 46t92 -46t38.5 -111.5t-38.5 -112t-92 -46.5t-93.5 47.5t-40 110.5z" />
<glyph unicode="&#x3c;" horiz-adv-x="739" d="M74 655v111l592 418v-185l-410 -284l410 -262v-179z" />
<glyph unicode="=" horiz-adv-x="706" d="M74 492v167h559v-167h-559zM74 778v168h559v-168h-559z" />
<glyph unicode="&#x3e;" horiz-adv-x="739" d="M74 274v179l409 262l-409 284v185l592 -418v-111z" />
<glyph unicode="?" horiz-adv-x="1019" d="M74 1237q0 88 41 156.5t106.5 107.5t135 58.5t135.5 19.5q178 0 316 -108.5t138 -313.5q0 -80 -23.5 -148.5t-75.5 -131t-90 -97.5t-110 -94q-92 -74 -119 -111q-49 -72 -49 -182q0 -31 2 -45l-108 -35q-27 72 -27 152q0 90 34 171t81 140.5t94 116.5t81 125.5t34 140.5 q0 119 -76 193.5t-174 74.5q-27 0 -58.5 -7t-66.5 -34.5t-35 -72.5q0 -41 29.5 -60.5t66.5 -19.5q27 0 107 33q16 -115 16 -123q0 -70 -49 -120t-119 -50q-102 0 -169.5 71.5t-67.5 192.5zM299 129q0 66 39 112t92 46t93 -46t40 -112q0 -63 -40 -110.5t-93 -47.5t-92 46 t-39 112z" />
<glyph unicode="@" horiz-adv-x="1556" d="M74 727q0 326 238.5 554t564.5 228q258 0 432 -157.5t174 -413.5q0 -227 -129 -394t-279 -167q-121 0 -198 119q-133 -113 -230 -113q-72 0 -121 57.5t-49 134.5q0 176 127 339t295 163q86 0 168 -119l33 29l61 -43l-117 -371q-2 -6 -2 -36q0 -68 45 -68q68 0 155 123 t87 258q0 229 -155.5 366.5t-385.5 137.5q-244 0 -403.5 -173t-159.5 -417q0 -170 98.5 -312.5t251 -220t318.5 -77.5q195 -1 340 73l35 -51q-248 -170 -529 -170q-289 0 -477 212t-188 509zM641 643q0 -33 24.5 -69.5t59.5 -36.5q86 0 160 98q84 113 84 225q0 45 -24.5 86 t-72.5 41q-70 0 -147 -106q-84 -119 -84 -238z" />
<glyph unicode="A" horiz-adv-x="1554" d="M74 -2v219l164 -80l419 1209l-159 -56v219h600v-219l-156 56l408 -1182l131 53v-219h-516v219l131 -53l-92 258h-558l-102 -285l166 80v-219h-436zM494 561h460l-233 664z" />
<glyph unicode="B" horiz-adv-x="1308" d="M74 0v219l145 -69v1210l-145 -70v219h497q76 0 158 -19.5t164 -60t135 -119.5t53 -184q0 -78 -40 -151.5t-105 -106.5q121 -59 210 -164.5t89 -259.5q0 -113 -44 -196.5t-107.5 -129.5t-149.5 -74t-152.5 -36t-136.5 -8h-571zM453 207q0 -68 53 -68h108q74 0 151 32 t138.5 110.5t61.5 189.5q-4 164 -123 252t-250 88h-78v137h107q74 0 150.5 46t76.5 132q0 82 -52.5 139.5t-117 81t-127.5 23.5h-98v-1163z" />
<glyph unicode="C" horiz-adv-x="1232" d="M74 729q0 178 57 331.5t149.5 254t206 158t230.5 57.5q27 0 76 -10.5t90 -10.5q63 0 135 31l141 -393l-78 -70q-84 143 -167 228.5t-189 85.5q-164 0 -270.5 -195t-106.5 -438q0 -256 123 -434.5t299 -178.5q178 0 279 166l86 -75q-70 -127 -164 -191.5t-250 -64.5 q-117 0 -229.5 49t-207 140t-152.5 237.5t-58 322.5z" />
<glyph unicode="D" horiz-adv-x="1382" d="M74 0v217l168 -80v1233l-168 -80v219h397q139 0 282.5 -52t269.5 -151.5t206 -265t80 -370.5q0 -133 -41 -247t-107.5 -189.5t-151.5 -130t-171 -79t-170 -24.5h-594zM475 178q0 -39 113 -39q184 0 313 144.5t129 371.5q0 287 -136 483.5t-419 221.5v-1182z" />
<glyph unicode="E" horiz-adv-x="1357" d="M74 0v219l164 -80v1231l-164 -80v219h833l49 60l209 -344l-69 -95q-170 240 -461 240h-111q-23 0 -39 -12t-16 -29v-373h199q74 0 145 111l195 -322l-70 -94q-127 168 -322 168h-147v-680h283q281 0 460 240l72 -94l-207 -346l-47 61h-956z" />
<glyph unicode="F" horiz-adv-x="1249" d="M74 0v219l159 -61v1194l-159 -62v219h844l49 60l209 -344l-70 -95q-172 240 -461 240h-125q-55 0 -55 -70v-344h213q35 0 64.5 19.5t42 35t38.5 56.5l195 -322l-70 -94q-125 168 -321 168h-162v-659l153 59v-219h-544z" />
<glyph unicode="G" horiz-adv-x="1400" d="M74 764q0 188 83 361t240.5 287t354.5 114q57 0 129 -10q31 -6 61 -7q61 0 133 31l148 -403l-80 -74q-150 313 -395 313q-113 0 -197 -58t-128 -152.5t-64.5 -195t-20.5 -206.5q0 -152 58.5 -292t180 -236.5t281.5 -96.5h35q53 0 53 68v348q0 27 -13 47.5t-40 20.5h-94 v139h528v-139h-94q-53 0 -53 -68v-348q0 -68 53 -68h94v-139h-575q-188 0 -346 108.5t-245 283.5t-87 372z" />
<glyph unicode="H" horiz-adv-x="1564" d="M74 0v219l159 -61v1194l-159 -62v219h544v-219l-153 60v-435h639v437l-160 -62v219h547v-219l-156 60v-1190l156 59v-219h-547v219l160 -61v618h-639v-616l153 59v-219h-544z" />
<glyph unicode="I" horiz-adv-x="694" d="M74 0v219l157 -61v1192l-157 -60v219h547v-219l-158 60v-1192l158 61v-219h-547z" />
<glyph unicode="J" horiz-adv-x="1097" d="M74 338q0 135 71.5 218t169.5 83q68 0 122.5 -43t54.5 -133q0 -39 -14.5 -71t-28 -45t-41.5 -40q-47 57 -74 64q-10 4 -23 4q-35 0 -61.5 -22.5t-26.5 -71.5q0 -80 64.5 -122t128.5 -42q98 0 158.5 76.5t60.5 216.5v940l-156 -60v219h545v-219l-156 60v-867 q0 -258 -120.5 -387t-305.5 -129q-80 0 -160.5 36t-144 124t-63.5 211z" />
<glyph unicode="K" horiz-adv-x="1564" d="M74 0v219l153 -61v1192l-153 -60v219h542v-219l-155 60v-484l526 477l-137 -53v219h543v-219l-197 76l-262 -231l377 -977l180 61v-219h-586v219l137 -53l-305 788l-276 -249v-547l155 61v-219h-542z" />
<glyph unicode="L" horiz-adv-x="1273" d="M74 1290v219h547v-219l-156 60v-1211h205q289 0 460 240l70 -94l-205 -344l-49 59h-862v139h94q55 0 55 82v1131z" />
<glyph unicode="M" horiz-adv-x="1841" d="M74 0v219l166 -82l79 1215l-126 -62v219h489v-219l-107 41l351 -940l336 959l-158 -60v219h545v-219l-144 56l97 -1190l165 63v-219h-544v219l147 -57l-78 971l-393 -1133h-74l-422 1139l-69 -1004l174 84v-219h-434z" />
<glyph unicode="N" horiz-adv-x="1441" d="M74 0v219l168 -82v1229l-166 -76v219h366l662 -981v844l-170 -82v219h434v-219l-168 82v-1392h-96v94l-770 1149v-1088l172 84v-219h-432z" />
<glyph unicode="O" d="M74 723q0 180 60.5 334.5t156.5 256t214 159t234.5 57.5t234.5 -57.5t215 -159t157.5 -256t60.5 -334.5q0 -162 -38 -291t-101.5 -212t-150.5 -138t-180 -78.5t-198 -23.5q-131 0 -244.5 38.5t-211 121.5t-153.5 232.5t-56 350.5zM342 754q0 -291 100.5 -464t297 -173 t297 173t100.5 464q0 270 -107.5 453.5t-290 183.5t-290 -183.5t-107.5 -453.5z" />
<glyph unicode="P" horiz-adv-x="1333" d="M74 0v219l159 -63v1196l-159 -62v219h536q68 0 148 -16t170 -56t162.5 -96.5t121 -147.5t48.5 -202q0 -193 -170 -326t-420 -133h-138v138h127q117 0 225.5 82t108.5 233q0 100 -44 179t-111.5 122t-134 63.5t-123.5 20.5h-33q-80 0 -80 -70v-1140l149 59v-219h-542z" />
<glyph unicode="Q" d="M74 723q0 139 47 280.5t129 259t211 192.5t278 75q190 0 347 -122t239 -306t82 -379q0 -436 -266 -627q37 -63 98 -63q47 0 80 43l76 -80l-76 -246q-143 0 -224 65.5t-145 190.5q-96 -26 -203 -26h-8q-328 0 -496.5 203.5t-168.5 539.5zM342 754q0 -111 16.5 -211.5 t57.5 -201.5t124 -162.5t199 -61.5q72 0 133 26q-68 98 -178 99q-47 0 -80 -25l-51 117q75 65 167 65h3q141 0 268 -157q136 166 136 512q0 100 -19.5 202.5t-62.5 205t-125 166t-190.5 63.5t-190.5 -63.5t-125 -166t-62.5 -205t-19.5 -202.5z" />
<glyph unicode="R" horiz-adv-x="1499" d="M74 0v219l157 -61v1194l-157 -62v219h534q68 0 148 -16t170 -56t162.5 -96.5t120.5 -147.5t48 -202q0 -123 -72.5 -225t-199.5 -164l258 -448l182 65v-219h-594v219l113 -41l-201 357q-25 -2 -75 -3h-140v138h129q117 0 225.5 82t108.5 233q0 100 -44 179t-111.5 122 t-134 63.5t-123.5 20.5h-33q-39 0 -59.5 -13.5t-20.5 -56.5v-1140l153 59v-219h-544z" />
<glyph unicode="S" horiz-adv-x="1366" d="M74 377l63 102q354 -362 602 -362q70 0 134.5 21.5t117.5 89t53 173.5q0 172 -174 261q-74 37 -226 97t-230 101q-76 39 -128.5 119t-52.5 190q0 96 42 171t108 115t131.5 59.5t122.5 19.5q96 0 166 -21q57 -16 88 -16q20 0 96 33l207 -373l-61 -86q-12 12 -52.5 54 t-55.5 57.5t-53 50.5t-59.5 50t-59.5 40t-68.5 35t-70.5 18t-81 8q-78 0 -134.5 -46t-56.5 -97q0 -23 12.5 -44t38 -40.5t51 -36t63.5 -34t63.5 -28.5t63.5 -25.5t50 -20.5q10 -4 67.5 -27.5t83.5 -36t81 -42t84.5 -53.5t71.5 -66t63.5 -83.5t39 -101t17.5 -125.5 q0 -137 -47 -240.5t-125 -160t-162 -83t-172 -26.5q-213 0 -329 51q-18 8 -41 9q-43 0 -107 -45z" />
<glyph unicode="T" d="M74 1221l174 348l55 -60h871l57 60l176 -348l-72 -91q-172 240 -483 240v-1212l158 61v-219h-547v219l158 -61v1212q-305 0 -474 -240z" />
<glyph unicode="U" horiz-adv-x="1449" d="M74 1290v219h544v-219l-151 60l-25 -1010q0 -70 65.5 -123t135.5 -75.5t115 -22.5q354 0 354 284v969l-170 -82v219h434v-219l-168 82v-969q0 -102 -28.5 -180t-72.5 -123t-105.5 -73.5t-120 -37.5t-121.5 -9q-555 0 -555 428v16l28 928z" />
<glyph unicode="V" horiz-adv-x="1699" d="M74 1290v219h571v-219l-149 56l450 -1133l420 1159l-158 -82v219h418v-219l-153 76l-469 -1294l28 -72h-260l-534 1352z" />
<glyph unicode="W" horiz-adv-x="2400" d="M74 1290v219h577v-219l-141 51l451 -1128l198 555l-231 588l-176 -66v219h577v-219l-141 51l450 -1128l416 1161l-180 -84v219h453v-219l-166 78l-467 -1296l30 -72h-262l-245 625l-199 -553l29 -72h-263l-534 1354z" />
<glyph unicode="X" horiz-adv-x="1566" d="M74 0v219l166 -76l428 578l-439 620l-141 -51v219h578v-219l-142 51l293 -411l326 436l-166 -74v219h465v-219l-160 74l-395 -535l467 -663l139 51v-219h-578v219l138 -51l-318 455l-350 -473l152 69v-219h-463z" />
<glyph unicode="Y" horiz-adv-x="1558" d="M74 1290v219h563v-219l-139 53l368 -636l326 653l-143 -70v219h436v-219l-168 82l-402 -803v-413l166 63v-219h-563v219l164 -61v393l-455 797z" />
<glyph unicode="Z" horiz-adv-x="1472" d="M74 0l915 1372h-43q-190 0 -342 -67q-154 -70 -244 -189l-71 92l180 348q109 -45 221 -45h709l-910 -1374h23q209 0 437.5 61.5t342.5 198.5l68 -98l-199 -342q-121 43 -241 43h-846z" />
<glyph unicode="[" horiz-adv-x="428" d="M74 -236v1743h280v-86h-104v-1571h104v-86h-280z" />
<glyph unicode="\" horiz-adv-x="733" d="M74 1571h174l411 -1790h-170z" />
<glyph unicode="]" horiz-adv-x="430" d="M74 -150h104v1571h-104v86h282v-1743h-282v86z" />
<glyph unicode="^" horiz-adv-x="1056" d="M74 950l418 592h110l381 -592h-178l-262 410l-285 -410h-184z" />
<glyph unicode="_" horiz-adv-x="1024" d="M0 -4h1024v-107h-1024v107z" />
<glyph unicode="`" horiz-adv-x="628" d="M37 1276h311l221 -277h-145z" />
<glyph unicode="a" horiz-adv-x="1087" d="M74 285q0 137 100 232t240 95q43 0 90 -10l26 -160q-31 6 -61 7q-63 0 -106.5 -51.5t-43.5 -114.5q0 -66 42 -117t106 -51q109 0 164 90q-23 139 -64 418q-12 76 -40.5 111.5t-96.5 35.5q-84 0 -172 -104l-90 67q127 209 342 209q115 0 186.5 -61.5t85.5 -173.5l74 -517 q6 -25 35 -24q23 0 37 20l86 -88q-23 -55 -74 -90t-109 -35q-106 0 -159 90q-128 -108 -254 -108h-2q-141 0 -241.5 95t-100.5 235z" />
<glyph unicode="b" horiz-adv-x="1087" d="M74 1427l313 119v-690q107 100 238 100q178 0 283.5 -156.5t105.5 -353.5q0 -213 -121 -346t-291 -133q-121 0 -240 68l-116 -68h-76v1276q0 23 -8 34t-17.5 13t-29.5 2h-27zM387 299q29 -78 82 -130t113 -52q96 0 143 100t47 239.5t-48 246t-142 106.5 q-59 0 -111.5 -55.5t-83.5 -135.5v-319z" />
<glyph unicode="c" horiz-adv-x="962" d="M74 436q0 227 146.5 373.5t318.5 146.5q160 0 307 -127l-105 -241l-92 43q0 6 1 15t1 13q0 76 -36.5 112t-92.5 36q-106 0 -162.5 -83t-56.5 -204q0 -145 75 -259t197 -114q137 0 230 183l84 -76q-76 -160 -169 -223.5t-237 -63.5q-172 0 -290.5 136.5t-118.5 332.5z" />
<glyph unicode="d" horiz-adv-x="1124" d="M74 463q0 213 121.5 353t281.5 140q121 0 215 -75v362q0 23 -8 34t-17.5 13t-29.5 2h-29l-12 135l313 119v-1388l142 61v-219l-359 -39v84q-98 -78 -215 -78q-166 0 -284.5 136.5t-118.5 359.5zM309 512q0 -154 57.5 -253t155.5 -99q117 0 170 88v403q-68 158 -221 158 q-80 0 -121 -91t-41 -206z" />
<glyph unicode="e" horiz-adv-x="1034" d="M74 479q0 193 130 335t312 142q186 0 292.5 -119.5t137.5 -324.5l-622 -90q31 -127 111.5 -199.5t174.5 -72.5q162 0 271 192l80 -82q-154 -293 -414 -293q-193 0 -333 152.5t-140 359.5zM315 559l369 55q-8 94 -61.5 148.5t-120.5 54.5q-76 0 -130.5 -67.5t-56.5 -190.5 z" />
<glyph unicode="f" horiz-adv-x="819" d="M74 809v137h172q-2 25 -10.5 92.5t-8.5 104.5q0 182 82 293.5t213 111.5q90 0 156.5 -70.5t66.5 -162.5q0 -72 -44 -119t-101 -47q-49 0 -84 40t-35 89q0 41 17 84q14 -20 39 -21q37 0 41 27q0 49 -51.5 49t-91.5 -35.5t-40 -93.5q0 -53 30 -163.5t34 -178.5h254v-137 h-250v-649l139 59v-219h-489v219l133 -57v647h-172z" />
<glyph unicode="g" horiz-adv-x="919" d="M74 -102q0 61 31.5 119.5t93.5 58.5q49 0 49 -53q0 -20 -15.5 -61.5t-15.5 -59.5q0 -88 74 -138.5t166 -50.5q74 0 123 44t49 118q0 84 -40 133t-99.5 63.5t-128 27t-128 22.5t-99.5 49t-40 109q0 106 107 174q-127 84 -127 221q0 117 99 200.5t241 83.5q63 0 118 -18 l101 225l213 -135l-166 -180q74 -80 74 -176q0 -117 -100.5 -201t-239.5 -84q-16 0 -54 4q-14 -2 -30.5 -14t-16.5 -29q0 -35 53.5 -51t129 -29.5t151.5 -39t129 -98.5t53 -187q0 -145 -115.5 -245.5t-262.5 -100.5q-162 0 -269.5 71.5t-107.5 227.5zM285 673.5 q0 -63.5 37.5 -108.5t91.5 -45q51 0 89 45t38 108.5t-38 108.5t-89 45q-53 0 -91 -45t-38 -108.5z" />
<glyph unicode="h" horiz-adv-x="1216" d="M74 0v219l137 -59v1083q0 27 -21.5 38t-35.5 11h-27l-16 135l313 119v-710q112 118 238 118h2q106 0 196 -81.5t105 -247.5l41 -465l137 59v-219h-490v219l138 -59l-35 389q-10 117 -57.5 164t-104.5 47q-59 0 -114.5 -43t-55.5 -117v-442l141 61v-219h-491z" />
<glyph unicode="i" horiz-adv-x="638" d="M74 0v219l135 -57v553q0 23 -39 22q-10 0 -26.5 -2t-18.5 -2l-16 137l315 119v-831l141 61v-219h-491zM143 1178q0 51 40 86.5t97.5 35.5t98.5 -35.5t41 -86.5q0 -49 -40 -85t-97.5 -36t-98.5 35.5t-41 85.5z" />
<glyph unicode="j" horiz-adv-x="458" d="M6 -160l96 37q8 -18 33 -22q33 0 33 39v792q0 23 -8 34t-18.5 13t-30.5 2h-27l-14 135l315 119v-1104q0 -94 -60.5 -148t-131.5 -54q-61 0 -117 42t-70 115zM100 1178q0 51 40 86.5t97.5 35.5t97.5 -35.5t40 -86.5q0 -49 -40 -85t-97.5 -36t-97.5 35.5t-40 85.5z" />
<glyph unicode="k" horiz-adv-x="1257" d="M74 0v219l137 -59v1097q0 18 -21.5 26.5t-33.5 8.5h-29l-14 135l313 119v-1063l319 275q12 12 13 26q0 25 -27 25h-51v137h434v-137h-70q-51 0 -161 -100l-101 -88l262 -459l140 57v-219h-510v219l110 -45l-180 297l-178 -152v-159l139 59v-219h-491z" />
<glyph unicode="l" horiz-adv-x="638" d="M74 0v219l129 -55v1108q0 23 -43 22q-10 0 -24.5 -1t-16.5 -1l-15 135l314 119v-1390l147 63v-219h-491z" />
<glyph unicode="m" horiz-adv-x="1757" d="M74 0v219l137 -59v524q0 29 -61 29h-23l-14 135l313 119v-142q121 129 279 129q168 0 227 -141q47 61 118.5 102t145.5 41q104 0 190.5 -72.5t100.5 -224.5l49 -503l147 63v-219h-491v219l127 -55l-41 420q-16 176 -162 176q-68 0 -116 -51.5t-48 -139.5v-409l138 59 v-219h-492v219l137 -59v401q0 84 -22.5 131t-46 57.5t-58.5 10.5q-68 0 -121 -48t-61 -128v-424l139 59v-219h-491z" />
<glyph unicode="n" horiz-adv-x="1222" d="M74 0v219l141 -61v508q0 27 -21.5 38t-35.5 11h-27l-16 135l315 119v-133q103 118 236 118h2q106 0 196 -81.5t105 -247.5l41 -465l139 59v-219h-490v219l136 -59l-35 389q-10 117 -57.5 164t-104.5 47t-112.5 -43t-55.5 -117v-440l135 59v-219h-491z" />
<glyph unicode="o" horiz-adv-x="1083" d="M74 489q0 217 141 342t307 125q199 0 343.5 -148.5t144.5 -371.5q0 -199 -131 -334t-336 -135q-186 0 -327.5 136.5t-141.5 385.5zM315 569q0 -145 85 -298.5t206 -153.5q78 0 116 65t38 174q0 154 -86 303.5t-203 149.5q-80 0 -118 -68.5t-38 -171.5z" />
<glyph unicode="p" horiz-adv-x="1105" d="M74 -125l139 -59v852q0 18 -13.5 30.5t-23.5 14.5t-18 2h-29l-12 135l313 119v-88q97 77 210 77h3q162 0 275.5 -143t113.5 -360q0 -225 -118.5 -355.5t-295.5 -130.5q-94 0 -188 41v-192l133 57v-219h-489v219zM430 244q70 -125 168 -125q96 0 144.5 100t48.5 239.5 t-48.5 245t-144.5 105.5t-168 -133v-432z" />
<glyph unicode="q" horiz-adv-x="1114" d="M74 471q0 225 118.5 356t292.5 131q121 0 232 -63l188 76v-1153l135 57v-219h-489v219l137 -59v243q-100 -90 -225 -90q-162 0 -275.5 143.5t-113.5 358.5zM315 469q0 -139 48.5 -244.5t142.5 -105.5q53 0 103 46t79 114v376q-31 68 -80 111t-102 43q-96 0 -143.5 -100.5 t-47.5 -239.5z" />
<glyph unicode="r" horiz-adv-x="958" d="M74 0v219l131 -57v506q0 18 -13.5 30.5t-23.5 14.5t-18 2h-27l-12 135l313 119v-174q116 163 293 163h2h2q49 0 164 -38l-92 -283l-97 12q-6 37 -26.5 61.5t-46.5 24.5q-63 0 -131 -88t-68 -190v-299l139 61v-219h-489z" />
<glyph unicode="s" horiz-adv-x="940" d="M74 338l71 90q10 -14 67.5 -88t89.5 -109.5t89.5 -73.5t112.5 -38q47 0 97 29.5t50 87.5q0 25 -12 46t-35.5 37.5t-42 27.5t-47.5 23.5t-35 16.5q-8 4 -44 21.5t-47 22.5t-44 22.5t-45 26.5t-40 28.5t-39 34t-28.5 36t-25.5 42t-14.5 46t-6.5 52.5q0 125 90.5 182 t190.5 57q27 0 81 -8t79 -8q39 0 84 23l151 -283l-65 -84q-199 217 -340 217q-27 0 -44.5 -12t-17.5 -31q0 -25 33 -49q20 -16 111.5 -63.5t165 -91.5t138 -129t64.5 -183q0 -145 -95 -216t-212 -71q-35 0 -104.5 20.5t-102.5 20.5q-8 0 -17 -5t-16.5 -11t-16.5 -14.5 t-11 -10.5q-74 123 -217 369z" />
<glyph unicode="t" horiz-adv-x="659" d="M74 870q78 14 137 80q55 61 86 168l98 -26v-220h166v-139h-166v-510q0 -53 16.5 -69.5t57.5 -16.5q66 0 90 27l27 -146q-70 -51 -160 -51q-100 0 -173 53.5t-73 180.5v530h-96z" />
<glyph unicode="u" horiz-adv-x="1114" d="M74 850l313 119v-701q0 -51 37 -79.5t78 -28.5q195 0 194 190v316q0 18 -14 30.5t-24.5 14.5t-18.5 2h-27l-12 137l313 119v-805l127 55v-219h-344v74q-109 -109 -247 -109q-104 0 -191.5 66.5t-87.5 193.5v439q0 27 -21.5 38t-35.5 11h-27z" />
<glyph unicode="v" horiz-adv-x="1212" d="M74 729v217h504v-217l-107 43l199 -477l209 510l-148 -76v217h408v-217l-144 74l-331 -803h-101l-332 793z" />
<glyph unicode="w" horiz-adv-x="1701" d="M74 729v217h489v-217l-102 43l198 -477l138 332l-62 155l-125 -53v217h490v-217l-135 57l200 -491l207 500l-141 -66v217h397v-217l-139 66l-330 -795h-102l-201 487l-203 -487h-102l-330 791z" />
<glyph unicode="x" horiz-adv-x="1241" d="M74 0v219l168 -78l258 303l-277 338l-143 -53v217h551v-217l-111 41l123 -152l137 168l-129 -57v217h469v-217l-172 76l-229 -279l301 -362l147 55v-219h-577v219l139 -51l-154 184l-163 -192l129 59v-219h-467z" />
<glyph unicode="y" horiz-adv-x="1222" d="M74 729v217h506v-217l-113 45l197 -479l210 508l-155 -74v217h430v-217l-158 76l-370 -903q-94 -225 -273 -226q-88 0 -186 80v236h88q31 -49 63.5 -68.5t87.5 -19.5q63 0 97 26.5t51 85.5l-318 777z" />
<glyph unicode="z" horiz-adv-x="1026" d="M74 121l565 688q-276 -6 -434 -191l-76 93l150 272q92 -37 182 -37h457l34 -121l-559 -686q297 6 471 191l74 -97l-164 -268q-104 35 -201 35h-462z" />
<glyph unicode="{" horiz-adv-x="722" d="M74 590v90q141 14 173 69.5t32 219.5v200q0 109 12 168.5t51 103.5t111.5 59.5t195.5 15.5v-72q-109 -2 -141.5 -58.5t-32.5 -203.5q0 -109 1 -193t1 -88q0 -121 -31.5 -179t-136.5 -87q104 -31 136 -88.5t32 -177.5q0 -4 -1 -87t-1 -194q0 -147 33 -203.5t141 -58.5v-70 q-125 0 -195.5 15.5t-110.5 58.5t-52 102.5t-12 167.5v201q0 164 -32 219t-173 70z" />
<glyph unicode="|" horiz-adv-x="315" d="M74 -385v1982h168v-1982h-168z" />
<glyph unicode="}" horiz-adv-x="722" d="M74 -174q109 2 141.5 58.5t32.5 203.5q0 111 -1 194t-1 87q0 121 31.5 178t136.5 88q-104 29 -136 87t-32 179q0 4 1 88t1 193q0 147 -33 203.5t-141 58.5v72q123 0 195.5 -15.5t111.5 -59.5t51 -103.5t12 -168.5v-200q0 -164 32 -219.5t173 -69.5v-90 q-141 -14 -173 -69.5t-32 -219.5v-201q0 -109 -12 -168t-52 -102t-110.5 -58.5t-195.5 -15.5v70z" />
<glyph unicode="~" horiz-adv-x="1196" d="M74 610v207q174 98 317 98q94 0 215 -36q16 -4 55 -16.5t60.5 -18.5t55.5 -12.5t63 -6.5q127 0 282 105v-207q-152 -92 -286 -92q-74 0 -207 39q-160 49 -258 49q-121 0 -297 -109z" />
<glyph unicode="&#xa1;" horiz-adv-x="446" d="M74 -365l76 990q4 35 24.5 58.5t49 23.5t49 -24t24.5 -58l76 -990q0 -68 -45 -112.5t-105 -44.5q-57 0 -103 45.5t-46 111.5zM92 919.5q0 65.5 39 111.5t92 46t93 -47t40 -110q0 -66 -40 -112t-93 -46t-92 46t-39 111.5z" />
<glyph unicode="&#xa2;" horiz-adv-x="935" d="M74 717q0 195 109.5 332t258.5 178v231h103v-219q152 0 301 -127l-103 -244l-94 45q2 12 2 33q0 125 -106 144v-662q174 0 233 125l84 -76q-96 -201 -317 -225v-211h-103v211q-158 16 -263 149.5t-105 315.5zM309 807q0 -111 35 -202t98 -138v606q-61 -29 -97 -99.5 t-36 -166.5z" />
<glyph unicode="&#xa3;" horiz-adv-x="1177" d="M74 205q0 92 61.5 154.5t153.5 62.5q51 0 149 -47q8 57 8 84q0 115 -77 274h-224v139h156q-59 125 -59 242q0 172 121.5 293t293.5 121q68 0 134.5 -26.5t89.5 -26.5q12 0 25.5 8t29.5 23.5t22 19.5l132 -309l-84 -89q-76 123 -154 193t-190 70q-80 0 -130.5 -70 t-50.5 -152q0 -31 13.5 -75.5t24.5 -72.5t38 -83t31 -66h268v-139h-223q16 -76 16 -143q0 -158 -51 -283q102 -39 188 -39q68 0 122.5 32t81 63.5t73.5 101.5q10 14 14 20q27 -180 27 -209q0 -129 -71.5 -210.5t-196.5 -81.5q-166 0 -342 145q-104 -137 -205 -137 q-90 0 -152.5 61.5t-62.5 151.5zM176 205q0 -29 28.5 -49.5t59.5 -20.5q66 0 117 84q-59 43 -115 43q-90 0 -90 -57z" />
<glyph unicode="&#xa4;" horiz-adv-x="1355" d="M74 580l57 139h113v84h-158l57 139h115q45 270 208 432t380 162q27 0 74 -10t73 -10q63 0 142 30l147 -393l-82 -70q-51 84 -73.5 116t-71.5 91.5t-97.5 84t-105.5 24.5q-133 0 -208 -130t-97 -327h631l-58 -139h-583q-2 -14 -2 -43q0 -27 2 -41h548l-57 -139h-481 q23 -197 97.5 -327t207.5 -130q45 0 89 20.5t75 46t69.5 76.5t57 81t57.5 91l82 -69q-6 -23 -147 -394q-74 31 -142 31q-27 0 -74 -10t-73 -10q-217 0 -380 161.5t-208 432.5h-184z" />
<glyph unicode="&#xa5;" horiz-adv-x="1558" d="M74 1290v219h563v-219l-139 53l368 -636l326 653l-143 -70v219h436v-219l-168 82l-215 -430h272v-139h-342l-43 -84h385v-139h-454l-5 -11v-413l166 63v-219h-563v219l164 -61v393l-16 29h-480v139h400l-49 84h-351v139h273l-232 406z" />
<glyph unicode="&#xa6;" horiz-adv-x="327" d="M74 -401v962h180v-962h-180zM74 674v962h180v-962h-180z" />
<glyph unicode="&#xa7;" horiz-adv-x="4444" d="M55 0v1536h262v-1536h-262zM561 565q25 -98 71 -185t110.5 -160t146.5 -129t174 -91h575q92 35 174 91t146.5 129t111 160t70.5 185h-250q-31 -82 -84 -151.5t-123.5 -119.5t-155.5 -78t-177.5 -28t-176 28t-154.5 78t-124 119.5t-84 151.5h-250zM561 604v314h195v-62 h-115v-68h102v-65h-104v-119h-78zM561 958h252q31 82 83 152t123 120t154.5 77.5t176 27.5t177.5 -27.5t155.5 -77.5t123 -120t82.5 -152h252q-25 102 -75 193.5t-120.5 166.5t-157.5 130t-185 88h-502q-98 -33 -185.5 -88t-158 -130t-120.5 -166t-75 -194zM1174 745.5 q0 -57.5 25.5 -90t55.5 -49.5q37 -20 84 -24q49 4 88 24q35 16 63 51t28 100.5t-26 100.5t-56 51q-37 21 -80 25q-29 0 -60.5 -8t-58.5 -28.5t-45 -57.5t-18 -94.5zM1253 752q0 31 9.5 51t23.5 32.5t31.5 16.5t32.5 4q23 -2 43 -12q16 -10 30.5 -30.5t14.5 -55.5 q0 -37 -15.5 -56.5t-33.5 -29.5q-23 -11 -48 -13q-25 4 -45 15q-16 10 -29.5 27.5t-13.5 50.5zM2060 604v314h90l146 -209v209h78v-314h-72l-166 213v-213h-76zM2306 565q49 -197 183 -345t321 -220h575q186 72 319.5 220.5t182.5 344.5h-252q-31 -82 -83 -151.5 t-122.5 -119.5t-155.5 -78t-177.5 -28t-177.5 28t-155.5 78t-122.5 119.5t-83 151.5h-252zM2306 958h252q31 82 83 152t122.5 120t155.5 77.5t177.5 27.5t177.5 -27.5t155.5 -77.5t122.5 -120t83 -152h252q-25 102 -75 193.5t-120.5 166.5t-157.5 130t-188 88h-499 q-100 -33 -187.5 -88t-158 -130t-120.5 -166t-75 -194zM2984 842v76h235v-78h-65v-236h-105v238h-65zM3656 827q0 27 12 45.5t31.5 29.5t44 15.5t47.5 4.5q49 0 80 -13l-6 -63q-29 14 -68 14q-16 0 -35.5 -4t-19.5 -25q0 -18 22.5 -25t50 -16.5t50 -27t22.5 -60.5 q0 -59 -41 -79.5t-94 -20.5q-23 0 -47.5 2t-46.5 10l8 68q16 -8 37.5 -14t48.5 -6q20 0 35.5 6t15.5 24q0 20 -23.5 28.5t-51 18t-50 27.5t-22.5 61zM4137 0v1536h250v-1536h-250z" />
<glyph unicode="&#xa8;" horiz-adv-x="718" d="M106 1116q0 47 33 79t78 32t78 -32t33 -79t-33 -78.5t-78 -31.5t-78 31.5t-33 78.5zM383 1116q0 47 31.5 79t79 32t79 -32t31.5 -79t-31.5 -78.5t-79 -31.5t-79 31.5t-31.5 78.5z" />
<glyph unicode="&#xa9;" horiz-adv-x="1662" d="M74 718.5q0 315.5 222 538t538 222.5q313 0 534 -223.5t221 -536.5t-222 -535.5t-536 -222.5q-315 0 -536 221t-221 536.5zM197 719q0 -264 185 -448.5t449 -184.5q260 0 446.5 186.5t186.5 446.5q0 262 -185 448.5t-448 186.5q-264 0 -449 -185.5t-185 -449.5zM383 713 q0 190 127 315t321 125q86 0 161 -33t77 -33q37 0 51 62h54v-336h-52q-68 270 -262 270q-209 0 -209 -358q0 -182 58.5 -277.5t169.5 -95.5q145 0 262 176l55 -34q-133 -221 -367 -222q-193 0 -319.5 126t-126.5 315z" />
<glyph unicode="&#xaa;" horiz-adv-x="710" d="M74 1110q0 84 59.5 140.5t142.5 56.5q27 0 56 -7l14 -94q-12 2 -37 2q-37 0 -62.5 -29.5t-25.5 -68.5t24.5 -69.5t63.5 -30.5q61 0 97 53l-37 250q-6 45 -23.5 67.5t-58.5 22.5q-10 0 -18.5 -2t-17.5 -6t-15.5 -7.5t-15.5 -11.5t-12 -11l-13.5 -13.5l-12.5 -12.5l-53 41 q78 125 207 125q68 0 110.5 -36.5t51.5 -104.5l45 -309q2 -14 20 -15q16 0 23 13l51 -54q-31 -76 -111 -75q-61 0 -96 55q-76 -66 -154 -66q-84 0 -143 56.5t-59 140.5zM78 766v113h559v-113h-559z" />
<glyph unicode="&#xab;" horiz-adv-x="917" d="M74 715l358 469l105 -101l-224 -368l224 -369l-105 -100zM381 715l358 469l105 -101l-223 -368l223 -369l-105 -100z" />
<glyph unicode="&#xac;" horiz-adv-x="706" d="M74 594v168h559v-303h-168v135h-391z" />
<glyph unicode="&#xad;" horiz-adv-x="491" d="M74 737v168h344v-168h-344z" />
<glyph unicode="&#xae;" horiz-adv-x="905" d="M74 1153q0 154 110 268q109 109 269 109q164 0 276 -119q102 -106 102 -258q0 -127 -71 -225q-111 -156 -307 -156q-117 0 -209 62q-170 113 -170 319zM135 1153q0 -137 94 -227q98 -92 224 -92q131 0 223 92q94 98 94 227q0 135 -94 225q-92 92 -223 92q-135 0 -226 -96 q-92 -96 -92 -221zM262 950v33q45 0 45 41v264q0 23 -9 31t-36 12v31h205q76 0 121 -28.5t45 -69.5q0 -88 -137 -109q115 -12 114 -117v-26q0 -27 19 -27q25 0 24 66h31v-17q0 -94 -96 -94q-33 0 -51.5 6t-27.5 27.5t-10 33t-5 52.5q-4 45 -18.5 65.5t-49.5 20.5v-121 q0 -20 7 -28.5t30 -12.5v-33h-201zM426 1176q6 2 16 2q72 0 72 82q0 72 -57 71q-31 0 -31 -26v-129z" />
<glyph unicode="&#xaf;" horiz-adv-x="501" d="M74 999v127h354v-127h-354z" />
<glyph unicode="&#xb0;" horiz-adv-x="524" d="M74 1345.5q0 77.5 55 133t133 55.5t133.5 -55.5t55.5 -133t-55.5 -133t-133.5 -55.5t-133 55.5t-55 133zM131 1345.5q0 -53.5 39 -92.5t92 -39t92 39t39 92.5t-39 92.5t-92 39t-92 -39t-39 -92.5z" />
<glyph unicode="&#xb1;" horiz-adv-x="706" d="M74 0v168h559v-168h-559zM74 635v168h194v196h168v-196h197v-168h-195v-195l-168 -2v197h-196z" />
<glyph unicode="&#xb2;" horiz-adv-x="690" d="M74 766q14 68 48 124t60.5 83.5t67.5 62.5l184 156q57 47 58 125q0 68 -46.5 109.5t-97.5 41.5q-49 0 -94 -21.5t-45 -78.5q0 -49 59 -49q37 0 82 49q20 -68 21 -84q0 -53 -36 -78.5t-77 -25.5q-53 0 -97 40t-44 109q0 113 81 164t173 51q88 0 166.5 -61t78.5 -174 q0 -82 -50 -143.5t-113.5 -93.5t-139 -80t-112.5 -99h278q53 0 92 57l41 -41l-55 -143h-483z" />
<glyph unicode="&#xb3;" horiz-adv-x="679" d="M74 958q0 61 38 96.5t83 35.5q33 0 59.5 -21.5t26.5 -64.5q0 -27 -27 -58q-39 20 -59 21q-41 0 -41 -39q0 -43 32.5 -67.5t81.5 -24.5q76 0 137.5 52t61.5 142q0 72 -40 118t-93 46q-47 0 -76 -12l-20 61l206 182h-182q-53 0 -81.5 -14t-69.5 -49l-27 59q25 23 147 156 l17 -31h344q2 -16 10 -63l-237 -211q92 -8 166.5 -71.5t74.5 -180.5q0 -121 -91 -190.5t-208 -69.5q-98 0 -165.5 51t-67.5 147z" />
<glyph unicode="&#xb4;" horiz-adv-x="628" d="M74 999l221 277h311l-387 -277h-145z" />
<glyph unicode="&#xb6;" horiz-adv-x="1150" d="M74 1161q0 156 105.5 252t283.5 96h614v-141h-100v-1542h-203v1542h-139v-1542h-203v989q-164 8 -261 103.5t-97 242.5z" />
<glyph unicode="&#xb7;" horiz-adv-x="411" d="M74 723q0 66 40 112t93 46t92 -46.5t39 -112t-39 -111.5t-92 -46t-93 47t-40 111z" />
<glyph unicode="&#xb8;" horiz-adv-x="700" d="M125 -262l37 69q88 -61 162 -61q80 0 79 43q0 33 -70.5 55.5t-129.5 22.5l121 178h118l-71 -98q80 -14 123 -62.5t43 -105.5q0 -70 -46.5 -104.5t-119.5 -34.5q-68 0 -135.5 26.5t-110.5 71.5z" />
<glyph unicode="&#xb9;" horiz-adv-x="436" d="M74 1448l205 100v-698l83 31v-109h-286v109l84 -31v500q0 31 -78 30z" />
<glyph unicode="&#xba;" horiz-adv-x="706" d="M74 1235q0 129 84 202.5t184 73.5q121 0 206 -88t85 -223q0 -119 -78 -200.5t-201 -81.5q-113 0 -196.5 81.5t-83.5 235.5zM78 766v113h559v-113h-559zM217 1278q0 -86 50 -178t124 -92q47 0 69.5 42t22.5 103q0 82 -49 176t-125 94q-47 0 -69.5 -42t-22.5 -103z" />
<glyph unicode="&#xbb;" horiz-adv-x="917" d="M74 346l223 369l-223 368l104 101l359 -469l-359 -469zM381 346l223 369l-223 368l104 101l359 -469l-359 -469z" />
<glyph unicode="&#xbc;" horiz-adv-x="1452" d="M74 1380l258 127v-880l108 39v-138h-362v138l104 -39v630q0 39 -98 39zM211 0l872 1507h156l-862 -1507h-166zM705 268v125l432 565h135v-555h96v-135h-96v-170l106 39v-137h-360v137l104 -39v170h-417zM803 403h319v418z" />
<glyph unicode="&#xbd;" horiz-adv-x="1617" d="M74 1382l258 127v-880l106 39v-138h-360v138l104 -39v631q0 39 -98 38zM209 0l872 1507h156l-862 -1507h-166zM858 0q20 84 63.5 155.5t75 105.5t84.5 79l232 197q72 61 71 157q0 88 -56 139.5t-124 51.5q-66 0 -120 -31t-54 -94q0 -59 82 -64q41 0 94 64q27 -76 27 -107 q0 -68 -44 -99.5t-97 -31.5q-68 0 -123.5 50.5t-55.5 138.5q0 74 33 130t84 83.5t103.5 41t101.5 13.5q111 0 210 -77t99 -218t-106 -229q-41 -33 -174 -113q-190 -109 -244 -182h350q63 0 117 71l51 -51l-70 -180h-610z" />
<glyph unicode="&#xbe;" horiz-adv-x="1589" d="M74 766q0 76 47 121t104 45q43 0 76 -29t33 -82q0 -33 -35 -71q-47 27 -76 26q-18 0 -33.5 -12t-15.5 -37q0 -59 47 -94t115 -35q92 0 162.5 64.5t70.5 183.5q0 92 -51 151.5t-119 59.5q-55 0 -94 -19l-26 78l260 232h-230q-45 0 -80.5 -12.5t-54 -26t-53.5 -43.5l-35 77 q23 18 186 195l21 -39h432l14 -80l-301 -264q115 -10 211 -88t96 -217q0 -154 -119.5 -247t-269.5 -93q-121 0 -201.5 65.5t-80.5 190.5zM381 0l872 1507h156l-862 -1507h-166zM842 268v125l432 565h135v-555h96v-135h-96v-170l107 39v-137h-361v137l105 -39v170h-418z M940 403h320v418z" />
<glyph unicode="&#xbf;" horiz-adv-x="1019" d="M74 -59q0 80 23.5 148.5t75.5 131t90 97t110 94.5q6 4 24.5 19t25.5 21.5t23.5 20.5t22.5 22.5t18.5 25t18.5 27.5t14 29.5t11.5 37t6.5 41t3 46.5q0 8 -1 23.5t-1 24.5l108 34q27 -72 27 -153q0 -90 -34 -170t-81 -140.5t-94 -118t-81 -125t-34 -138.5q0 -119 76 -195 t172 -76q27 0 59.5 7.5t67.5 36t35 73.5q0 41 -30 60.5t-66 19.5q-27 0 -107 -33q-16 86 -16 123q0 70 49 120t119 50q102 0 169.5 -72.5t67.5 -193.5q0 -86 -41 -155t-106.5 -107.5t-135 -58t-135.5 -19.5q-178 0 -316 108.5t-138 313.5zM457 969q0 63 40 110t93 47t92 -46 t39 -111.5t-39 -111.5t-92 -46t-93 46t-40 112z" />
<glyph unicode="&#xc0;" horiz-adv-x="1554" d="M74 -2v219l164 -80l419 1209l-159 -56v219h600v-219l-156 56l408 -1182l131 53v-219h-516v219l131 -53l-92 258h-558l-102 -285l166 80v-219h-436zM414 1839h311l221 -276h-145zM494 561h460l-233 664z" />
<glyph unicode="&#xc1;" horiz-adv-x="1554" d="M74 -2v219l164 -80l419 1209l-159 -56v219h600v-219l-156 56l408 -1182l131 53v-219h-516v219l131 -53l-92 258h-558l-102 -285l166 80v-219h-436zM494 561h460l-233 664zM635 1563l221 276h311l-387 -276h-145z" />
<glyph unicode="&#xc2;" horiz-adv-x="1554" d="M74 -2v219l164 -80l419 1209l-159 -56v219h600v-219l-156 56l408 -1182l131 53v-219h-516v219l131 -53l-92 258h-558l-102 -285l166 80v-219h-436zM473 1563l221 276h162l223 -276h-133l-168 90l-160 -90h-145zM494 561h460l-233 664z" />
<glyph unicode="&#xc3;" horiz-adv-x="1554" d="M74 -2v219l164 -80l419 1209l-159 -56v219h600v-219l-156 56l408 -1182l131 53v-219h-516v219l131 -53l-92 258h-558l-102 -285l166 80v-219h-436zM467 1569q6 236 192 235q39 0 122 -28.5t124 -28.5q66 0 66 72h114q0 -106 -50 -177t-142 -71q-37 0 -74 9t-94 29.5 t-72 24.5q-16 4 -24 4q-49 0 -49 -69h-113zM494 561h460l-233 664z" />
<glyph unicode="&#xc4;" horiz-adv-x="1554" d="M74 -2v219l164 -80l419 1209l-159 -56v219h600v-219l-156 56l408 -1182l131 53v-219h-516v219l131 -53l-92 258h-558l-102 -285l166 80v-219h-436zM494 561h460l-233 664zM524 1679q0 45 33 78t78 33t77.5 -33t32.5 -78t-32.5 -77.5t-77.5 -32.5t-78 32.5t-33 77.5z M801 1679q0 45 31.5 78t78.5 33t79 -33t32 -78t-32 -77.5t-79 -32.5t-78.5 32.5t-31.5 77.5z" />
<glyph unicode="&#xc5;" horiz-adv-x="1554" d="M74 -2v219l164 -80l419 1209l-159 -56v219h600v-219l-156 56l408 -1182l131 53v-219h-516v219l131 -53l-92 258h-558l-102 -285l166 80v-219h-436zM494 561h460l-233 664zM561 1694q0 90 66.5 155.5t159 65.5t158 -65.5t65.5 -155.5q0 -94 -65.5 -159t-158 -65t-159 66 t-66.5 158zM680 1694q0 -45 31.5 -78t74.5 -33q45 0 76 32t31 79q0 43 -31 73.5t-76 30.5q-43 0 -74.5 -30.5t-31.5 -73.5z" />
<glyph unicode="&#xc6;" horiz-adv-x="2170" d="M74 0v219l164 -78l778 1250l-289 -101v219h997l50 60l204 -344l-67 -95q-170 240 -461 240h-111q-23 0 -38 -12t-15 -29v-373h199q68 0 108 58l37 53l193 -322l-70 -94q-127 168 -321 168h-146v-680h283q281 0 461 240l67 -94l-205 -346l-49 61h-936v139h92q10 0 20.5 4 t22 20.5t11.5 43.5v612h-267l-430 -680l168 80v-219h-450zM874 956h179v283z" />
<glyph unicode="&#xc7;" horiz-adv-x="1232" d="M74 729q0 178 57 331.5t149.5 254t206 158t230.5 57.5q27 0 76 -10.5t90 -10.5q63 0 135 31l141 -393l-78 -70q-84 143 -167 228.5t-189 85.5q-164 0 -270.5 -195t-106.5 -438q0 -256 123 -434.5t299 -178.5q178 0 279 166l86 -75q-70 -127 -164 -191.5t-250 -64.5 q-117 0 -229.5 49t-207 140t-152.5 237.5t-58 322.5zM414 -274l37 69q88 -61 161 -61q80 0 80 43q0 33 -70.5 55.5t-129.5 22.5l120 178h119l-72 -99q80 -14 123 -62t43 -105q0 -70 -46 -105t-120 -35q-68 0 -135 27t-110 72z" />
<glyph unicode="&#xc8;" horiz-adv-x="1357" d="M74 0v219l164 -80v1231l-164 -80v219h833l49 60l209 -344l-69 -95q-170 240 -461 240h-111q-23 0 -39 -12t-16 -29v-373h199q74 0 145 111l195 -322l-70 -94q-127 168 -322 168h-147v-680h283q281 0 460 240l72 -94l-207 -346l-47 61h-956zM215 1839h311l222 -276h-146z " />
<glyph unicode="&#xc9;" horiz-adv-x="1357" d="M74 0v219l164 -80v1231l-164 -80v219h833l49 60l209 -344l-69 -95q-170 240 -461 240h-111q-23 0 -39 -12t-16 -29v-373h199q74 0 145 111l195 -322l-70 -94q-127 168 -322 168h-147v-680h283q281 0 460 240l72 -94l-207 -346l-47 61h-956zM438 1563l221 276h312 l-387 -276h-146z" />
<glyph unicode="&#xca;" horiz-adv-x="1357" d="M74 0v219l164 -80v1231l-164 -80v219h833l49 60l209 -344l-69 -95q-170 240 -461 240h-111q-23 0 -39 -12t-16 -29v-373h199q74 0 145 111l195 -322l-70 -94q-127 168 -322 168h-147v-680h283q281 0 460 240l72 -94l-207 -346l-47 61h-956zM289 1563l221 276h162 l223 -276h-133l-168 90l-160 -90h-145z" />
<glyph unicode="&#xcb;" horiz-adv-x="1357" d="M74 0v219l164 -80v1231l-164 -80v219h833l49 60l209 -344l-69 -95q-170 240 -461 240h-111q-23 0 -39 -12t-16 -29v-373h199q74 0 145 111l195 -322l-70 -94q-127 168 -322 168h-147v-680h283q281 0 460 240l72 -94l-207 -346l-47 61h-956zM367 1679q0 45 31.5 78 t78.5 33t79 -33t32 -78t-32 -77.5t-79 -32.5t-78.5 32.5t-31.5 77.5zM643 1679q0 45 33 78t78 33t77.5 -33t32.5 -78t-32.5 -77.5t-77.5 -32.5t-78 32.5t-33 77.5z" />
<glyph unicode="&#xcc;" horiz-adv-x="694" d="M-55 1839h311l221 -276h-145zM74 0v219l157 -61v1192l-157 -60v219h547v-219l-158 60v-1192l158 61v-219h-547z" />
<glyph unicode="&#xcd;" horiz-adv-x="694" d="M74 0v219l157 -61v1192l-157 -60v219h547v-219l-158 60v-1192l158 61v-219h-547zM186 1563l222 276h311l-387 -276h-146z" />
<glyph unicode="&#xce;" horiz-adv-x="694" d="M45 1563l221 276h162l223 -276h-133l-168 90l-160 -90h-145zM74 0v219l157 -61v1192l-157 -60v219h547v-219l-158 60v-1192l158 61v-219h-547z" />
<glyph unicode="&#xcf;" horiz-adv-x="694" d="M74 0v219l157 -61v1192l-157 -60v219h547v-219l-158 60v-1192l158 61v-219h-547zM94 1679q0 45 33 78t78 33t77.5 -33t32.5 -78t-32.5 -77.5t-77.5 -32.5t-78 32.5t-33 77.5zM371 1679q0 45 31.5 78t78.5 33t79 -33t32 -78t-32 -77.5t-79 -32.5t-78.5 32.5t-31.5 77.5z " />
<glyph unicode="&#xd0;" horiz-adv-x="1390" d="M74 635v168h176v567l-166 -80v219h397q111 0 224.5 -31.5t224 -100t196.5 -165t138.5 -237.5t52.5 -305q0 -133 -41 -247t-107.5 -189.5t-151.5 -130t-171 -79t-170 -24.5h-592v217l166 -80v498h-176zM483 178q0 -39 113 -39q184 0 314 144.5t130 371.5q0 287 -137 483.5 t-420 221.5v-557h160v-168h-160v-457z" />
<glyph unicode="&#xd1;" horiz-adv-x="1441" d="M74 0v219l168 -82v1229l-166 -76v219h366l662 -981v844l-170 -82v219h434v-219l-168 82v-1392h-96v94l-770 1149v-1088l172 84v-219h-432zM412 1569q6 236 192 235q39 0 122 -28.5t124 -28.5q66 0 65 72h115q0 -106 -50 -177t-142 -71q-37 0 -74 9t-94.5 29.5t-71.5 24.5 q-16 4 -25 4q-49 0 -49 -69h-112z" />
<glyph unicode="&#xd2;" d="M74 723q0 180 60.5 334.5t156.5 256t214 159t234.5 57.5t234.5 -57.5t215 -159t157.5 -256t60.5 -334.5q0 -162 -38 -291t-101.5 -212t-150.5 -138t-180 -78.5t-198 -23.5q-131 0 -244.5 38.5t-211 121.5t-153.5 232.5t-56 350.5zM342 754q0 -291 100.5 -464t297 -173 t297 173t100.5 464q0 270 -107.5 453.5t-290 183.5t-290 -183.5t-107.5 -453.5zM463 1839h311l221 -276h-145z" />
<glyph unicode="&#xd3;" d="M74 723q0 180 60.5 334.5t156.5 256t214 159t234.5 57.5t234.5 -57.5t215 -159t157.5 -256t60.5 -334.5q0 -162 -38 -291t-101.5 -212t-150.5 -138t-180 -78.5t-198 -23.5q-131 0 -244.5 38.5t-211 121.5t-153.5 232.5t-56 350.5zM342 754q0 -291 100.5 -464t297 -173 t297 173t100.5 464q0 270 -107.5 453.5t-290 183.5t-290 -183.5t-107.5 -453.5zM557 1563l221 276h312l-388 -276h-145z" />
<glyph unicode="&#xd4;" d="M74 723q0 180 60.5 334.5t156.5 256t214 159t234.5 57.5t234.5 -57.5t215 -159t157.5 -256t60.5 -334.5q0 -162 -38 -291t-101.5 -212t-150.5 -138t-180 -78.5t-198 -23.5q-131 0 -244.5 38.5t-211 121.5t-153.5 232.5t-56 350.5zM342 754q0 -291 100.5 -464t297 -173 t297 173t100.5 464q0 270 -107.5 453.5t-290 183.5t-290 -183.5t-107.5 -453.5zM436 1563l221 276h162l223 -276h-133l-168 90l-159 -90h-146z" />
<glyph unicode="&#xd5;" d="M74 723q0 180 60.5 334.5t156.5 256t214 159t234.5 57.5t234.5 -57.5t215 -159t157.5 -256t60.5 -334.5q0 -162 -38 -291t-101.5 -212t-150.5 -138t-180 -78.5t-198 -23.5q-131 0 -244.5 38.5t-211 121.5t-153.5 232.5t-56 350.5zM342 754q0 -291 100.5 -464t297 -173 t297 173t100.5 464q0 270 -107.5 453.5t-290 183.5t-290 -183.5t-107.5 -453.5zM430 1569q6 236 193 235q39 0 121.5 -28.5t123.5 -28.5q66 0 66 72h115q0 -106 -50.5 -177t-142.5 -71q-37 0 -74 9t-94 29.5t-72 24.5q-16 4 -24 4q-49 0 -49 -69h-113z" />
<glyph unicode="&#xd6;" d="M74 723q0 180 60.5 334.5t156.5 256t214 159t234.5 57.5t234.5 -57.5t215 -159t157.5 -256t60.5 -334.5q0 -162 -38 -291t-101.5 -212t-150.5 -138t-180 -78.5t-198 -23.5q-131 0 -244.5 38.5t-211 121.5t-153.5 232.5t-56 350.5zM342 754q0 -291 100.5 -464t297 -173 t297 173t100.5 464q0 270 -107.5 453.5t-290 183.5t-290 -183.5t-107.5 -453.5zM487 1679q0 45 33 78t78 33t78 -33t33 -78t-33 -77.5t-78 -32.5t-78 32.5t-33 77.5zM764 1679q0 45 31.5 78t79 33t79 -33t31.5 -78t-31.5 -77.5t-79 -32.5t-79 32.5t-31.5 77.5z" />
<glyph unicode="&#xd7;" horiz-adv-x="747" d="M74 537l182 182l-182 182l119 119l180 -182l182 182l119 -119l-182 -182l182 -182l-119 -119l-182 182l-180 -182z" />
<glyph unicode="&#xd8;" d="M74 723q0 180 60.5 334.5t156.5 256t214 159t234 57.5q223 0 412 -178l127 151l84 -98l-125 -150q170 -225 170 -532q0 -162 -38 -291t-101.5 -212t-150.5 -138t-180 -78.5t-198 -23.5q-266 0 -438 145l-100 -121l-84 100l96 115q-139 188 -139 504zM342 754 q0 -186 43 -328l645 780q-109 184 -291 184.5t-289.5 -183t-107.5 -453.5zM440 295q104 -178 299 -178q197 0 297.5 173t100.5 464q0 176 -47 321z" />
<glyph unicode="&#xd9;" horiz-adv-x="1449" d="M74 1290v219h544v-219l-151 60l-25 -1010q0 -70 65.5 -123t135.5 -75.5t115 -22.5q354 0 354 284v969l-170 -82v219h434v-219l-168 82v-969q0 -102 -28.5 -180t-72.5 -123t-105.5 -73.5t-120 -37.5t-121.5 -9q-555 0 -555 428v16l28 928zM446 1839h312l221 -276h-145z " />
<glyph unicode="&#xda;" horiz-adv-x="1449" d="M74 1290v219h544v-219l-151 60l-25 -1010q0 -70 65.5 -123t135.5 -75.5t115 -22.5q354 0 354 284v969l-170 -82v219h434v-219l-168 82v-969q0 -102 -28.5 -180t-72.5 -123t-105.5 -73.5t-120 -37.5t-121.5 -9q-555 0 -555 428v16l28 928zM561 1563l221 276h312l-387 -276 h-146z" />
<glyph unicode="&#xdb;" horiz-adv-x="1449" d="M74 1290v219h544v-219l-151 60l-25 -1010q0 -70 65.5 -123t135.5 -75.5t115 -22.5q354 0 354 284v969l-170 -82v219h434v-219l-168 82v-969q0 -102 -28.5 -180t-72.5 -123t-105.5 -73.5t-120 -37.5t-121.5 -9q-555 0 -555 428v16l28 928zM422 1563l221 276h162l223 -276 h-133l-168 90l-160 -90h-145z" />
<glyph unicode="&#xdc;" horiz-adv-x="1449" d="M74 1290v219h544v-219l-151 60l-25 -1010q0 -70 65.5 -123t135.5 -75.5t115 -22.5q354 0 354 284v969l-170 -82v219h434v-219l-168 82v-969q0 -102 -28.5 -180t-72.5 -123t-105.5 -73.5t-120 -37.5t-121.5 -9q-555 0 -555 428v16l28 928zM471 1679q0 45 33 78t78 33 t77.5 -33t32.5 -78t-32.5 -77.5t-77.5 -32.5t-78 32.5t-33 77.5zM748 1679q0 45 31.5 78t78.5 33t79 -33t32 -78t-32 -77.5t-79 -32.5t-78.5 32.5t-31.5 77.5z" />
<glyph unicode="&#xdd;" horiz-adv-x="1558" d="M74 1290v219h563v-219l-139 53l368 -636l326 653l-143 -70v219h436v-219l-168 82l-402 -803v-413l166 63v-219h-563v219l164 -61v393l-455 797zM631 1563l221 276h311l-387 -276h-145z" />
<glyph unicode="&#xde;" horiz-adv-x="1218" d="M74 0v219l155 -61v1194l-155 -62v219h544v-219l-155 60v-93q98 0 208.5 -28.5t220 -85t181.5 -163t72 -241.5q0 -193 -170 -325.5t-420 -132.5h-92v-123l155 61v-219h-544zM463 418h82q117 0 225.5 81.5t108.5 233.5q0 164 -122 271.5t-294 113.5v-700z" />
<glyph unicode="&#xdf;" horiz-adv-x="1173" d="M74 -100l100 43v-16.5t1 -19.5t4 -17.5t10.5 -14.5t17.5 -4t19.5 11.5t9.5 23.5v903h-111v137h111v217q0 152 105 256.5t255 104.5q152 0 256 -100.5t104 -249.5q0 -80 -27.5 -138.5t-68.5 -90.5t-81 -57.5t-67.5 -58t-27.5 -73.5q0 -63 49 -101l287 -221 q37 -29 58.5 -80t21.5 -102q0 -127 -97.5 -206t-228.5 -79q-49 0 -115 21q-10 4 -30 4q-31 0 -58 -12l-24 20q37 139 57 207q96 -96 193 -96q31 0 64.5 20.5t33.5 50.5q0 20 -25 41l-280 219q-106 82 -107 232q0 197 164 299q86 53 86 203q0 80 -32.5 145t-104.5 65 q-68 0 -104.5 -70.5t-36.5 -144.5v-1286q0 -84 -54.5 -143t-136.5 -59q-86 0 -138 64.5t-52 152.5z" />
<glyph unicode="&#xe0;" horiz-adv-x="1087" d="M74 285q0 137 100 232t240 95q43 0 90 -10l26 -160q-31 6 -61 7q-63 0 -106.5 -51.5t-43.5 -114.5q0 -66 42 -117t106 -51q109 0 164 90q-23 139 -64 418q-12 76 -40.5 111.5t-96.5 35.5q-84 0 -172 -104l-90 67q127 209 342 209q115 0 186.5 -61.5t85.5 -173.5l74 -517 q6 -25 35 -24q23 0 37 20l86 -88q-23 -55 -74 -90t-109 -35q-106 0 -159 90q-129 -109 -256 -108q-141 0 -241.5 95t-100.5 235zM135 1276h311l222 -277h-146z" />
<glyph unicode="&#xe1;" horiz-adv-x="1087" d="M74 285q0 137 100 232t240 95q43 0 90 -10l26 -160q-31 6 -61 7q-63 0 -106.5 -51.5t-43.5 -114.5q0 -66 42 -117t106 -51q109 0 164 90q-23 139 -64 418q-12 76 -40.5 111.5t-96.5 35.5q-84 0 -172 -104l-90 67q127 209 342 209q115 0 186.5 -61.5t85.5 -173.5l74 -517 q6 -25 35 -24q23 0 37 20l86 -88q-23 -55 -74 -90t-109 -35q-106 0 -159 90q-129 -109 -256 -108q-141 0 -241.5 95t-100.5 235zM344 999l221 277h312l-388 -277h-145z" />
<glyph unicode="&#xe2;" horiz-adv-x="1087" d="M74 285q0 137 100 232t240 95q43 0 90 -10l26 -160q-31 6 -61 7q-63 0 -106.5 -51.5t-43.5 -114.5q0 -66 42 -117t106 -51q109 0 164 90q-23 139 -64 418q-12 76 -40.5 111.5t-96.5 35.5q-84 0 -172 -104l-90 67q127 209 342 209q115 0 186.5 -61.5t85.5 -173.5l74 -517 q6 -25 35 -24q23 0 37 20l86 -88q-23 -55 -74 -90t-109 -35q-106 0 -159 90q-129 -109 -256 -108q-141 0 -241.5 95t-100.5 235zM186 999l222 277h161l224 -277h-134l-167 91l-160 -91h-146z" />
<glyph unicode="&#xe3;" horiz-adv-x="1087" d="M74 285q0 137 100 232t240 95q43 0 90 -10l26 -160q-31 6 -61 7q-63 0 -106.5 -51.5t-43.5 -114.5q0 -66 42 -117t106 -51q109 0 164 90q-23 139 -64 418q-12 76 -40.5 111.5t-96.5 35.5q-84 0 -172 -104l-90 67q127 209 342 209q115 0 186.5 -61.5t85.5 -173.5l74 -517 q6 -25 35 -24q23 0 37 20l86 -88q-23 -55 -74 -90t-109 -35q-106 0 -159 90q-129 -109 -256 -108q-141 0 -241.5 95t-100.5 235zM184 1006q6 236 193 235q39 0 122 -28.5t124 -28.5q66 0 65 71h115q0 -106 -50.5 -176.5t-142.5 -70.5q-37 0 -73.5 9t-94 29.5t-71.5 24.5 q-16 4 -25 4q-49 0 -49 -69h-113z" />
<glyph unicode="&#xe4;" horiz-adv-x="1087" d="M74 285q0 137 100 232t240 95q43 0 90 -10l26 -160q-31 6 -61 7q-63 0 -106.5 -51.5t-43.5 -114.5q0 -66 42 -117t106 -51q109 0 164 90q-23 139 -64 418q-12 76 -40.5 111.5t-96.5 35.5q-84 0 -172 -104l-90 67q127 209 342 209q115 0 186.5 -61.5t85.5 -173.5l74 -517 q6 -25 35 -24q23 0 37 20l86 -88q-23 -55 -74 -90t-109 -35q-106 0 -159 90q-129 -109 -256 -108q-141 0 -241.5 95t-100.5 235zM242 1116q0 47 32.5 79t77.5 32t78 -32t33 -79t-33 -78.5t-78 -31.5t-77.5 31.5t-32.5 78.5zM518 1116q0 47 32 79t79 32t78.5 -32t31.5 -79 t-31.5 -78.5t-78.5 -31.5t-79 31.5t-32 78.5z" />
<glyph unicode="&#xe5;" horiz-adv-x="1087" d="M74 285q0 137 100 232t240 95q43 0 90 -10l26 -160q-31 6 -61 7q-63 0 -106.5 -51.5t-43.5 -114.5q0 -66 42 -117t106 -51q109 0 164 90q-23 139 -64 418q-12 76 -40.5 111.5t-96.5 35.5q-84 0 -172 -104l-90 67q127 209 342 209q115 0 186.5 -61.5t85.5 -173.5l74 -517 q6 -25 35 -24q23 0 37 20l86 -88q-23 -55 -74 -90t-109 -35q-106 0 -159 90q-129 -109 -256 -108q-141 0 -241.5 95t-100.5 235zM283 1192q0 90 66.5 153.5t158.5 63.5t157.5 -63.5t65.5 -153.5t-65.5 -154.5t-157.5 -64.5t-158.5 64.5t-66.5 154.5zM401 1192q0 -45 32 -76 t75 -31q45 0 75.5 31t30.5 76q0 43 -30.5 72.5t-75.5 29.5q-43 0 -75 -29.5t-32 -72.5z" />
<glyph unicode="&#xe6;" horiz-adv-x="1554" d="M74 284.5q0 139.5 100 233.5t240 94q43 0 90 -10l26 -160q-31 6 -61 7q-63 0 -106.5 -50.5t-43.5 -116t42 -116.5t108 -51q106 0 160 90l-64 418q-12 76 -39.5 111.5t-95.5 35.5q-82 0 -174 -104l-88 67q127 209 344 209q152 0 225 -108q127 123 299 122q152 0 269 -98 q74 -66 107.5 -145.5t53.5 -200.5l-614 -90q25 -109 106.5 -193t184.5 -84q152 0 258 197l80 -82q-152 -293 -412 -293q-190 0 -340 156q-80 -82 -151.5 -125t-163.5 -43q-139 0 -239.5 95t-100.5 234.5zM836 559l368 55q-6 82 -54 142.5t-126 60.5q-92 0 -139 -79t-49 -179 z" />
<glyph unicode="&#xe7;" horiz-adv-x="962" d="M74 436q0 227 146.5 373.5t318.5 146.5q160 0 307 -127l-105 -241l-92 43q0 6 1 15t1 13q0 76 -36.5 112t-92.5 36q-106 0 -162.5 -83t-56.5 -204q0 -145 75 -259t197 -114q137 0 230 183l84 -76q-76 -160 -169 -223.5t-237 -63.5q-172 0 -290.5 136.5t-118.5 332.5z M256 -262l37 69q88 -61 162 -61q80 0 80 43q0 33 -71 55.5t-130 22.5l121 178h118l-71 -98q80 -14 123 -62.5t43 -105.5q0 -70 -46.5 -104.5t-119.5 -34.5q-68 0 -135.5 26.5t-110.5 71.5z" />
<glyph unicode="&#xe8;" horiz-adv-x="1034" d="M74 479q0 193 130 335t312 142q186 0 292.5 -119.5t137.5 -324.5l-622 -90q31 -127 111.5 -199.5t174.5 -72.5q162 0 271 192l80 -82q-154 -293 -414 -293q-193 0 -333 152.5t-140 359.5zM174 1276h311l222 -277h-146zM315 559l369 55q-8 94 -61.5 148.5t-120.5 54.5 q-76 0 -130.5 -67.5t-56.5 -190.5z" />
<glyph unicode="&#xe9;" horiz-adv-x="1034" d="M74 479q0 193 130 335t312 142q186 0 292.5 -119.5t137.5 -324.5l-622 -90q31 -127 111.5 -199.5t174.5 -72.5q162 0 271 192l80 -82q-154 -293 -414 -293q-193 0 -333 152.5t-140 359.5zM315 559l369 55q-8 94 -61.5 148.5t-120.5 54.5q-76 0 -130.5 -67.5t-56.5 -190.5 zM330 999l221 277h311l-387 -277h-145z" />
<glyph unicode="&#xea;" horiz-adv-x="1034" d="M74 479q0 193 130 335t312 142q186 0 292.5 -119.5t137.5 -324.5l-622 -90q31 -127 111.5 -199.5t174.5 -72.5q162 0 271 192l80 -82q-154 -293 -414 -293q-193 0 -333 152.5t-140 359.5zM213 999l221 277h162l223 -277h-133l-168 91l-160 -91h-145zM315 559l369 55 q-8 94 -61.5 148.5t-120.5 54.5q-76 0 -130.5 -67.5t-56.5 -190.5z" />
<glyph unicode="&#xeb;" horiz-adv-x="1034" d="M74 479q0 193 130 335t312 142q186 0 292.5 -119.5t137.5 -324.5l-622 -90q31 -127 111.5 -199.5t174.5 -72.5q162 0 271 192l80 -82q-154 -293 -414 -293q-193 0 -333 152.5t-140 359.5zM264 1116q0 47 32 79t79 32t78.5 -32t31.5 -79t-31.5 -78.5t-78.5 -31.5t-79 31.5 t-32 78.5zM315 559l369 55q-8 94 -61.5 148.5t-120.5 54.5q-76 0 -130.5 -67.5t-56.5 -190.5zM541 1116q0 47 32.5 79t77.5 32t78 -32t33 -79t-33 -78.5t-78 -31.5t-77.5 31.5t-32.5 78.5z" />
<glyph unicode="&#xec;" horiz-adv-x="636" d="M-25 1303h312l221 -277h-146zM74 0v219l133 -57v553q0 23 -39 22q-10 0 -26.5 -2t-18.5 -2l-14 137l315 119v-831l139 61v-219h-489z" />
<glyph unicode="&#xed;" horiz-adv-x="636" d="M74 0v219l133 -57v553q0 23 -39 22q-10 0 -26.5 -2t-18.5 -2l-14 137l315 119v-831l139 61v-219h-489zM139 1020l221 276h312l-387 -276h-146z" />
<glyph unicode="&#xee;" horiz-adv-x="636" d="M16 999l222 277h161l224 -277h-134l-167 91l-160 -91h-146zM74 0v219l133 -57v553q0 23 -39 22q-10 0 -26.5 -2t-18.5 -2l-14 137l315 119v-831l139 61v-219h-489z" />
<glyph unicode="&#xef;" horiz-adv-x="636" d="M66 1116q0 47 32.5 79t77.5 32t78 -32t33 -79t-33 -78.5t-78 -31.5t-77.5 31.5t-32.5 78.5zM74 0v219l133 -57v553q0 23 -39 22q-10 0 -26.5 -2t-18.5 -2l-14 137l315 119v-831l139 61v-219h-489zM342 1116q0 47 32 79t79 32t78.5 -32t31.5 -79t-31.5 -78.5t-78.5 -31.5 t-79 31.5t-32 78.5z" />
<glyph unicode="&#xf0;" horiz-adv-x="1081" d="M74 496q0 199 128 334t318 135q63 0 125 -17q-59 125 -129 215l-266 -159l-41 126l219 134q-106 102 -219 147l18 135q201 -23 381 -176l260 156l39 -127l-205 -123q143 -152 224.5 -371t81.5 -461q0 -199 -131.5 -334t-335.5 -135q-186 0 -326.5 137.5t-140.5 383.5z M311 573q0 -150 89 -300t204 -150q76 0 116 72t40 172q0 80 -33 180t-103.5 184t-158.5 84q-78 0 -116 -71.5t-38 -170.5z" />
<glyph unicode="&#xf1;" horiz-adv-x="1222" d="M74 0v219l141 -61v508q0 27 -21.5 38t-35.5 11h-27l-16 135l315 119v-133q104 119 238 118q106 0 196 -81.5t105 -247.5l41 -465l139 59v-219h-490v219l136 -59l-35 389q-10 117 -57.5 164t-104.5 47t-112.5 -43t-55.5 -117v-440l135 59v-219h-491zM301 1006 q6 236 193 235q39 0 121.5 -28.5t123.5 -28.5q66 0 66 71h115q0 -106 -50.5 -176.5t-142.5 -70.5q-37 0 -74 9t-94 29.5t-72 24.5q-16 4 -24 4q-49 0 -49 -69h-113z" />
<glyph unicode="&#xf2;" horiz-adv-x="1083" d="M74 489q0 217 141 342t307 125q199 0 343.5 -148.5t144.5 -371.5q0 -199 -131 -334t-336 -135q-186 0 -327.5 136.5t-141.5 385.5zM195 1276h311l221 -277h-145zM315 569q0 -145 85 -298.5t206 -153.5q78 0 116 65t38 174q0 154 -86 303.5t-203 149.5q-80 0 -118 -68.5 t-38 -171.5z" />
<glyph unicode="&#xf3;" horiz-adv-x="1083" d="M74 489q0 217 141 342t307 125q199 0 343.5 -148.5t144.5 -371.5q0 -199 -131 -334t-336 -135q-186 0 -327.5 136.5t-141.5 385.5zM315 569q0 -145 85 -298.5t206 -153.5q78 0 116 65t38 174q0 154 -86 303.5t-203 149.5q-80 0 -118 -68.5t-38 -171.5zM350 999l221 277 h312l-387 -277h-146z" />
<glyph unicode="&#xf4;" horiz-adv-x="1083" d="M74 489q0 217 141 342t307 125q199 0 343.5 -148.5t144.5 -371.5q0 -199 -131 -334t-336 -135q-186 0 -327.5 136.5t-141.5 385.5zM238 999l221 277h162l223 -277h-133l-168 91l-160 -91h-145zM315 569q0 -145 85 -298.5t206 -153.5q78 0 116 65t38 174q0 154 -86 303.5 t-203 149.5q-80 0 -118 -68.5t-38 -171.5z" />
<glyph unicode="&#xf5;" horiz-adv-x="1083" d="M74 489q0 217 141 342t307 125q199 0 343.5 -148.5t144.5 -371.5q0 -199 -131 -334t-336 -135q-186 0 -327.5 136.5t-141.5 385.5zM231 1006q6 236 193 235q39 0 122 -28.5t124 -28.5q66 0 65 71h115q0 -106 -50 -176.5t-143 -70.5q-37 0 -73.5 9t-94 29.5t-71.5 24.5 q-16 4 -25 4q-49 0 -49 -69h-113zM315 569q0 -145 85 -298.5t206 -153.5q78 0 116 65t38 174q0 154 -86 303.5t-203 149.5q-80 0 -118 -68.5t-38 -171.5z" />
<glyph unicode="&#xf6;" horiz-adv-x="1083" d="M74 489q0 217 141 342t307 125q199 0 343.5 -148.5t144.5 -371.5q0 -199 -131 -334t-336 -135q-186 0 -327.5 136.5t-141.5 385.5zM289 1116q0 47 31.5 79t78.5 32t79 -32t32 -79t-32 -78.5t-79 -31.5t-78.5 31.5t-31.5 78.5zM315 569q0 -145 85 -298.5t206 -153.5 q78 0 116 65t38 174q0 154 -86 303.5t-203 149.5q-80 0 -118 -68.5t-38 -171.5zM565 1116q0 47 33 79t78 32t77.5 -32t32.5 -79t-32.5 -78.5t-77.5 -31.5t-78 31.5t-33 78.5z" />
<glyph unicode="&#xf7;" horiz-adv-x="706" d="M74 492v167h559v-167h-559zM254 322q0 43 30.5 72.5t71.5 29.5t72 -29.5t31 -70.5q0 -43 -31 -73t-72 -30t-71.5 30t-30.5 71zM256 825q0 43 29.5 72t70.5 29t72 -30t31 -71q0 -43 -31 -72.5t-72 -29.5t-70.5 29.5t-29.5 72.5z" />
<glyph unicode="&#xf8;" horiz-adv-x="1083" d="M74 489q0 217 141 342t307 125q162 0 289 -98l82 92l94 -94l-84 -92q107 -148 107 -328q0 -199 -131 -334t-336 -135q-158 0 -277 92l-76 -84l-92 93l78 86q-102 137 -102 335zM315 569q0 -96 41 -215l299 332q-90 123 -184 123q-80 0 -118 -68.5t-38 -171.5zM424 233 q88 -117 182 -116q78 0 116 68.5t38 170.5q0 96 -39 207z" />
<glyph unicode="&#xf9;" horiz-adv-x="1114" d="M74 850l313 119v-701q0 -51 37 -79.5t78 -28.5q195 0 194 190v316q0 18 -14 30.5t-24.5 14.5t-18.5 2h-27l-12 137l313 119v-805l127 55v-219h-344v74q-109 -109 -247 -109q-104 0 -191.5 66.5t-87.5 193.5v439q0 27 -21.5 38t-35.5 11h-27zM227 1276h312l221 -277h-146z " />
<glyph unicode="&#xfa;" horiz-adv-x="1114" d="M74 850l313 119v-701q0 -51 37 -79.5t78 -28.5q195 0 194 190v316q0 18 -14 30.5t-24.5 14.5t-18.5 2h-27l-12 137l313 119v-805l127 55v-219h-344v74q-109 -109 -247 -109q-104 0 -191.5 66.5t-87.5 193.5v439q0 27 -21.5 38t-35.5 11h-27zM360 999l222 277h311 l-387 -277h-146z" />
<glyph unicode="&#xfb;" horiz-adv-x="1114" d="M74 850l313 119v-701q0 -51 37 -79.5t78 -28.5q195 0 194 190v316q0 18 -14 30.5t-24.5 14.5t-18.5 2h-27l-12 137l313 119v-805l127 55v-219h-344v74q-109 -109 -247 -109q-104 0 -191.5 66.5t-87.5 193.5v439q0 27 -21.5 38t-35.5 11h-27zM254 999l221 277h162 l223 -277h-133l-168 91l-160 -91h-145z" />
<glyph unicode="&#xfc;" horiz-adv-x="1114" d="M74 850l313 119v-701q0 -51 37 -79.5t78 -28.5q195 0 194 190v316q0 18 -14 30.5t-24.5 14.5t-18.5 2h-27l-12 137l313 119v-805l127 55v-219h-344v74q-109 -109 -247 -109q-104 0 -191.5 66.5t-87.5 193.5v439q0 27 -21.5 38t-35.5 11h-27zM303 1116q0 47 33 79t78 32 t77.5 -32t32.5 -79t-32.5 -78.5t-77.5 -31.5t-78 31.5t-33 78.5zM580 1116q0 47 31.5 79t78.5 32t79 -32t32 -79t-32 -78.5t-79 -31.5t-78.5 31.5t-31.5 78.5z" />
<glyph unicode="&#xfd;" horiz-adv-x="1222" d="M74 729v217h506v-217l-113 45l197 -479l210 508l-155 -74v217h430v-217l-158 76l-370 -903q-94 -225 -273 -226q-88 0 -186 80v236h88q31 -49 63.5 -68.5t87.5 -19.5q63 0 97 26.5t51 85.5l-318 777zM440 999l222 277h311l-387 -277h-146z" />
<glyph unicode="&#xfe;" horiz-adv-x="1114" d="M74 -125l149 -61v1458q0 23 -43 22q-10 0 -24.5 -1t-16.5 -1l-14 135l313 119v-665q98 78 213 77q162 0 274.5 -143t114.5 -360q0 -225 -119.5 -355.5t-293.5 -130.5q-94 0 -189 41v-192l137 57v-219h-501v219zM438 244q74 -125 170.5 -125t143.5 100t47 239.5t-48.5 245 t-142.5 105.5q-47 0 -93 -38t-77 -95v-432z" />
<glyph unicode="&#xff;" horiz-adv-x="1222" d="M74 729v217h506v-217l-113 45l197 -479l210 508l-155 -74v217h430v-217l-158 76l-370 -903q-94 -225 -273 -226q-88 0 -186 80v236h88q31 -49 63.5 -68.5t87.5 -19.5q63 0 97 26.5t51 85.5l-318 777zM418 1116q0 47 32.5 79t77.5 32t78 -32t33 -79t-33 -78.5t-78 -31.5 t-77.5 31.5t-32.5 78.5zM694 1116q0 47 32 79t79 32t78.5 -32t31.5 -79t-31.5 -78.5t-78.5 -31.5t-79 31.5t-32 78.5z" />
<glyph unicode="&#x152;" horiz-adv-x="2074" d="M74 723q0 180 60.5 334.5t156.5 256t214 159t236 57.5q74 0 142 -21h743l49 60l207 -344l-70 -95q-170 240 -460 240q-10 0 -35 1t-37 1q-92 0 -92 -43v-373h198q72 0 146 111l192 -322l-69 -94q-127 168 -322 168h-145v-680h282q291 0 461 240l70 -94l-207 -346l-49 61 h-821q-84 -20 -183 -20q-104 0 -197 23.5t-180.5 78.5t-150.5 138t-101 212t-38 291zM344 754q0 -291 100.5 -464t296.5 -173q125 0 213 76v1112q-90 86 -213 86q-184 0 -290.5 -182.5t-106.5 -454.5z" />
<glyph unicode="&#x153;" horiz-adv-x="1654" d="M74 489q0 217 141 342t307 125q182 0 316 -122q125 123 299 122q152 0 268 -98q72 -61 105.5 -140t56.5 -206l-615 -90q29 -121 113 -199t178 -78q152 0 256 197l82 -82q-154 -293 -414 -293q-172 0 -305 121q-131 -121 -319 -121q-186 0 -327.5 136.5t-141.5 385.5z M315 569q0 -145 85 -298.5t206 -153.5q68 0 101.5 63.5t33.5 165.5q0 166 -76.5 314.5t-193.5 148.5q-80 0 -118 -68.5t-38 -171.5zM936 559l369 55q-8 94 -61.5 148.5t-121.5 54.5q-76 0 -131 -67.5t-55 -190.5z" />
<glyph unicode="&#x178;" horiz-adv-x="1558" d="M74 1290v219h563v-219l-139 53l368 -636l326 653l-143 -70v219h436v-219l-168 82l-402 -803v-413l166 63v-219h-563v219l164 -61v393l-455 797zM526 1679q0 45 32 78t79 33t79 -33t32 -78t-32 -77.5t-79 -32.5t-79 32.5t-32 77.5zM803 1679q0 45 32.5 78t77.5 33t78 -33 t33 -78t-33 -77.5t-78 -32.5t-77.5 32.5t-32.5 77.5z" />
<glyph unicode="&#x2c6;" horiz-adv-x="753" d="M74 999l221 277h162l223 -277h-133l-168 91l-160 -91h-145z" />
<glyph unicode="&#x2dc;" horiz-adv-x="765" d="M74 1006q6 236 192 235q39 0 122 -28.5t124 -28.5q66 0 66 71h114q0 -106 -50 -176.5t-142 -70.5q-37 0 -74 9t-94.5 29.5t-71.5 24.5q-16 4 -24 4q-49 0 -50 -69h-112z" />
<glyph unicode="&#x2000;" horiz-adv-x="957" />
<glyph unicode="&#x2001;" horiz-adv-x="1915" />
<glyph unicode="&#x2002;" horiz-adv-x="957" />
<glyph unicode="&#x2003;" horiz-adv-x="1915" />
<glyph unicode="&#x2004;" horiz-adv-x="638" />
<glyph unicode="&#x2005;" horiz-adv-x="478" />
<glyph unicode="&#x2006;" horiz-adv-x="319" />
<glyph unicode="&#x2007;" horiz-adv-x="319" />
<glyph unicode="&#x2008;" horiz-adv-x="239" />
<glyph unicode="&#x2009;" horiz-adv-x="383" />
<glyph unicode="&#x200a;" horiz-adv-x="106" />
<glyph unicode="&#x2010;" horiz-adv-x="491" d="M74 737v168h344v-168h-344z" />
<glyph unicode="&#x2011;" horiz-adv-x="491" d="M74 737v168h344v-168h-344z" />
<glyph unicode="&#x2012;" horiz-adv-x="491" d="M74 737v168h344v-168h-344z" />
<glyph unicode="&#x2013;" horiz-adv-x="1126" d="M74 737v168h979v-168h-979z" />
<glyph unicode="&#x2014;" horiz-adv-x="2150" d="M74 737v168h2003v-168h-2003z" />
<glyph unicode="&#x2018;" horiz-adv-x="411" d="M74 1155q0 199 205 381l53 -53q-70 -86 -101 -211q51 -12 79 -52t28 -90q0 -55 -36 -97t-95.5 -42t-96 46t-36.5 118z" />
<glyph unicode="&#x2019;" horiz-adv-x="411" d="M74 1397q0 55 35.5 97t95 42t96.5 -46t37 -118q0 -199 -205 -381l-53 53q70 86 100 211q-51 12 -78.5 52.5t-27.5 89.5z" />
<glyph unicode="&#x201a;" horiz-adv-x="411" d="M74 141q0 55 35.5 97.5t95 42.5t96.5 -46.5t37 -117.5q0 -199 -205 -381l-53 53q70 86 100 211q-51 12 -78.5 52t-27.5 89z" />
<glyph unicode="&#x201c;" horiz-adv-x="704" d="M74 1155q0 199 205 381l53 -53q-70 -86 -101 -211q51 -12 79 -52t28 -90q0 -55 -36 -97t-95.5 -42t-96 46t-36.5 118zM367 1155q0 199 204 381l54 -53q-70 -86 -101 -211q51 -12 79 -52t28 -90q0 -55 -36 -97t-95.5 -42t-96 46t-36.5 118z" />
<glyph unicode="&#x201d;" horiz-adv-x="704" d="M74 1397q0 55 35.5 97t95 42t96.5 -46t37 -118q0 -199 -205 -381l-53 53q70 86 100 211q-51 12 -78.5 52.5t-27.5 89.5zM367 1397q0 55 35.5 97t95 42t96.5 -46t37 -118q0 -199 -205 -381l-53 53q70 86 100 211q-51 12 -78.5 52.5t-27.5 89.5z" />
<glyph unicode="&#x201e;" horiz-adv-x="704" d="M74 141q0 55 35.5 97.5t95 42.5t96.5 -46.5t37 -117.5q0 -199 -205 -381l-53 53q70 86 100 211q-51 12 -78.5 52t-27.5 89zM367 141q0 55 35.5 97.5t95 42.5t96.5 -46.5t37 -117.5q0 -199 -205 -381l-53 53q70 86 100 211q-51 12 -78.5 52t-27.5 89z" />
<glyph unicode="&#x2022;" horiz-adv-x="581" d="M74 803q0 90 63.5 153.5t153.5 63.5t153.5 -63.5t63.5 -153.5t-63.5 -153.5t-153.5 -63.5t-153.5 63.5t-63.5 153.5z" />
<glyph unicode="&#x2026;" horiz-adv-x="1069" d="M74 129q0 66 40 112t93 46t93 -46t40 -112t-39 -112t-92 -46t-94 47.5t-41 110.5zM401 129q0 66 40 112t93.5 46t93.5 -46t40 -112t-39 -112t-92.5 -46t-94.5 47.5t-41 110.5zM729 129q0 66 40 112t93 46t93 -46t40 -112t-38.5 -112t-92 -46t-94.5 47.5t-41 110.5z" />
<glyph unicode="&#x202f;" horiz-adv-x="383" />
<glyph unicode="&#x2039;" horiz-adv-x="610" d="M74 715l358 469l105 -101l-224 -368l224 -369l-105 -100z" />
<glyph unicode="&#x203a;" horiz-adv-x="610" d="M74 346l223 369l-223 368l104 101l359 -469l-359 -469z" />
<glyph unicode="&#x205f;" horiz-adv-x="478" />
<glyph unicode="&#x20ac;" horiz-adv-x="1329" d="M59 580l58 139h112v84h-157l57 139h115q45 270 207.5 432t379.5 162q25 0 74 -10t74 -10q66 0 141 30l148 -393l-82 -70q-51 84 -73.5 116t-72 91.5t-97.5 84t-105 24.5q-133 0 -208 -130t-98 -327h631l-57 -139h-584q-2 -14 -2 -43q0 -27 2 -41h549l-57 -139h-482 q23 -197 98 -327t208 -130q45 0 89 20.5t74.5 46t69.5 76.5t57.5 81t57.5 91l82 -69q-6 -23 -148 -394q-74 31 -141 31q-27 0 -74 -10t-74 -10q-217 0 -379.5 161.5t-207.5 432.5h-185z" />
<glyph unicode="&#x2122;" horiz-adv-x="1120" d="M74 1427l57 93l19 -15h284l19 15l57 -93l-23 -22q-57 63 -157 63v-321l51 16v-57h-180v57l51 -16v321q-98 0 -154 -63zM492 1106v57l55 -20l24 319l-41 -16v59h160v-59l-35 12l115 -250l111 254l-52 -16v59h179v-59l-47 14l32 -313l54 16v-57h-179v57l47 -14l-24 256 l-129 -299h-25l-137 301l-22 -266l55 22v-57h-141z" />
<glyph unicode="&#x25fc;" horiz-adv-x="942" d="M0 0v942h942v-942h-942z" />
</font>
</defs>
</svg>
