<?xml version="1.0" encoding="utf-8"?>
<!-- Generator: Adobe Illustrator 19.1.0, SVG Export Plug-In . SVG Version: 6.00 Build 0)  -->
<!DOCTYPE svg PUBLIC "-//W3C//DTD SVG 1.1//EN" "http://www.w3.org/Graphics/SVG/1.1/DTD/svg11.dtd">
<svg version="1.1" id="Layer_1" xmlns="http://www.w3.org/2000/svg" xmlns:xlink="http://www.w3.org/1999/xlink" x="0px" y="0px"
	 width="628px" height="380px" viewBox="0 0 628 380" enable-background="new 0 0 628 380" xml:space="preserve">
<path fill="#444444" d="M65,70.9V81c0,0.6,0.4,1,1,1s1-0.4,1-1V70.9c2.3-0.5,4-2.5,4-4.9s-1.7-4.4-4-4.9V51c0-0.6-0.4-1-1-1
	s-1,0.4-1,1v10.1c-2.3,0.5-4,2.5-4,4.9S62.7,70.4,65,70.9z M66,63c1.7,0,3,1.3,3,3s-1.3,3-3,3s-3-1.3-3-3S64.3,63,66,63z"/>
<path fill="#444444" d="M76,75.9V81c0,0.6,0.4,1,1,1s1-0.4,1-1v-5.1c1.7-0.4,3-2,3-3.9s-1.3-3.4-3-3.9V51c0-0.6-0.4-1-1-1
	s-1,0.4-1,1v17.1c-1.7,0.4-3,2-3,3.9S74.3,75.4,76,75.9z M77,70c1.1,0,2,0.9,2,2s-0.9,2-2,2s-2-0.9-2-2S75.9,70,77,70z"/>
<path fill="#444444" d="M54,63.9V81c0,0.6,0.4,1,1,1s1-0.4,1-1V63.9c1.7-0.4,3-2,3-3.9s-1.3-3.4-3-3.9V51c0-0.6-0.4-1-1-1
	s-1,0.4-1,1v5.1c-1.7,0.4-3,2-3,3.9S52.3,63.4,54,63.9z M55,58c1.1,0,2,0.9,2,2s-0.9,2-2,2s-2-0.9-2-2S53.9,58,55,58z"/>
<rect x="121" y="63" fill="#444444" width="14" height="2"/>
<path fill="#444444" d="M113,65h3v16c0,0.6,0.4,1,1,1h9v-1v-1v-4h4v4v1v1h9c0.6,0,1-0.4,1-1V65h3c0.4,0,0.8-0.3,0.9-0.7
	s0-0.8-0.3-1.1l-15-13c-0.4-0.3-0.9-0.3-1.3,0l-15,13c-0.3,0.3-0.4,0.7-0.3,1.1S112.6,65,113,65z M128,52.3L140.3,63H140h-1h-1v17
	h-6v-5c0-0.6-0.4-1-1-1h-6c-0.6,0-1,0.4-1,1v5h-6V63h-1h-1h-0.3L128,52.3z"/>
<path fill="#444444" d="M205,56h-30c-0.6,0-1,0.4-1,1s0.4,1,1,1h30c0.6,0,1-0.4,1-1S205.6,56,205,56z"/>
<path fill="#444444" d="M205,74h-30c-0.6,0-1,0.4-1,1s0.4,1,1,1h30c0.6,0,1-0.4,1-1S205.6,74,205,74z"/>
<path fill="#444444" d="M200,67c0.6,0,1-0.4,1-1s-0.4-1-1-1h-20c-0.6,0-1,0.4-1,1s0.4,1,1,1H200z"/>
<path fill="#444444" d="M267,56h-30c-0.6,0-1,0.4-1,1s0.4,1,1,1h30c0.6,0,1-0.4,1-1S267.6,56,267,56z"/>
<path fill="#444444" d="M237,67h20c0.6,0,1-0.4,1-1s-0.4-1-1-1h-20c-0.6,0-1,0.4-1,1S236.4,67,237,67z"/>
<path fill="#444444" d="M267,74h-30c-0.6,0-1,0.4-1,1s0.4,1,1,1h30c0.6,0,1-0.4,1-1S267.6,74,267,74z"/>
<path fill="#444444" d="M329,57h-6v-6c0-0.6-0.4-1-1-1h-16c-0.6,0-1,0.4-1,1v6h-6c-0.6,0-1,0.4-1,1v16c0,0.6,0.4,1,1,1h6v6
	c0,0.6,0.4,1,1,1h16c0.6,0,1-0.4,1-1v-6h6c0.6,0,1-0.4,1-1V58C330,57.4,329.6,57,329,57z M307,52h14v5h-14V52z M328,59v2h-28v-2H328
	z M321,80h-14V68h14V80z M323,73v-6c0-0.6-0.4-1-1-1h-16c-0.6,0-1,0.4-1,1v6h-5V63h28v10H323z"/>
<rect x="309" y="75" fill="#444444" width="10" height="2"/>
<rect x="309" y="71" fill="#444444" width="10" height="2"/>
<path fill="#444444" d="M361,78h2v3c0,0.6,0.4,1,1,1h24c0.6,0,1-0.4,1-1v-3h2c0.3,0,0.6-0.2,0.8-0.4c0.2-0.3,0.2-0.6,0.1-0.9
	l-2.9-7.8V53c0-0.6-0.4-1-1-1h-4v-1c0-0.6-0.4-1-1-1s-1,0.4-1,1v1h-12v-1c0-0.6-0.4-1-1-1s-1,0.4-1,1v1h-4c-0.6,0-1,0.4-1,1v15.8
	l-2.9,7.8c-0.1,0.3-0.1,0.7,0.1,0.9C360.4,77.8,360.7,78,361,78z M387,80h-22v-2h22V80z M365,58h22v10h-22V58z M387,54v2h-22v-2H387
	z M364.7,70h22.6l2.2,6h-27.1L364.7,70z"/>
<rect x="368" y="60" fill="#444444" width="4" height="2"/>
<rect x="368" y="64" fill="#444444" width="4" height="2"/>
<rect x="374" y="60" fill="#444444" width="4" height="2"/>
<rect x="374" y="64" fill="#444444" width="4" height="2"/>
<rect x="380" y="60" fill="#444444" width="4" height="2"/>
<rect x="380" y="64" fill="#444444" width="4" height="2"/>
<path fill="#444444" d="M425,81h26c0.6,0,1-0.4,1-1V54c0-0.6-0.4-1-1-1h-5v-1c0-0.6-0.4-1-1-1s-1,0.4-1,1v1h-12v-1c0-0.6-0.4-1-1-1
	s-1,0.4-1,1v1h-5c-0.6,0-1,0.4-1,1v26C424,80.6,424.4,81,425,81z M426,79V59h24v20H426z M450,55v2h-24v-2H450z"/>
<rect x="430" y="64" fill="#444444" width="4" height="2"/>
<rect x="430" y="68" fill="#444444" width="4" height="2"/>
<rect x="436" y="64" fill="#444444" width="4" height="2"/>
<rect x="436" y="68" fill="#444444" width="4" height="2"/>
<rect x="442" y="64" fill="#444444" width="4" height="2"/>
<rect x="442" y="68" fill="#444444" width="4" height="2"/>
<rect x="430" y="72" fill="#444444" width="4" height="2"/>
<rect x="436" y="72" fill="#444444" width="4" height="2"/>
<rect x="442" y="72" fill="#444444" width="4" height="2"/>
<path fill="#444444" d="M486,65h12c0.6,0,1-0.4,1-1V52c0-0.6-0.4-1-1-1h-12c-0.6,0-1,0.4-1,1v12C485,64.6,485.4,65,486,65z M487,53
	h10v10h-10V53z"/>
<path fill="#444444" d="M502,65h12c0.6,0,1-0.4,1-1V52c0-0.6-0.4-1-1-1h-12c-0.6,0-1,0.4-1,1v12C501,64.6,501.4,65,502,65z M503,53
	h10v10h-10V53z"/>
<path fill="#444444" d="M486,81h12c0.6,0,1-0.4,1-1V68c0-0.6-0.4-1-1-1h-12c-0.6,0-1,0.4-1,1v12C485,80.6,485.4,81,486,81z M487,69
	h10v10h-10V69z"/>
<path fill="#444444" d="M502,81h12c0.6,0,1-0.4,1-1V68c0-0.6-0.4-1-1-1h-12c-0.6,0-1,0.4-1,1v12C501,80.6,501.4,81,502,81z M503,69
	h10v10h-10V69z"/>
<path fill="#444444" d="M548,65c0.6,0,1-0.4,1-1V53h9c0.6,0,1-0.4,1-1s-0.4-1-1-1h-10c-0.6,0-1,0.4-1,1v12C547,64.6,547.4,65,548,65
	z"/>
<path fill="#444444" d="M566,53h9v9c0,0.6,0.4,1,1,1s1-0.4,1-1V52c0-0.6-0.4-1-1-1h-10c-0.6,0-1,0.4-1,1S565.4,53,566,53z"/>
<path fill="#444444" d="M548,81h10c0.6,0,1-0.4,1-1s-0.4-1-1-1h-9v-9c0-0.6-0.4-1-1-1s-1,0.4-1,1v10C547,80.6,547.4,81,548,81z"/>
<path fill="#444444" d="M566,81h10c0.6,0,1-0.4,1-1V70c0-0.6-0.4-1-1-1s-1,0.4-1,1v9h-9c-0.6,0-1,0.4-1,1S565.4,81,566,81z"/>
<path fill="#444444" d="M569,72V60c0-0.6-0.4-1-1-1h-12c-0.6,0-1,0.4-1,1v12c0,0.6,0.4,1,1,1h12C568.6,73,569,72.6,569,72z M567,71
	h-10V61h10V71z"/>
<path fill="#444444" d="M52,144h28c0.6,0,1-0.4,1-1v-22c0-0.6-0.4-1-1-1H52c-0.6,0-1,0.4-1,1v22C51,143.6,51.4,144,52,144z M53,122
	h26v20H53V122z"/>
<path fill="#444444" d="M54,117c0,0.6,0.4,1,1,1h22c0.6,0,1-0.4,1-1s-0.4-1-1-1H55C54.4,116,54,116.4,54,117z"/>
<path fill="#444444" d="M75,114c0.6,0,1-0.4,1-1s-0.4-1-1-1H57c-0.6,0-1,0.4-1,1s0.4,1,1,1H75z"/>
<rect x="58" y="127" fill="#444444" width="16" height="2"/>
<rect x="58" y="131" fill="#444444" width="16" height="2"/>
<rect x="58" y="135" fill="#444444" width="16" height="2"/>
<path fill="#444444" d="M132,112h-8c-0.6,0-1,0.4-1,1v3h-4c-0.6,0-1,0.4-1,1v1h-3c-0.6,0-1,0.4-1,1v24c0,0.6,0.4,1,1,1h26
	c0.6,0,1-0.4,1-1v-24c0-0.6-0.4-1-1-1h-3v-1c0-0.6-0.4-1-1-1h-4v-3C133,112.4,132.6,112,132,112z M140,120v22h-24v-22h2v19
	c0,0.6,0.4,1,1,1h18c0.6,0,1-0.4,1-1v-19H140z M136,118v20h-16v-20h3h1h8h1H136z M125,116v-2h6v2H125z"/>
<rect x="123" y="122" fill="#444444" width="10" height="2"/>
<rect x="123" y="126" fill="#444444" width="10" height="2"/>
<rect x="123" y="130" fill="#444444" width="10" height="2"/>
<path fill="#444444" d="M205,112h-21c-0.6,0-1,0.4-1,1v18h-8c-0.6,0-1,0.4-1,1v6c0,3.3,2.7,6,6,6h21c2.8,0,5-2.2,5-5v-26
	C206,112.4,205.6,112,205,112z M183,139c0,1.7-1.3,3-3,3c-2.2,0-4-1.8-4-4v-5h7V139z M201,142h-17c0.6-0.8,1-1.9,1-3v-25h19v24h-16
	c-0.6,0-1,0.4-1,1s0.4,1,1,1h15.8C203.4,141.2,202.3,142,201,142z"/>
<rect x="189" y="119" fill="#444444" width="11" height="2"/>
<rect x="189" y="123" fill="#444444" width="11" height="2"/>
<rect x="189" y="127" fill="#444444" width="11" height="2"/>
<rect x="189" y="131" fill="#444444" width="11" height="2"/>
<path fill="#444444" d="M265,143c0.6,0,1-0.4,1-1v-20c0,0,0,0,0-0.1c0-0.1,0-0.2-0.1-0.3c0,0,0-0.1,0-0.1c0-0.1-0.1-0.2-0.2-0.3
	c0,0,0,0,0,0l-8-8c0,0,0,0,0,0c-0.1-0.1-0.2-0.1-0.3-0.2c0,0-0.1,0-0.1,0c-0.1,0-0.2,0-0.3-0.1c0,0,0,0-0.1,0h-18c-0.6,0-1,0.4-1,1
	v28c0,0.6,0.4,1,1,1H265z M258,116.4l4.6,4.6H258V116.4z M240,115h16v7c0,0.6,0.4,1,1,1h7v18h-24V115z"/>
<path fill="#444444" d="M242,134h8v-8h-8V134z M244,128h4v4h-4V128z"/>
<rect x="252" y="127" fill="#444444" width="10" height="2"/>
<rect x="252" y="131" fill="#444444" width="10" height="2"/>
<path fill="#444444" d="M326,113h-20c-0.6,0-1,0.4-1,1v2h-2c-2.2,0-4,1.8-4,4v2v19v1c0,0.6,0.4,1,1,1h28c0.6,0,1-0.4,1-1v-20
	c0-0.6-0.4-1-1-1h-1v-7C327,113.4,326.6,113,326,113z M307,115h18v6h-18V115z M303,118h2v3h-4v-1C301,118.9,301.9,118,303,118z
	 M301,141v-18h26v5h-8c-2.2,0-4,1.8-4,4s1.8,4,4,4h8v5H301z M327,134h-8c-1.1,0-2-0.9-2-2s0.9-2,2-2h8V134z"/>
<path fill="#444444" d="M391,118h-5v-5c0-0.6-0.4-1-1-1h-24c-0.6,0-1,0.4-1,1v24c0,0.6,0.4,1,1,1h5v5c0,0.6,0.4,1,1,1h24
	c0.6,0,1-0.4,1-1v-24C392,118.4,391.6,118,391,118z M362,114h22v22h-22V114z M390,142h-22v-4h17c0.6,0,1-0.4,1-1v-17h4V142z"/>
<path fill="#444444" d="M381.9,133.5c0.2-0.3,0.2-0.7,0-1l-4-6c-0.2-0.2-0.4-0.4-0.7-0.4c-0.3,0-0.6,0.1-0.8,0.3l-2.1,2.1l-3.3-5
	c-0.2-0.3-0.6-0.5-0.9-0.4c-0.3,0-0.7,0.2-0.8,0.5l-5,9c-0.2,0.3-0.2,0.7,0,1c0.2,0.3,0.5,0.5,0.9,0.5h16
	C381.4,134,381.7,133.8,381.9,133.5z M366.7,132l3.4-6.1l3.1,4.6c0.2,0.2,0.4,0.4,0.7,0.4c0.3,0,0.6-0.1,0.8-0.3l2.1-2.1l2.3,3.4
	H366.7z"/>
<circle fill="#444444" cx="377" cy="121" r="2"/>
<path fill="#444444" d="M433.3,138.2c0.2,0.2,0.5,0.3,0.7,0.3s0.5-0.1,0.7-0.3c0.4-0.4,0.4-1,0-1.4l-11-11c-0.4-0.4-1-0.4-1.4,0
	s-0.4,1,0,1.4L433.3,138.2z"/>
<path fill="#444444" d="M452.3,117.8l-15.9,15.9c-0.4,0.4-0.4,1,0,1.4c0.2,0.2,0.5,0.3,0.7,0.3s0.5-0.1,0.7-0.3l15.9-15.9
	c0.4-0.4,0.4-1,0-1.4S452.7,117.4,452.3,117.8z"/>
<path fill="#444444" d="M510,115h-20c-3.3,0-6,2.7-6,6s2.7,6,6,6h20c3.3,0,6-2.7,6-6S513.3,115,510,115z M510,125h-20
	c-2.2,0-4-1.8-4-4s1.8-4,4-4h20c2.2,0,4,1.8,4,4S512.2,125,510,125z"/>
<path fill="#444444" d="M510,129h-20c-3.3,0-6,2.7-6,6s2.7,6,6,6h20c3.3,0,6-2.7,6-6S513.3,129,510,129z M510,139h-20
	c-2.2,0-4-1.8-4-4s1.8-4,4-4h20c2.2,0,4,1.8,4,4S512.2,139,510,139z"/>
<circle fill="#444444" cx="490" cy="121" r="2"/>
<circle fill="#444444" cx="510" cy="135" r="2"/>
<path fill="#444444" d="M547.6,136.9l14,7c0.1,0.1,0.3,0.1,0.4,0.1s0.3,0,0.4-0.1l14-7c0.3-0.2,0.6-0.5,0.6-0.9v-23
	c0-0.3-0.2-0.6-0.4-0.8c-0.3-0.2-0.6-0.2-0.9-0.1l-13.6,5.8l-13.6-5.8c-0.3-0.1-0.7-0.1-0.9,0.1c-0.3,0.2-0.4,0.5-0.4,0.8v23
	C547,136.4,547.2,136.7,547.6,136.9z M561,119.7V132c0,0.6,0.4,1,1,1s1-0.4,1-1v-7.1c1.1,1.7,2.6,3.1,5,3.1c0.6,0,1-0.4,1-1
	s-0.4-1-1-1c-3.3,0-4.5-4.6-4.9-6.4l11.9-5.1v15.9l-9.3,4.7c-0.5,0.2-0.7,0.8-0.4,1.3c0.2,0.4,0.5,0.6,0.9,0.6c0.2,0,0.3,0,0.4-0.1
	l8.5-4.2v2.8l-13,6.5l-13-6.5v-2.8l8.5,4.2c0.1,0.1,0.3,0.1,0.4,0.1c0.4,0,0.7-0.2,0.9-0.6c0.2-0.5,0-1.1-0.4-1.3l-9.4-4.7v-15.9
	L561,119.7z"/>
<path fill="#444444" d="M70,190c0-2.2-1.8-4-4-4s-4,1.8-4,4s1.8,4,4,4S70,192.2,70,190z M64,190c0-1.1,0.9-2,2-2s2,0.9,2,2
	s-0.9,2-2,2S64,191.1,64,190z"/>
<path fill="#444444" d="M81.4,187.1l-4.2-1.7l1.8-4.2c0.2-0.4,0.1-0.8-0.2-1.1l-2.8-2.8c-0.3-0.3-0.7-0.4-1.1-0.2l-4.2,1.8l-1.7-4.2
	c-0.2-0.4-0.5-0.6-0.9-0.6h-4c-0.4,0-0.8,0.2-0.9,0.6l-1.7,4.2l-4.2-1.8c-0.4-0.2-0.8-0.1-1.1,0.2l-2.8,2.8
	c-0.3,0.3-0.4,0.7-0.2,1.1l1.8,4.2l-4.2,1.7c-0.4,0.2-0.6,0.5-0.6,0.9v4c0,0.4,0.2,0.8,0.6,0.9l4.2,1.7l-1.8,4.2
	c-0.2,0.4-0.1,0.8,0.2,1.1l2.8,2.8c0.3,0.3,0.7,0.4,1.1,0.2l4.2-1.8l1.7,4.2c0.2,0.4,0.5,0.6,0.9,0.6h4c0.4,0,0.8-0.2,0.9-0.6
	l1.7-4.2l4.2,1.8c0.4,0.2,0.8,0.1,1.1-0.2l2.8-2.8c0.3-0.3,0.4-0.7,0.2-1.1l-1.8-4.2l4.2-1.7c0.4-0.2,0.6-0.5,0.6-0.9v-4
	C82,187.6,81.8,187.2,81.4,187.1z M80,191.3l-4.4,1.7c-0.2,0.1-0.4,0.3-0.6,0.5l-0.1,0.2c-0.1,0.2-0.1,0.5,0,0.8l1.9,4.3l-1.9,1.9
	l-4.3-1.9c-0.2-0.1-0.5-0.1-0.8,0l-0.2,0.1c-0.2,0.1-0.4,0.3-0.5,0.6l-1.7,4.4h-2.6l-1.7-4.4c-0.1-0.2-0.3-0.4-0.5-0.6l-0.2-0.1
	c-0.2-0.1-0.5-0.1-0.8,0l-4.3,1.9l-1.9-1.9l1.9-4.3c0.1-0.2,0.1-0.5,0-0.8l-0.1-0.2c-0.1-0.2-0.3-0.4-0.6-0.5l-4.4-1.7v-2.6l4.4-1.7
	c0.2-0.1,0.4-0.3,0.6-0.5l0.1-0.2c0.1-0.2,0.1-0.5,0-0.8l-1.9-4.3l1.9-1.9l4.3,1.9c0.2,0.1,0.5,0.1,0.8,0l0.2-0.1
	c0.2-0.1,0.4-0.3,0.5-0.6l1.7-4.4h2.6l1.7,4.4c0.1,0.3,0.3,0.5,0.5,0.6l0.2,0.1c0.2,0.1,0.5,0.1,0.8,0l4.3-1.9l1.9,1.9l-1.9,4.3
	c-0.1,0.2-0.1,0.5,0,0.8l0.1,0.2c0.1,0.2,0.3,0.4,0.6,0.5l4.4,1.7V191.3z"/>
<path fill="#444444" d="M73,189c-0.6,0-1,0.4-1,1c0,3.3-2.7,6-6,6c-0.6,0-1,0.4-1,1s0.4,1,1,1c4.4,0,8-3.6,8-8
	C74,189.4,73.6,189,73,189z"/>
<path fill="#444444" d="M67,183c0-0.6-0.4-1-1-1c-4.4,0-8,3.6-8,8c0,0.6,0.4,1,1,1s1-0.4,1-1c0-3.3,2.7-6,6-6
	C66.6,184,67,183.6,67,183z"/>
<path fill="#444444" d="M114,191c0.6,0,1-0.4,1-1c0-7.2,5.8-13,13-13c2.4,0,4.7,0.6,6.7,1.9l-3.4,3.4c-0.3,0.3-0.4,0.7-0.2,1
	c0.1,0.4,0.5,0.6,0.8,0.7l9,1c0,0,0.1,0,0.1,0c0.3,0,0.5-0.1,0.7-0.3c0.2-0.2,0.3-0.5,0.3-0.8l-1-9c0-0.4-0.3-0.7-0.7-0.8
	c-0.4-0.1-0.8,0-1,0.2l-3.1,3.1c-2.4-1.6-5.2-2.4-8.2-2.4c-8.3,0-15,6.7-15,15C113,190.6,113.4,191,114,191z M139.9,182.9l-5.7-0.6
	l5.1-5.1L139.9,182.9z"/>
<path fill="#444444" d="M115.7,205.9c0.1,0,0.2,0.1,0.3,0.1c0.3,0,0.5-0.1,0.7-0.3l3.1-3.1c2.4,1.6,5.2,2.4,8.2,2.4
	c8.3,0,15-6.7,15-15c0-0.6-0.4-1-1-1s-1,0.4-1,1c0,7.2-5.8,13-13,13c-2.4,0-4.7-0.6-6.7-1.9l3.4-3.4c0.3-0.3,0.4-0.7,0.2-1
	c-0.1-0.4-0.5-0.6-0.8-0.7l-9-1c-0.3,0-0.6,0.1-0.8,0.3c-0.2,0.2-0.3,0.5-0.3,0.8l1,9C115,205.5,115.3,205.8,115.7,205.9z
	 M121.8,197.8l-5.1,5.1l-0.6-5.7L121.8,197.8z"/>
<path fill="#444444" d="M190,187c-3.9,0-7,3.1-7,7s3.1,7,7,7s7-3.1,7-7S193.9,187,190,187z M190,199c-2.8,0-5-2.2-5-5s2.2-5,5-5
	s5,2.2,5,5S192.8,199,190,199z"/>
<path fill="#444444" d="M190,191c-0.6,0-1,0.4-1,1s0.4,1,1,1c0.6,0,1,0.4,1,1s-0.4,1-1,1c-0.6,0-1,0.4-1,1s0.4,1,1,1
	c1.7,0,3-1.3,3-3S191.7,191,190,191z"/>
<path fill="#444444" d="M204.3,175.3l-8.3,8.3c-1.8-1-3.8-1.6-6-1.6c-2,0-4,0.5-5.7,1.4l-6.8-6.4H195c0.6,0,1-0.4,1-1s-0.4-1-1-1
	h-20c-0.4,0-0.8,0.2-0.9,0.6c-0.2,0.4-0.1,0.8,0.2,1.1l8.3,7.8c-2.8,2.2-4.6,5.6-4.6,9.4c0,6.6,5.4,12,12,12s12-5.4,12-12
	c0-3.7-1.7-7-4.3-9.2l8.1-8.1c0.4-0.4,0.4-1,0-1.4S204.7,174.9,204.3,175.3z M200,194c0,5.5-4.5,10-10,10s-10-4.5-10-10
	s4.5-10,10-10S200,188.5,200,194z"/>
<path fill="#444444" d="M267,177h-3v-1c0-0.6-0.4-1-1-1h-22c-0.6,0-1,0.4-1,1v1h-3c-0.6,0-1,0.4-1,1v4c0,2.4,1.7,4.4,4,4.9v0.1
	c0,6.3,4.9,11.4,11,11.9v1.5l-5.6,3.7c-0.4,0.2-0.5,0.7-0.4,1.1c0.1,0.4,0.5,0.7,1,0.7h12c0.4,0,0.8-0.3,1-0.7
	c0.1-0.4,0-0.9-0.4-1.1l-5.6-3.7v-1.5c6.1-0.5,11-5.7,11-11.9v-0.1c2.3-0.5,4-2.5,4-4.9v-4C268,177.4,267.6,177,267,177z M242,177
	h20v2h-20V177z M238,182v-3h2v5.8C238.8,184.4,238,183.3,238,182z M249.3,204l2.7-1.8l2.7,1.8H249.3z M262,187c0,5.5-4.5,10-10,10
	s-10-4.5-10-10v-6h20V187z M266,182c0,1.3-0.8,2.4-2,2.8V179h2V182z"/>
<path fill="#444444" d="M329,174h-26c-0.6,0-1,0.4-1,1v3h-3c-0.6,0-1,0.4-1,1v21c0,0.6,0.4,1,1,1h13.7l6.7,4.8
	c0.2,0.1,0.4,0.2,0.6,0.2c0.2,0,0.3,0,0.5-0.1c0.3-0.2,0.5-0.5,0.5-0.9v-4h4c0.6,0,1-0.4,1-1v-3h3c0.6,0,1-0.4,1-1v-21
	C330,174.4,329.6,174,329,174z M324,199h-4c-0.6,0-1,0.4-1,1v3.1l-5.4-3.9c0,0-0.1,0-0.1,0c-0.1,0-0.1-0.1-0.2-0.1
	c-0.1,0-0.1,0-0.2,0c0,0-0.1,0-0.1,0h-13v-19h24V199z M328,195h-2v-16c0-0.6-0.4-1-1-1h-21v-2h24V195z"/>
<rect x="307" y="186" fill="#444444" width="10" height="2"/>
<rect x="307" y="191" fill="#444444" width="10" height="2"/>
<path fill="#444444" d="M391,178h-3v-3c0-0.6-0.4-1-1-1h-26c-0.6,0-1,0.4-1,1v21c0,0.6,0.4,1,1,1h3v3c0,0.6,0.4,1,1,1h4v4
	c0,0.4,0.2,0.7,0.5,0.9c0.1,0.1,0.3,0.1,0.5,0.1c0.2,0,0.4-0.1,0.6-0.2l6.7-4.8H391c0.6,0,1-0.4,1-1v-21
	C392,178.4,391.6,178,391,178z M362,195v-19h24v2h-21c-0.6,0-1,0.4-1,1v16H362z M390,199h-13c0,0-0.1,0-0.1,0c-0.1,0-0.1,0-0.2,0
	c-0.1,0-0.1,0-0.2,0.1c0,0-0.1,0-0.1,0l-5.4,3.9V200c0-0.6-0.4-1-1-1h-4v-19h24V199z"/>
<path fill="#444444" d="M377.3,194.7c0.2,0.2,0.4,0.3,0.7,0.3s0.5-0.1,0.7-0.3l4.4-4.4c0.7-0.7,1.1-1.6,1.1-2.5s-0.4-1.9-1.1-2.5
	c-1.4-1.4-3.5-1.6-5.1-0.5c-1.6-1.1-3.7-0.9-5.1,0.5c-0.7,0.7-1.1,1.6-1.1,2.5c0,1,0.4,1.9,1.1,2.5L377.3,194.7z M374.3,186.6
	c0.4-0.4,0.9-0.6,1.5-0.6c0.4,0,0.8,0.1,1.2,0.4l0.5,0.3c0.3,0.2,0.8,0.2,1.2,0l0.5-0.3c0.8-0.6,1.9-0.5,2.7,0.2
	c0.3,0.3,0.5,0.7,0.5,1.1s-0.2,0.8-0.5,1.1l-3.7,3.7l-3.7-3.7c-0.3-0.3-0.5-0.7-0.5-1.1C373.8,187.3,374,186.9,374.3,186.6z"/>
<path fill="#444444" d="M422,190c0,8.8,7.2,16,16,16s16-7.2,16-16s-7.2-16-16-16S422,181.2,422,190z M438,176c7.7,0,14,6.3,14,14
	s-6.3,14-14,14s-14-6.3-14-14S430.3,176,438,176z"/>
<path fill="#444444" d="M429.2,196.6l0.3,0.4h3.6c0.5,2.3,2.5,4,4.9,4s4.4-1.7,4.9-4h3.6l0.3-0.4c1.4-1.9,2.2-4.2,2.2-6.6
	c0-6.1-4.9-11-11-11s-11,4.9-11,11C427,192.4,427.8,194.7,429.2,196.6z M438,199c-1.6,0-3-1.3-3-3v0c0-1.6,1.4-3,3-3
	c1.7,0,3,1.3,3,3S439.7,199,438,199z M436.1,188.2l1.9-2.5l1.9,2.5l-1,2.9c-0.3-0.1-0.6-0.1-0.9-0.1s-0.6,0-0.9,0.1L436.1,188.2z
	 M438,181c5,0,9,4,9,9c0,1.8-0.5,3.5-1.5,5h-2.6c-0.3-1.3-1.1-2.4-2.1-3.2l1.2-3.5c0.1-0.3,0-0.7-0.1-0.9l-3-4
	c-0.4-0.5-1.2-0.5-1.6,0l-3,4c-0.2,0.3-0.3,0.6-0.1,0.9l1.2,3.5c-1.1,0.7-1.9,1.8-2.1,3.2h-2.6c-1-1.5-1.5-3.2-1.5-5
	C429,185,433,181,438,181z"/>
<path fill="#444444" d="M506.3,196.3c-0.4,0.4-0.4,1,0,1.4l7,7c0.2,0.2,0.5,0.3,0.7,0.3s0.5-0.1,0.7-0.3c0.4-0.4,0.4-1,0-1.4l-7-7
	C507.3,195.9,506.7,195.9,506.3,196.3z"/>
<path fill="#444444" d="M496,174c-6.6,0-12,5.4-12,12s5.4,12,12,12s12-5.4,12-12S502.6,174,496,174z M496,196c-5.5,0-10-4.5-10-10
	s4.5-10,10-10s10,4.5,10,10S501.5,196,496,196z"/>
<path fill="#444444" d="M496,179c-0.6,0-1,0.4-1,1s0.4,1,1,1c2.8,0,5,2.2,5,5c0,0.6,0.4,1,1,1s1-0.4,1-1
	C503,182.1,499.9,179,496,179z"/>
<path fill="#444444" d="M578,178.9c0-0.1,0-0.1,0-0.2c0-0.1-0.1-0.1-0.1-0.2c0,0,0-0.1-0.1-0.1c0,0,0,0,0,0
	c-0.1-0.1-0.1-0.1-0.2-0.1c0,0-0.1-0.1-0.1-0.1c-0.1,0-0.1,0-0.2,0c-0.1,0-0.1,0-0.2,0c0,0,0,0,0,0h-30c0,0,0,0,0,0
	c-0.1,0-0.1,0-0.2,0c-0.1,0-0.1,0-0.2,0c-0.1,0-0.1,0.1-0.1,0.1c-0.1,0-0.1,0.1-0.2,0.1c0,0,0,0,0,0c0,0,0,0.1-0.1,0.1
	c0,0.1-0.1,0.1-0.1,0.2c0,0.1,0,0.1,0,0.2c0,0,0,0.1,0,0.1v22c0,0.1,0,0.1,0,0.1c0,0.1,0,0.1,0,0.2c0,0.1,0.1,0.1,0.1,0.2
	c0,0,0,0.1,0.1,0.1c0,0,0,0,0,0c0.1,0.1,0.2,0.2,0.3,0.2c0,0,0,0,0,0c0.1,0.1,0.3,0.1,0.4,0.1h30c0.1,0,0.3,0,0.4-0.1c0,0,0,0,0,0
	c0.1-0.1,0.2-0.1,0.3-0.2c0,0,0,0,0,0c0,0,0-0.1,0.1-0.1c0-0.1,0.1-0.1,0.1-0.2c0-0.1,0-0.1,0-0.2c0,0,0-0.1,0-0.1v-22
	C578,179,578,178.9,578,178.9z M548,181.2l9.8,8.5l-9.8,9V181.2z M561.3,192.8c0.2,0.2,0.4,0.2,0.7,0.2s0.5-0.1,0.7-0.2l2-1.8l5.4,5
	h-16.2l5.4-5L561.3,192.8z M562,190.7L549.7,180h24.6L562,190.7z M551.7,198h20.6l2.2,2h-24.9L551.7,198z M566.2,189.7l9.8-8.5v17.5
	L566.2,189.7z"/>
<path fill="#444444" d="M78,247.1c-0.5-6.2-5.6-11.1-12-11.1s-11.5,4.9-12,11.1c-2.3,0.4-4,2.5-4,4.9c0,2.2,1.4,4,3.4,4.7l-3.3,10
	c-0.2,0.5,0.1,1.1,0.6,1.3c0.1,0,0.2,0.1,0.3,0.1c0.4,0,0.8-0.3,0.9-0.7l3.4-10.3h3.9l-2.2,6.7c-0.2,0.5,0.1,1.1,0.6,1.3
	c0.1,0,0.2,0.1,0.3,0.1c0.4,0,0.8-0.3,0.9-0.7l2.4-7.3H65v3c0,0.6,0.4,1,1,1s1-0.4,1-1v-3h3.6l2.4,7.3c0.1,0.4,0.5,0.7,0.9,0.7
	c0.1,0,0.2,0,0.3-0.1c0.5-0.2,0.8-0.7,0.6-1.3l-2.2-6.7h3.9l3.4,10.3c0.1,0.4,0.5,0.7,0.9,0.7c0.1,0,0.2,0,0.3-0.1
	c0.5-0.2,0.8-0.7,0.6-1.3l-3.3-10c2-0.7,3.4-2.5,3.4-4.7C82,249.6,80.3,247.5,78,247.1z M75.9,247H56.1c0.1-0.7,0.2-1.4,0.4-2h19.1
	C75.7,245.6,75.9,246.3,75.9,247z M66,238c3.7,0,6.9,2,8.6,5H57.4C59.1,240,62.3,238,66,238z M77,255h-5.6c0,0,0,0,0,0H55
	c-1.7,0-3-1.3-3-3s1.3-3,3-3h22c1.7,0,3,1.3,3,3S78.7,255,77,255z"/>
<rect x="55" y="251" fill="#444444" width="5" height="2"/>
<rect x="63.5" y="251" fill="#444444" width="5" height="2"/>
<rect x="72" y="251" fill="#444444" width="5" height="2"/>
<path fill="#444444" d="M137,236c-2.1,0-4.1,1-5.3,2.5c-1.2-0.3-2.4-0.5-3.7-0.5c-2.3,0-4.5,0.6-6.4,1.6c-3.4-1.9-5.7-2.2-6.9-1
	c-1.2,1.3-0.6,3.7,1.1,6.6c-1.1,2-1.8,4.3-1.8,6.8c0,7.7,6.3,14,14,14c2.7,0,5.3-0.8,7.4-2.2c1.6,0.8,2.9,1.2,3.9,1.2
	c0.8,0,1.5-0.2,1.9-0.7c1.1-1.1,0.8-3.2-0.8-6.1c0.9-1.9,1.5-4,1.5-6.2c0-1.2-0.2-2.5-0.5-3.7c1.5-1.3,2.5-3.2,2.5-5.3
	C144,239.1,140.9,236,137,236z M116.1,240c0.2-0.2,1.2-0.3,3.5,0.8c-1,0.7-1.8,1.6-2.6,2.5C116,241.5,115.8,240.3,116.1,240z
	 M116,252c0-1.7,0.4-3.3,1-4.8c1.9,2.7,4.5,5.6,7.2,8.2c3.1,3,6.4,5.6,9.2,7.3c-1.6,0.8-3.5,1.3-5.4,1.3
	C121.4,264,116,258.6,116,252z M139.9,262.9c-0.1,0.2-0.9,0.3-2.6-0.4c0.8-0.7,1.4-1.4,2.1-2.3C140.1,261.9,140,262.7,139.9,262.9z
	 M140,252c0,3.9-1.8,7.3-4.7,9.5c0,0-0.1,0-0.1-0.1c-2.9-1.6-6.3-4.3-9.6-7.5c-3.5-3.4-5.9-6.4-7.4-8.7c2.2-3.1,5.8-5.2,9.9-5.2
	c0.9,0,1.7,0.1,2.6,0.3c-0.4,0.8-0.6,1.8-0.6,2.7c0,3.9,3.1,7,7,7c1,0,1.9-0.2,2.7-0.6C139.9,250.3,140,251.1,140,252z M137,248
	c-2.8,0-5-2.2-5-5s2.2-5,5-5s5,2.2,5,5S139.8,248,137,248z"/>
<path fill="#444444" d="M203.3,240.6c-1.2-1.2-3.5-0.9-6.9,1c-0.5-0.2-1-0.5-1.4-0.6c0-2.7-2.3-4.9-5-4.9c-2.7,0-5,2.2-5,4.9
	c-5.4,2.1-9,7.2-9,13.1c0,2.2,0.5,4.3,1.5,6.2c-1.6,2.9-1.9,5-0.8,6.1c0.5,0.5,1.1,0.7,1.9,0.7c1,0,2.4-0.4,3.9-1.2
	c2.2,1.4,4.7,2.2,7.5,2.2c2.4,0,4.7-0.6,6.7-1.7c0.6,0.5,1.4,0.7,2.3,0.7c2.2,0,4-1.8,4-4c0-0.8-0.3-1.6-0.7-2.3
	c1.1-2.1,1.7-4.4,1.7-6.7c0-2.4-0.6-4.8-1.8-6.8C203.9,244.3,204.6,241.9,203.3,240.6z M190,238c1.7,0,3,1.3,3,3s-1.3,3-3,3
	s-3-1.3-3-3S188.3,238,190,238z M185.4,242.9c0.8,1.8,2.5,3.1,4.6,3.1c2.1,0,3.9-1.3,4.6-3.1c2.2,0.9,4,2.4,5.3,4.3
	c-1.5,2.4-3.9,5.4-7.5,8.8c-3.3,3.2-6.7,5.8-9.6,7.5c0,0-0.1,0-0.1,0.1c-2.8-2.2-4.7-5.6-4.7-9.5C178,249.1,180.9,244.8,185.4,242.9
	z M178.1,264.9c-0.1-0.1-0.2-0.9,0.6-2.7c0.6,0.8,1.3,1.6,2.1,2.3C179,265.2,178.2,265,178.1,264.9z M199,265c-1.1,0-2-0.9-2-2
	s0.9-2,2-2s2,0.9,2,2S200.1,265,199,265z M202,254c0,1.9-0.4,3.7-1.3,5.4c-0.5-0.2-1.1-0.4-1.7-0.4c-2.2,0-4,1.8-4,4
	c0,0.6,0.2,1.2,0.4,1.7c-1.7,0.8-3.5,1.3-5.4,1.3c-1.9,0-3.8-0.5-5.4-1.3c2.9-1.7,6.1-4.3,9.2-7.3c2.7-2.6,5.3-5.5,7.2-8.2
	C201.6,250.6,202,252.3,202,254z M198.4,242.8c2.3-1.1,3.3-1,3.5-0.8c0.3,0.3,0.1,1.5-0.9,3.3C200.2,244.4,199.4,243.5,198.4,242.8z
	"/>
<path fill="#444444" d="M244,250c0-2.2-1.8-4-4-4s-4,1.8-4,4c0,1.9,1.3,3.4,3,3.9v8.1c0,1.7,1.3,3,3,3s3-1.3,3-3v-5c0-0.6,0.4-1,1-1
	s1,0.4,1,1v8c0,1.7,1.3,3,3,3s3-1.3,3-3v-8c0-0.6,0.4-1,1-1s1,0.4,1,1v2c0,1.7,1.3,3,3,3s3-1.3,3-3v-1c0-0.6-0.4-1-1-1s-1,0.4-1,1v1
	c0,0.6-0.4,1-1,1s-1-0.4-1-1v-2c0-1.7-1.3-3-3-3s-3,1.3-3,3v8c0,0.6-0.4,1-1,1s-1-0.4-1-1v-8c0-1.7-1.3-3-3-3s-3,1.3-3,3v5
	c0,0.6-0.4,1-1,1s-1-0.4-1-1v-8.1C242.7,253.4,244,251.9,244,250z M238,250c0-1.1,0.9-2,2-2s2,0.9,2,2s-0.9,2-2,2S238,251.1,238,250
	z"/>
<path fill="#444444" d="M265,249.1V245c0-1.7-1.3-3-3-3s-3,1.3-3,3v2c0,0.6-0.4,1-1,1s-1-0.4-1-1v-8c0-1.7-1.3-3-3-3s-3,1.3-3,3v8
	c0,0.6-0.4,1-1,1s-1-0.4-1-1v-5c0-1.7-1.3-3-3-3s-3,1.3-3,3v1c0,0.6,0.4,1,1,1s1-0.4,1-1v-1c0-0.6,0.4-1,1-1s1,0.4,1,1v5
	c0,1.7,1.3,3,3,3s3-1.3,3-3v-8c0-0.6,0.4-1,1-1s1,0.4,1,1v8c0,1.7,1.3,3,3,3s3-1.3,3-3v-2c0-0.6,0.4-1,1-1s1,0.4,1,1v4.1
	c-1.7,0.4-3,2-3,3.9c0,2.2,1.8,4,4,4s4-1.8,4-4C268,251.1,266.7,249.6,265,249.1z M264,255c-1.1,0-2-0.9-2-2s0.9-2,2-2s2,0.9,2,2
	S265.1,255,264,255z"/>
<path fill="#444444" d="M328.7,238.7c0.4-0.4,0.4-1,0-1.4s-1-0.4-1.4,0l-2.7,2.7c-2.9-2.6-6.6-4-10.6-4c-3.9,0-7.6,1.4-10.6,4
	l-2.7-2.7c-0.4-0.4-1-0.4-1.4,0c-0.4,0.4-0.4,1,0,1.4l2.7,2.7c-2.6,2.9-4,6.6-4,10.6c0,3.9,1.4,7.6,4,10.6l-2.7,2.7
	c-0.4,0.4-0.4,1,0,1.4c0.2,0.2,0.5,0.3,0.7,0.3s0.5-0.1,0.7-0.3l2.7-2.7c2.9,2.6,6.6,4,10.6,4c3.9,0,7.6-1.4,10.6-4l2.7,2.7
	c0.2,0.2,0.5,0.3,0.7,0.3s0.5-0.1,0.7-0.3c0.4-0.4,0.4-1,0-1.4l-2.7-2.7c2.6-2.9,4-6.6,4-10.6c0-3.9-1.4-7.6-4-10.6L328.7,238.7z
	 M323.9,261.9C323.9,261.9,323.9,261.9,323.9,261.9C323.9,261.9,323.9,261.9,323.9,261.9c-2.7,2.7-6.2,4.1-9.9,4.1
	c-3.7,0-7.3-1.5-9.9-4.1c-2.6-2.6-4.1-6.2-4.1-9.9c0-3.7,1.5-7.3,4.1-9.9c2.6-2.6,6.2-4.1,9.9-4.1c3.7,0,7.3,1.5,9.9,4.1
	c2.6,2.6,4.1,6.2,4.1,9.9C328,255.7,326.5,259.2,323.9,261.9z"/>
<path fill="#444444" d="M323,251h-8v-9c0-0.6-0.4-1-1-1c-2.9,0-5.7,1.1-7.8,3.2s-3.2,4.8-3.2,7.8s1.1,5.7,3.2,7.8
	c2.1,2.1,4.8,3.2,7.8,3.2c0.6,0,1-0.4,1-1s-0.4-1-1-1c-2.4,0-4.7-0.9-6.4-2.6c-1.7-1.7-2.6-4-2.6-6.4s0.9-4.7,2.6-6.4
	c1.5-1.5,3.3-2.4,5.4-2.6v3c-1.2,0.2-2.3,0.8-3.2,1.7c-1.1,1.1-1.8,2.6-1.8,4.2c0,1.6,0.6,3.1,1.8,4.2c1.1,1.1,2.6,1.8,4.2,1.8
	c0.6,0,1-0.4,1-1s-0.4-1-1-1c-1.1,0-2.1-0.4-2.8-1.2c-0.8-0.8-1.2-1.8-1.2-2.8s0.4-2.1,1.2-2.8c0.5-0.5,1.1-0.9,1.8-1v3.9
	c0,0.6,0.4,1,1,1h9c0.6,0,1-0.4,1-1S323.6,251,323,251z"/>
<path fill="#444444" d="M390,248h-10v-7c0-0.6-0.4-1-1-1h-16v-3c0-0.6-0.4-1-1-1s-1,0.4-1,1v4v13v13c0,0.6,0.4,1,1,1s1-0.4,1-1v-12
	h10v6c0,0.6,0.4,1,1,1h16c0.6,0,1-0.4,1-1v-12C391,248.4,390.6,248,390,248z M363,242h15v2h-9c-0.6,0-1,0.4-1,1s0.4,1,1,1h9v7h-15
	V242z M375,260v-5h4c0.6,0,1-0.4,1-1v-4h9v2h-4c-0.6,0-1,0.4-1,1s0.4,1,1,1h4v6H375z"/>
<path fill="#444444" d="M454,248c0-2.2-1.8-4-4-4c-1.9,0-3.4,1.3-3.9,3h-8.3c-0.4-1.7-2-3-3.9-3s-3.4,1.3-3.9,3H427v-3.1
	c1.7-0.4,3-2,3-3.9c0-2.2-1.8-4-4-4s-4,1.8-4,4c0,1.9,1.3,3.4,3,3.9v4.1c0,0.6,0.4,1,1,1h4.1c0.4,1.4,1.5,2.5,2.9,2.9v8.3
	c-1.7,0.4-3,2-3,3.9c0,2.2,1.8,4,4,4c1.9,0,3.4-1.3,3.9-3h8.3c0.4,1.7,2,3,3.9,3c2.2,0,4-1.8,4-4c0-1.9-1.3-3.4-3-3.9v-8.3
	C452.7,251.4,454,249.9,454,248z M424,240c0-1.1,0.9-2,2-2s2,0.9,2,2s-0.9,2-2,2S424,241.1,424,240z M450,246c1.1,0,2,0.9,2,2
	c0,1.1-0.9,2-2,2c0,0,0,0,0,0s0,0,0,0c-1.1,0-2-0.9-2-2C448,246.9,448.9,246,450,246z M446.1,263h-8.3c-0.4-1.4-1.5-2.5-2.9-2.9
	v-8.3c1.4-0.4,2.5-1.5,2.9-2.9h8.3c0.4,1.4,1.5,2.5,2.9,2.9v8.3C447.6,260.5,446.5,261.6,446.1,263z M432,248c0-1.1,0.9-2,2-2
	s2,0.9,2,2c0,1.1-0.9,2-2,2c0,0,0,0,0,0s0,0,0,0C432.9,250,432,249.1,432,248z M434,266c-1.1,0-2-0.9-2-2s0.9-2,2-2s2,0.9,2,2
	S435.1,266,434,266z M452,264c0,1.1-0.9,2-2,2s-2-0.9-2-2s0.9-2,2-2S452,262.9,452,264z"/>
<path fill="#444444" d="M498,262c0,0.6,0.4,1,1,1h11c0.6,0,1-0.4,1-1v-11c0-0.6-0.4-1-1-1s-1,0.4-1,1v10h-10
	C498.4,261,498,261.4,498,262z"/>
<path fill="#444444" d="M491,251.9V266c0,0.6,0.4,1,1,1h22c0.6,0,1-0.4,1-1v-22c0-0.6-0.4-1-1-1h-14.1c-0.5-3.9-3.9-7-7.9-7
	c-4.4,0-8,3.6-8,8C484,248.1,487.1,251.4,491,251.9z M513,265h-20v-13.1c1.5-0.2,2.8-0.8,3.9-1.6l3.4,3.4c0.2,0.2,0.5,0.3,0.7,0.3
	s0.5-0.1,0.7-0.3c0.4-0.4,0.4-1,0-1.4l-3.4-3.4c0.9-1.1,1.4-2.4,1.6-3.9H513V265z M492,238c3.3,0,6,2.7,6,6s-2.7,6-6,6s-6-2.7-6-6
	S488.7,238,492,238z"/>
<path fill="#444444" d="M492,242c1.1,0,2,0.9,2,2c0,0.6,0.4,1,1,1s1-0.4,1-1c0-2.2-1.8-4-4-4c-0.6,0-1,0.4-1,1S491.4,242,492,242z"
	/>
<path fill="#444444" d="M568,267c0.1,0,0.3,0,0.4-0.1c0.1-0.1,0.2-0.1,0.3-0.2l7-7c0,0,0,0,0,0c0.1-0.1,0.1-0.2,0.2-0.3
	c0,0,0-0.1,0-0.1c0-0.1,0-0.2,0.1-0.3c0,0,0,0,0-0.1v-15c0-0.6-0.4-1-1-1h-4.2c-0.9-4-4.5-7-8.8-7s-7.9,3-8.8,7H549
	c-0.6,0-1,0.4-1,1v22c0,0.6,0.4,1,1,1H568z M569,263.6V260h3.6L569,263.6z M562,238c3.9,0,7,3.1,7,7c0,5.3-5.2,10.2-7,11.7
	c-1.8-1.5-7-6.4-7-11.7C555,241.1,558.1,238,562,238z M550,245h3c0,7.4,8.1,13.5,8.4,13.8c0.2,0.1,0.4,0.2,0.6,0.2s0.4-0.1,0.6-0.2
	c0.3-0.3,8.4-6.4,8.4-13.8h3v13h-6c-0.6,0-1,0.4-1,1v6h-17V245z"/>
<path fill="#444444" d="M562,249c2.2,0,4-1.8,4-4s-1.8-4-4-4s-4,1.8-4,4S559.8,249,562,249z M562,243c1.1,0,2,0.9,2,2s-0.9,2-2,2
	s-2-0.9-2-2S560.9,243,562,243z"/>
<path fill="#444444" d="M81,298H60c-0.6,0-1,0.4-1,1v18h-8c-0.6,0-1,0.4-1,1v6c0,3.3,2.7,6,6,6h21c2.8,0,5-2.2,5-5v-26
	C82,298.4,81.6,298,81,298z M59,325c0,1.7-1.3,3-3,3c-2.2,0-4-1.8-4-4v-5h7V325z M77,328H60c0.6-0.8,1-1.9,1-3v-25h19v24H64
	c-0.6,0-1,0.4-1,1s0.4,1,1,1h15.8C79.4,327.2,78.3,328,77,328z"/>
<path fill="#444444" d="M70.1,317v1.1c0,0.3,0.2,0.5,0.5,0.5c0.3,0,0.5-0.2,0.5-0.5V317c2.5-0.2,3.5-1.7,3.5-3.2
	c0-2.1-1.8-2.8-3.5-3.3v-3.6c0.7,0.1,1.4,0.4,2.1,0.9c0.1,0.1,0.3,0.1,0.4,0.1c0.4,0,0.6-0.3,0.6-0.7c0-0.2-0.1-0.4-0.2-0.5
	c-0.8-0.7-1.7-1-2.9-1.2v-1.2c0-0.3-0.2-0.5-0.5-0.5c-0.3,0-0.5,0.2-0.5,0.5v1.1c-2,0.1-3.4,1.3-3.4,3c0,2,1.8,2.6,3.4,3.1v4
	c-1.1-0.1-2-0.6-2.6-1.2c-0.1-0.1-0.2-0.1-0.4-0.1c-0.4,0-0.6,0.4-0.6,0.7c0,0.2,0.1,0.4,0.2,0.5C67.6,316.4,68.7,316.9,70.1,317z
	 M71.1,312c1.2,0.3,2.1,0.8,2.1,1.9c0,0.8-0.5,1.7-2.1,1.9V312z M68.1,308.6c0-1,0.8-1.7,2-1.7v3.4C69,309.9,68.1,309.5,68.1,308.6z
	"/>
<path fill="#444444" d="M143,298h-30c-0.6,0-1,0.4-1,1v23c0,0.6,0.4,1,1,1h3.6l-3.4,4.4c-0.3,0.4-0.3,1.1,0.2,1.4
	c0.2,0.1,0.4,0.2,0.6,0.2c0.3,0,0.6-0.1,0.8-0.4l4.4-5.6h7.8v1.5l-5.6,3.7c-0.4,0.2-0.5,0.7-0.4,1.1c0.1,0.4,0.5,0.7,1,0.7h12
	c0.4,0,0.8-0.3,1-0.7c0.1-0.4,0-0.9-0.4-1.1l-5.6-3.7V323h14c0.6,0,1-0.4,1-1v-23C144,298.4,143.6,298,143,298z M125.3,328l2.7-1.8
	l2.7,1.8H125.3z M142,321h-21.3l1.6-2H140v-17h-24v17h3.7l-1.6,2H114v-21h28V321z M128.6,309.2c-0.4-0.3-1.1-0.3-1.4,0.2l-5.9,7.6
	H118v-13h20v13h-14.2l5-6.4C129.1,310.2,129,309.5,128.6,309.2z"/>
<path fill="#444444" d="M205,304h-5v-5c0-0.6-0.4-1-1-1h-24c-0.6,0-1,0.4-1,1v24c0,0.6,0.4,1,1,1h5v5c0,0.6,0.4,1,1,1h24
	c0.6,0,1-0.4,1-1v-24C206,304.4,205.6,304,205,304z M176,300h22v22h-22V300z M204,328h-22v-4h17c0.6,0,1-0.4,1-1v-17h4V328z"/>
<path fill="#444444" d="M184.5,317c0.3,0,0.5-0.1,0.7-0.3l9.5-9.5c0.4-0.4,0.4-1,0-1.4c-0.4-0.4-1-0.4-1.4,0l-8.8,8.8l-3.8-3.7
	c-0.4-0.4-1-0.4-1.4,0c-0.4,0.4-0.4,1,0,1.4l4.5,4.3C184,316.9,184.2,317,184.5,317z"/>
<path fill="#444444" d="M267,308h-5v-6c0-0.6-0.4-1-1-1h-24c-0.6,0-1,0.4-1,1v16c0,0.6,0.4,1,1,1h5v7c0,0.6,0.4,1,1,1h24
	c0.6,0,1-0.4,1-1v-17C268,308.4,267.6,308,267,308z M238,303h22v14h-22V303z M261,319c0.6,0,1-0.4,1-1v-8h4v11h-22v-2H261z M244,325
	v-2h22v2H244z"/>
<path fill="#444444" d="M246,314c1.2,0,2.3-0.5,3-1.4c0.8,0.9,1.8,1.4,3,1.4c2.2,0,4-1.8,4-4s-1.8-4-4-4c-1.2,0-2.3,0.5-3,1.4
	c-0.7-0.8-1.8-1.4-3-1.4c-2.2,0-4,1.8-4,4S243.8,314,246,314z M250.3,308.9c0.4-0.6,1-0.9,1.7-0.9c1.1,0,2,0.9,2,2s-0.9,2-2,2
	c-0.7,0-1.3-0.3-1.7-0.9c-0.2-0.3-0.3-0.7-0.3-1.1C250,309.6,250.1,309.2,250.3,308.9z M246,308c1.1,0,2,0.9,2,2s-0.9,2-2,2
	s-2-0.9-2-2S244.9,308,246,308z"/>
<path fill="#444444" d="M314,298c-4.3,0-8.3,1.7-11.3,4.7c-3,3-4.7,7-4.7,11.3c0,4.3,1.7,8.3,4.7,11.3c3,3,7,4.7,11.3,4.7
	s8.3-1.7,11.3-4.7c3-3,4.7-7,4.7-11.3s-1.7-8.3-4.7-11.3C322.3,299.7,318.3,298,314,298z M323.9,323.9c-2.6,2.6-6.2,4.1-9.9,4.1
	s-7.3-1.5-9.9-4.1c-2.6-2.6-4.1-6.2-4.1-9.9c0-3.7,1.5-7.3,4.1-9.9c2.6-2.6,6.2-4.1,9.9-4.1c3.7,0,7.3,1.5,9.9,4.1
	c2.6,2.6,4.1,6.2,4.1,9.9S326.5,321.3,323.9,323.9z"/>
<path fill="#444444" d="M321.4,306.2c-0.4,0.4-0.4,1,0,1.4c1.7,1.7,2.6,4,2.6,6.4c0,2.4-0.9,4.7-2.6,6.4c-0.4,0.4-0.4,1,0,1.4
	c0.2,0.2,0.5,0.3,0.7,0.3s0.5-0.1,0.7-0.3c2.1-2.1,3.2-4.8,3.2-7.8c0-2.9-1.1-5.7-3.2-7.8C322.4,305.8,321.8,305.8,321.4,306.2z"/>
<path fill="#444444" d="M320.2,310.2c-0.4-0.4-1-0.4-1.4,0s-0.4,1,0,1.4c0.8,0.8,1.2,1.8,1.2,2.8c0,1.1-0.4,2.1-1.2,2.8
	c-0.4,0.4-0.4,1,0,1.4c0.2,0.2,0.5,0.3,0.7,0.3s0.5-0.1,0.7-0.3c1.1-1.1,1.8-2.6,1.8-4.2C322,312.9,321.4,311.4,320.2,310.2z"/>
<path fill="#444444" d="M304,314c0-2.4,0.9-4.7,2.6-6.4c0.4-0.4,0.4-1,0-1.4s-1-0.4-1.4,0c-2.1,2.1-3.2,4.8-3.2,7.8
	c0,2.9,1.1,5.7,3.2,7.8c0.2,0.2,0.5,0.3,0.7,0.3s0.5-0.1,0.7-0.3c0.4-0.4,0.4-1,0-1.4C304.9,318.7,304,316.4,304,314z"/>
<path fill="#444444" d="M309.2,310.2c-0.4-0.4-1-0.4-1.4,0c-1.1,1.1-1.8,2.6-1.8,4.2c0,1.6,0.6,3.1,1.8,4.2c0.2,0.2,0.5,0.3,0.7,0.3
	s0.5-0.1,0.7-0.3c0.4-0.4,0.4-1,0-1.4c-0.8-0.8-1.2-1.8-1.2-2.8c0-1.1,0.4-2.1,1.2-2.8C309.6,311.2,309.6,310.6,309.2,310.2z"/>
<path fill="#444444" d="M314,311c-1.7,0-3,1.3-3,3s1.3,3,3,3s3-1.3,3-3S315.7,311,314,311z M314,315c-0.6,0-1-0.4-1-1s0.4-1,1-1
	s1,0.4,1,1S314.6,315,314,315z"/>
<path fill="#444444" d="M389.9,314.7C389.9,314.6,389.9,314.6,389.9,314.7c-0.1-0.2-0.1-0.3-0.2-0.4c0,0,0,0,0,0l-7-7c0,0,0,0,0,0
	c-0.1-0.1-0.2-0.1-0.3-0.2c0,0-0.1,0-0.1,0c-0.1,0-0.2,0-0.3-0.1c0,0,0,0-0.1,0h-8v-1c0-0.1,0-0.2-0.1-0.4c0,0,0-0.1-0.1-0.1
	c0,0,0-0.1-0.1-0.1l-4.9-7c-0.2-0.3-0.5-0.4-0.8-0.4c0,0,0,0,0,0c-0.3,0-0.6,0.2-0.8,0.4l-5.1,7c0,0,0,0.1-0.1,0.1
	c0,0,0,0.1-0.1,0.1c0,0.1-0.1,0.2-0.1,0.4v18c0,0.6,0.4,1,1,1h1v4c0,0.6,0.4,1,1,1h6h18c0.6,0,1-0.4,1-1v-14c0,0,0,0,0-0.1
	C390,314.8,390,314.8,389.9,314.7z M383,310.4l3.6,3.6H383V310.4z M371,323h-2v-16h3v16H371z M364,323v-16h3v16h-2H364z
	 M368.1,300.7l3,4.3H365L368.1,300.7z M366,325h4v3h-4V325z M372,328v-3h1c0.6,0,1-0.4,1-1v-15h7v6c0,0.6,0.4,1,1,1h6v12H372z"/>
<path fill="#444444" d="M453,306c0-3.9-3.1-7-7-7c-0.6,0-1,0.4-1,1s0.4,1,1,1c2.8,0,5,2.2,5,5c0,2.1-1.3,4-3.3,4.7
	c-0.5,0.2-1.1,0.3-1.7,0.3c-0.6,0-1,0.4-1,1s0.4,1,1,1c0.7,0,1.4-0.1,2-0.3v5.3h-20v-6c0-5.5,4.5-10,10-10c2.9,0,5.6,1,7.3,2.7
	c0.2,0.2,0.4,0.3,0.7,0.3c0.6,0,1,0.4,1,1s-0.4,1-1,1c-0.6,0-1,0.4-1,1s0.4,1,1,1c1.7,0,3-1.3,3-3c0-1.5-1.1-2.7-2.6-3
	c-1.9-1.7-4.5-2.8-7.4-3v-1c0-0.6-0.4-1-1-1s-1,0.4-1,1v1.1c-6.1,0.5-11,5.7-11,11.9v6h-2c-0.6,0-1,0.4-1,1v5c0,0.6,0.4,1,1,1h8.1
	c0.5,2.8,2.9,5,5.9,5s5.4-2.2,5.9-5h8.1c0.6,0,1-0.4,1-1v-5c0-0.6-0.4-1-1-1h-2v-6.3C451.8,310.4,453,308.3,453,306z M438,328
	c-1.9,0-3.4-1.3-3.9-3h7.7C441.4,326.7,439.9,328,438,328z M451,323h-26v-3h2h22h2V323z"/>
<path fill="#444444" d="M491,322c0.6,0,1-0.4,1-1s-0.4-1-1-1c-1.7,0-3,1.3-3,3s1.3,3,3,3c0.6,0,1-0.4,1-1s-0.4-1-1-1
	c-0.6,0-1-0.4-1-1S490.4,322,491,322z"/>
<path fill="#444444" d="M509,320c-0.6,0-1,0.4-1,1s0.4,1,1,1c0.6,0,1,0.4,1,1s-0.4,1-1,1c-0.6,0-1,0.4-1,1s0.4,1,1,1
	c1.7,0,3-1.3,3-3S510.7,320,509,320z"/>
<path fill="#444444" d="M512,299.8c-0.1-0.5-0.5-0.8-1-0.8h-4c-0.6,0-1,0.4-1,1s0.4,1,1,1h3.2l2.8,16.3c-1.1-0.8-2.5-1.3-4-1.3h-18
	c-1.5,0-2.9,0.5-4,1.3l2.8-16.3h3.2c0.6,0,1-0.4,1-1s-0.4-1-1-1h-4c-0.5,0-0.9,0.3-1,0.8l-3.6,20.9c-0.2,0.7-0.4,1.5-0.4,2.2
	c0,3.9,3.1,7,7,7c3.5,0,6.4-2.6,6.9-6h4.2c0.5,3.4,3.4,6,6.9,6c3.9,0,7-3.1,7-7c0-0.8-0.1-1.5-0.4-2.2L512,299.8z M504.1,318
	c-1.1,1.1-1.8,2.4-2,4h-4.2c-0.2-1.6-1-2.9-2-4H504.1z M491,328c-2.8,0-5-2.2-5-5s2.2-5,5-5s5,2.2,5,5S493.8,328,491,328z M509,328
	c-2.8,0-5-2.2-5-5s2.2-5,5-5s5,2.2,5,5S511.8,328,509,328z"/>
<path fill="#444444" d="M578,314c0-8.8-7.2-16-16-16c-2.8,0-5.5,0.7-7.9,2.1c-0.9-0.7-1.9-1.1-3.1-1.1c-2.8,0-5,2.2-5,5
	c0,1.4,0.5,2.6,1.4,3.5c-0.9,2.1-1.4,4.2-1.4,6.5c0,8.8,7.2,16,16,16c2.8,0,5.5-0.7,7.9-2.1c0.9,0.7,1.9,1.1,3.1,1.1
	c2.8,0,5-2.2,5-5c0-1.4-0.5-2.6-1.4-3.5C577.5,318.5,578,316.3,578,314z M551,301c1.7,0,3,1.3,3,3s-1.3,3-3,3s-3-1.3-3-3
	S549.3,301,551,301z M548,314c0-1.9,0.4-3.7,1.1-5.4c0.6,0.2,1.2,0.4,1.9,0.4c2.8,0,5-2.2,5-5c0-0.9-0.2-1.6-0.6-2.3
	c2-1.1,4.3-1.7,6.6-1.7c7.7,0,14,6.3,14,14c0,1.9-0.4,3.7-1.1,5.4c-0.6-0.2-1.2-0.4-1.9-0.4c-2.8,0-5,2.2-5,5c0,0.9,0.2,1.6,0.6,2.3
	c-2,1.1-4.3,1.7-6.6,1.7C554.3,328,548,321.7,548,314z M573,327c-1.7,0-3-1.3-3-3s1.3-3,3-3s3,1.3,3,3S574.7,327,573,327z"/>
<path fill="#444444" d="M562,306c-4.4,0-8,3.6-8,8c0,4.4,3.6,8,8,8s8-3.6,8-8C570,309.6,566.4,306,562,306z M559,319.2V319
	c0-1.7,1.3-3,3-3s3,1.3,3,3v0.2c-0.9,0.5-1.9,0.8-3,0.8S559.9,319.7,559,319.2z M561,313c0-0.6,0.4-1,1-1s1,0.4,1,1s-0.4,1-1,1
	S561,313.6,561,313z M566.8,317.6c-0.4-1.2-1.2-2.3-2.3-2.9c0.3-0.5,0.5-1.1,0.5-1.7c0-1.7-1.3-3-3-3s-3,1.3-3,3
	c0,0.6,0.2,1.2,0.5,1.7c-1.1,0.6-1.9,1.7-2.3,2.9c-0.8-1-1.2-2.3-1.2-3.6c0-3.3,2.7-6,6-6s6,2.7,6,6
	C568,315.4,567.5,316.6,566.8,317.6z"/>
</svg>
